{
.appVersion = "3148";
.formatVersion = 3;
axes = (
{
name = Weight;
tag = wght;
}
);
classes = (
{
automatic = 1;
code = "A Aacute Abreve Acircumflex Adieresis Agrave Amacron Aogonek Aring Atilde AE B C Cacute Ccaron Ccedilla Cdotaccent D Eth Dcaron Dcroat E Eacute Ecaron Ecircumflex Edieresis Edotaccent Egrave Emacron Eogonek F G Gbreve Gcommaaccent Gdotaccent H Hbar I IJ Iacute Icircumflex Idieresis Idotaccent Igrave Imacron Iogonek J K Kcommaaccent L Lacute Lcaron Lcommaaccent Lslash M N Nacute Ncaron Ncommaaccent Ntilde Eng O Oacute Ocircumflex Odieresis Ograve Ohungarumlaut Omacron Oslash Otilde OE P Thorn Q R Racute Rcaron Rcommaaccent S Sacute Scaron Scedilla Scommaaccent Germandbls T Tcaron Tcommaaccent U Uacute Ubreve Ucircumflex Udieresis Ugrave Uhungarumlaut Umacron Uogonek Uring V W Wacute Wcircumflex Wdieresis Wgrave X Y Yacute Ycircumflex Ydieresis Ygrave Z Zacute Zcaron Zdotaccent A-cy Be-cy Ve-cy Ge-cy Gje-cy Geupturn-cy Gestroke-cy Gemiddlehook-cy De-cy Ie-cy Io-cy Zhe-cy Ze-cy Ii-cy Iishort-cy Ka-cy Kje-cy El-cy Em-cy En-cy O-cy Pe-cy Er-cy Es-cy Te-cy U-cy Ushort-cy Ef-cy Ha-cy Che-cy Tse-cy Sha-cy Shcha-cy Dzhe-cy Softsign-cy Yeru-cy Hardsign-cy Lje-cy Nje-cy Dze-cy E-cy Ereversed-cy I-cy Yi-cy Je-cy Tshe-cy Yu-cy Ya-cy Dje-cy Zhedescender-cy Zedescender-cy Kadescender-cy Kaverticalstroke-cy Kabashkir-cy Endescender-cy EnGe-cy Esdescender-cy Ustraight-cy Ustraightstroke-cy Hadescender-cy Chedescender-cy Cheverticalstroke-cy Shha-cy Palochka-cy Kahook-cy Enhook-cy Chekhakassian-cy Abreve-cy Adieresis-cy Aie-cy Iebreve-cy Schwa-cy Schwadieresis-cy Zhedieresis-cy Zedieresis-cy Imacron-cy Idieresis-cy Odieresis-cy Obarred-cy Obarreddieresis-cy Umacron-cy Udieresis-cy Uhungarumlaut-cy Chedieresis-cy Yerudieresis-cy Elhook-cy Delta.tab";
name = Uppercase;
}
);
customParameters = (
{
name = panose;
value = (
2,
11,
5,
3,
2,
2,
2,
2,
2,
4
);
},
{
name = fsType;
value = (
);
},
{
name = blueScale;
value = 0.0396;
},
{
name = blueShift;
value = 7;
},
{

glyphs = (
{
glyphname = A;
kernLeft = _A_right;
kernRight = _A_left;
lastChange = "2023-01-04 10:50:46 +0000";
layers = (
{
anchors = (
{
name = bottom;
pos = (335,0);
},
{
name = ogonek;
pos = (650,0);
},
{
name = top;
pos = (335,700);
}
);
background = {
shapes = (
{
closed = 1;
nodes = (
(650,0,l,{
name = ab02;
}),
(382,700,l),
(288,700,l,{
name = sh01;
}),
(20,0,l),
(118,0,l,{
name = ab01;
}),
(185,174,l),
(481,174,l,{
name = sv01;
}),
(548,0,l)
);
},
{
closed = 1;
nodes = (
(450,256,l,{
name = iv01;
}),
(216,256,l),
(333,580,l,{
name = ih01;
})
);
}
);
};
layerId = "153974D4-4CB0-4785-B412-2977049B2888";
shapes = (
{
closed = 1;
nodes = (
(118,0,l,{
name = ab01;
}),
(185,174,l),
(481,174,l,{
name = sv01;
}),
(548,0,l),
(650,0,l,{
name = ab02;
}),
(382,700,l),
(288,700,l,{
name = sh01;
}),
(20,0,l)
);
},
{
closed = 1;
nodes = (
(333,580,l,{
name = ih01;
}),
(450,256,l,{
name = iv01;
}),
(216,256,l)
);
}
);
userData = {
com.fontlab.ttcommands = (
{
code = alignt;
point = sh01;
zone = uc;
},
{
code = alignb;
point = ab01;
zone = "b: 0";
},
{
code = alignb;
point = ab02;
zone = "b: 0";
},
{
align = center;
code = interpolatev;
point = iv01;
point1 = sh01;
point2 = ab01;
},
{
align = round;
code = singlev;
point1 = iv01;
point2 = sv01;
stem = "OH: 82";
},
{
align = center;
code = interpolatev;
point = ih01;
point1 = sh01;
point2 = ab01;
},
{
align = round;
code = interpolateh;
point = ih01;
point1 = lsb;
point2 = rsb;
},
{
align = center;
code = singleh;
point1 = ih01;
point2 = sh01;
}
);
};
vertWidth = 0;
width = 670;
},
{
anchors = (
{
name = bottom;
pos = (340,0);
},
{
name = ogonek;
pos = (665,0);
},
{
name = top;
pos = (340,700);
}
);
background = {
shapes = (
{
closed = 1;
nodes = (
(665,0,l,{
name = ab02;
}),
(400,700,l),
(280,700,l,{
name = sh01;
}),
(15,0,l),
(135,0,l,{
name = ab01;
}),
(194,158,l),
(478,158,l,{
name = sv01;
}),
(537,0,l)
);
},
{
closed = 1;
nodes = (
(439,262,l,{
name = iv01;
}),
(233,262,l),
(337,550,l,{
name = ih01;
})
);
}
);
};
layerId = "519BD859-66F8-41ED-8E65-BDFB48F6DA60";
shapes = (
{
closed = 1;
nodes = (
(135,0,l,{
name = ab01;
}),
(194,158,l),
(478,158,l,{
name = sv01;
}),
(537,0,l),
(665,0,l,{
name = ab02;
}),
(400,700,l),
(280,700,l,{
name = sh01;
}),
(15,0,l)
);
},
{
closed = 1;
nodes = (
(337,550,l,{
name = ih01;
}),
(439,262,l,{
name = iv01;
}),
(233,262,l)
);
}
);
userData = {
com.fontlab.ttcommands = (
{
code = alignt;
point = sh01;
zone = uc;
},
{
code = alignb;
point = ab01;
zone = "b: 0";
},
{
code = alignb;
point = ab02;
zone = "b: 0";
},
{
align = center;
code = interpolatev;
point = iv01;
point1 = sh01;
point2 = ab01;
},
{
align = round;
code = singlev;
point1 = iv01;
point2 = sv01;
stem = "BES: 104";
},
{
align = center;
code = interpolatev;
point = ih01;
point1 = sh01;
point2 = ab01;
},
{
align = round;
code = interpolateh;
point = ih01;
point1 = lsb;
point2 = rsb;
},
{
align = center;
code = singleh;
point1 = ih01;
point2 = sh01;
}
);
};
vertWidth = 0;
width = 680;
},
{
anchors = (
{
name = bottom;
pos = (345,0);
},
{
name = ogonek;
pos = (680,0);
},
{
name = top;
pos = (345,700);
}
);
background = {
shapes = (
{
closed = 1;
nodes = (
(680,0,l,{
name = ab02;
}),
(420,700,l),
(270,700,l,{
name = sh01;
}),
(10,0,l),
(156,0,l,{
name = ab01;
}),
(209,143,l),
(468,143,l,{
name = sv01;
}),
(522,0,l)
);
},
{
closed = 1;
nodes = (
(423,267,l,{
name = iv01;
}),
(255,267,l),
(339,510,l,{
name = ih01;
})
);
}
);
};
layerId = "68905092-2787-4DB6-B22F-3BD17B98A53B";
shapes = (
{
closed = 1;
nodes = (
(156,0,l,{
name = ab01;
}),
(209,143,l),
(468,143,l,{
name = sv01;
}),
(522,0,l),
(680,0,l,{
name = ab02;
}),
(420,700,l),
(270,700,l,{
name = sh01;
}),
(10,0,l)
);
},
{
closed = 1;
nodes = (
(339,510,l,{
name = ih01;
}),
(423,267,l,{
name = iv01;
}),
(255,267,l)
);
}
);
userData = {
com.fontlab.ttcommands = (
{
code = alignt;
point = sh01;
zone = uc;
},
{
code = alignb;
point = ab01;
zone = "b: 0";
},
{
code = alignb;
point = ab02;
zone = "b: 0";
},
{
align = center;
code = interpolatev;
point = iv01;
point1 = sh01;
point2 = ab01;
},
{
align = round;
code = singlev;
point1 = iv01;
point2 = sv01;
stem = "OH: 124";
},
{
align = center;
code = interpolatev;
point = ih01;
point1 = sh01;
point2 = ab01;
},
{
align = round;
code = interpolateh;
point = ih01;
point1 = lsb;
point2 = rsb;
},
{
align = center;
code = singleh;
point1 = ih01;
point2 = sh01;
}
);
};
vertWidth = 0;
width = 690;
},
{
anchors = (
{
name = bottom;
pos = (355,0);
},
{
name = ogonek;
pos = (700,0);
},
{
name = top;
pos = (355,700);
}
);
background = {
shapes = (
{
closed = 1;
nodes = (
(700,0,l,{
name = ab02;
}),
(445,700,l),
(265,700,l,{
name = sh01;
}),
(10,0,l),
(180,0,l,{
name = ab01;
}),
(228,134,l),
(462,134,l,{
name = sv01;
}),
(510,0,l)
);
},
{
closed = 1;
nodes = (
(411,272,l,{
name = iv01;
}),
(279,272,l),
(345,480,l,{
name = ih01;
})
);
}
);
};
layerId = "694BE86E-DB85-4EB8-AAFE-5A09896C9F48";
shapes = (
{
closed = 1;
nodes = (
(180,0,l,{
name = ab01;
}),
(228,134,l),
(462,134,l,{
name = sv01;
}),
(510,0,l),
(700,0,l,{
name = ab02;
}),
(445,700,l),
(265,700,l,{
name = sh01;
}),
(10,0,l)
);
},
{
closed = 1;
nodes = (
(345,480,l,{
name = ih01;
}),
(411,272,l,{
name = iv01;
}),
(279,272,l)
);
}
);
userData = {
com.fontlab.ttcommands = (
{
code = alignt;
point = sh01;
zone = uc;
},
{
code = alignb;
point = ab01;
zone = "b: 0";
},
{
code = alignb;
point = ab02;
zone = "b: 0";
},
{
align = center;
code = interpolatev;
point = iv01;
point1 = sh01;
point2 = ab01;
},
{
align = round;
code = singlev;
point1 = iv01;
point2 = sv01;
stem = "BES: 138";
},
{
align = center;
code = interpolatev;
point = ih01;
point1 = sh01;
point2 = ab01;
},
{
align = round;
code = interpolateh;
point = ih01;
point1 = lsb;
point2 = rsb;
},
{
align = center;
code = singleh;
point1 = ih01;
point2 = sh01;
}
);
};
vertWidth = 0;
width = 710;
},
{
anchors = (
{
name = bottom;
pos = (382,0);
},
{
name = ogonek;
pos = (762,0);
},
{
name = top;
pos = (382,700);
}
);
background = {
shapes = (
{
closed = 1;
nodes = (
(762,0,l,{
name = ab02;
}),
(514,700,l),
(250,700,l,{
name = at01;
}),
(2,0,l),
(246,0,l,{
name = ab01;
}),
(271,94,l),
(453,94,l,{
name = sh01;
}),
(478,0,l)
);
},
{
closed = 1;
nodes = (
(401,286,l,{
name = ih01;
}),
(322,286,l),
(362,460,l,{
name = iv01;
})
);
}
);
};
layerId = "BB51FDA8-DF56-46E5-B7C8-6101400FE38F";
shapes = (
{
closed = 1;
nodes = (
(246,0,l,{
name = ab01;
}),
(271,94,l),
(453,94,l,{
name = sh01;
}),
(478,0,l),
(762,0,l,{
name = ab02;
}),
(514,700,l),
(250,700,l,{
name = at01;
}),
(2,0,l)
);
},
{
closed = 1;
nodes = (
(362,460,l,{
name = iv01;
}),
(401,286,l,{
name = ih01;
}),
(322,286,l)
);
}
);
userData = {
com.fontlab.ttcommands = (
{
code = alignt;
point = at01;
zone = uc;
},
{
code = alignb;
point = ab01;
zone = "b: 0";
},
{
code = alignb;
point = ab02;
zone = "b: 0";
},
{
align = center;
code = interpolatev;
point = ih01;
point1 = at01;
point2 = ab01;
},
{
align = round;
code = singlev;
point1 = ih01;
point2 = sh01;
stem = "EP: 192";
},
{
align = center;
code = interpolatev;
point = iv01;
point1 = at01;
point2 = ab01;
},
{
align = round;
code = interpolateh;
point = ih01;
point1 = lsb;
point2 = rsb;
},
{
align = round;
code = singleh;
point1 = ih01;
point2 = sh01;
}
);
};
vertWidth = 0;
width = 764;
}
);
unicode = 65;
},
{
glyphname = Aacute;
kernLeft = _A_right;
kernRight = _A_left;
lastChange = "2023-01-04 10:50:46 +0000";
layers = (
{
background = {
shapes = (
{
closed = 1;
nodes = (
(650,0,l,{
name = ab02;
}),
(382,700,l),
(288,700,l,{
name = sh01;
}),
(20,0,l),
(118,0,l,{
name = ab01;
}),
(185,174,l),
(481,174,l,{
name = sv01;
}),
(548,0,l)
);
},
{
closed = 1;
nodes = (
(450,256,l,{
name = iv01;
}),
(216,256,l),
(333,580,l,{
name = ih01;
})
);
},
{
closed = 1;
nodes = (
(375,750,l,{
name = ab01;
}),
(525,900,l),
(405,900,l,{
name = ih01;
}),
(295,750,l)
);
}
);
};
layerId = "153974D4-4CB0-4785-B412-2977049B2888";
shapes = (
{
ref = A;
},
{
pos = (275,0);
ref = acutecomb.case;
}
);
width = 670;
},
{
background = {
shapes = (
{
closed = 1;
nodes = (
(665,0,l,{
name = ab02;
}),
(400,700,l),
(280,700,l,{
name = sh01;
}),
(15,0,l),
(135,0,l,{
name = ab01;
}),
(194,158,l),
(478,158,l,{
name = sv01;
}),
(537,0,l)
);
},
{
closed = 1;
nodes = (
(439,262,l,{
name = iv01;
}),
(233,262,l),
(337,550,l,{
name = ih01;
})
);
},
{
closed = 1;
nodes = (
(390,750,l,{
name = ab01;
}),
(540,900,l),
(400,900,l,{
name = ih01;
}),
(290,750,l)
);
}
);
};
layerId = "519BD859-66F8-41ED-8E65-BDFB48F6DA60";
shapes = (
{
ref = A;
},
{
pos = (270,0);
ref = acutecomb.case;
}
);
width = 680;
},
{
background = {
shapes = (
{
closed = 1;
nodes = (
(680,0,l,{
name = ab02;
}),
(420,700,l),
(270,700,l,{
name = sh01;
}),
(10,0,l),
(156,0,l,{
name = ab01;
}),
(209,143,l),
(468,143,l,{
name = sv01;
}),
(522,0,l)
);
},
{
closed = 1;
nodes = (
(423,267,l,{
name = iv01;
}),
(255,267,l),
(339,510,l,{
name = ih01;
})
);
},
{
closed = 1;
nodes = (
(405,750,l,{
name = ih01;
}),
(555,900,l),
(395,900,l,{
name = sv01;
}),
(285,750,l)
);
}
);
};
layerId = "68905092-2787-4DB6-B22F-3BD17B98A53B";
shapes = (
{
ref = A;
},
{
pos = (265,0);
ref = acutecomb.case;
}
);
width = 690;
},
{
background = {
shapes = (
{
closed = 1;
nodes = (
(700,0,l,{
name = ab02;
}),
(445,700,l),
(265,700,l,{
name = sh01;
}),
(10,0,l),
(180,0,l,{
name = ab01;
}),
(228,134,l),
(462,134,l,{
name = sv01;
}),
(510,0,l)
);
},
{
closed = 1;
nodes = (
(411,272,l,{
name = iv01;
}),
(279,272,l),
(345,480,l,{
name = ih01;
})
);
},
{
closed = 1;
nodes = (
(420,750,l,{
name = ih01;
}),
(570,900,l),
(400,900,l,{
name = sv01;
}),
(290,750,l)
);
}
);
};
layerId = "694BE86E-DB85-4EB8-AAFE-5A09896C9F48";
shapes = (
{
ref = A;
},
{
pos = (269,0);
ref = acutecomb.case;
}
);
width = 710;
},
{
background = {
shapes = (
{
closed = 1;
nodes = (
(762,0,l,{
name = ab02;
}),
(514,700,l),
(250,700,l,{
name = at01;
}),
(2,0,l),
(246,0,l,{
name = ab01;
}),
(271,94,l),
(453,94,l,{
name = sh01;
}),
(478,0,l)
);
},
{
closed = 1;
nodes = (
(401,286,l,{
name = ih01;
}),
(322,286,l),
(362,460,l,{
name = iv01;
})
);
},
{
closed = 1;
nodes = (
(467,750,l,{
name = ih01;
}),
(637,900,l),
(407,900,l,{
name = sv01;
}),
(297,750,l)
);
}
);
};
layerId = "BB51FDA8-DF56-46E5-B7C8-6101400FE38F";
shapes = (
{
ref = A;
},
{
pos = (277,0);
ref = acutecomb.case;
}
);
width = 764;
}
);
unicode = 193;
},
{
glyphname = Acircumflex;
kernLeft = _A_right;
kernRight = _A_left;
lastChange = "2023-01-04 10:50:46 +0000";
layers = (
{
background = {
shapes = (
{
closed = 1;
nodes = (
(650,0,l,{
name = ab02;
}),
(382,700,l),
(288,700,l,{
name = sh01;
}),
(20,0,l),
(118,0,l,{
name = ab01;
}),
(185,174,l),
(481,174,l,{
name = sv01;
}),
(548,0,l)
);
},
{
closed = 1;
nodes = (
(450,256,l,{
name = iv01;
}),
(216,256,l),
(333,580,l,{
name = ih01;
})
);
},
{
closed = 1;
nodes = (
(255,750,l,{
name = ab01;
}),
(335,830,l,{
name = ih01;
}),
(415,750,l),
(495,750,l,{
name = ab02;
}),
(384,900,l,{
name = sv02;
}),
(285,900,l,{
name = sv01;
}),
(175,750,l)
);
}
);
};
layerId = "153974D4-4CB0-4785-B412-2977049B2888";
shapes = (
{
ref = A;
},
{
pos = (155,0);
ref = circumflexcomb.case;
}
);
width = 670;
},
{
background = {
shapes = (
{
closed = 1;
nodes = (
(665,0,l,{
name = ab02;
}),
(400,700,l),
(280,700,l,{
name = sh01;
}),
(15,0,l),
(135,0,l,{
name = ab01;
}),
(194,158,l),
(478,158,l,{
name = sv01;
}),
(537,0,l)
);
},
{
closed = 1;
nodes = (
(439,262,l,{
name = iv01;
}),
(233,262,l),
(337,550,l,{
name = ih01;
})
);
},
{
closed = 1;
nodes = (
(270,750,l,{
name = ab01;
}),
(340,820,l,{
name = ih01;
}),
(410,750,l),
(510,750,l,{
name = ab02;
}),
(400,900,l,{
name = sv02;
}),
(280,900,l,{
name = sv01;
}),
(170,750,l)
);
}
);
};
layerId = "519BD859-66F8-41ED-8E65-BDFB48F6DA60";
shapes = (
{
ref = A;
},
{
pos = (150,0);
ref = circumflexcomb.case;
}
);
width = 680;
},
{
background = {
shapes = (
{
closed = 1;
nodes = (
(680,0,l,{
name = ab02;
}),
(420,700,l),
(270,700,l,{
name = sh01;
}),
(10,0,l),
(156,0,l,{
name = ab01;
}),
(209,143,l),
(468,143,l,{
name = sv01;
}),
(522,0,l)
);
},
{
closed = 1;
nodes = (
(423,267,l,{
name = iv01;
}),
(255,267,l),
(339,510,l,{
name = ih01;
})
);
},
{
closed = 1;
nodes = (
(285,750,l,{
name = ab01;
}),
(345,810,l,{
name = ih01;
}),
(405,750,l),
(525,750,l,{
name = ab02;
}),
(415,900,l,{
name = sv02;
}),
(275,900,l,{
name = sv01;
}),
(165,750,l)
);
}
);
};
layerId = "68905092-2787-4DB6-B22F-3BD17B98A53B";
shapes = (
{
ref = A;
},
{
pos = (145,0);
ref = circumflexcomb.case;
}
);
width = 690;
},
{
background = {
shapes = (
{
closed = 1;
nodes = (
(700,0,l,{
name = ab02;
}),
(445,700,l),
(265,700,l,{
name = sh01;
}),
(10,0,l),
(180,0,l,{
name = ab01;
}),
(228,134,l),
(462,134,l,{
name = sv01;
}),
(510,0,l)
);
},
{
closed = 1;
nodes = (
(411,272,l,{
name = iv01;
}),
(279,272,l),
(345,480,l,{
name = ih01;
})
);
},
{
closed = 1;
nodes = (
(295,750,l,{
name = ab01;
}),
(355,810,l,{
name = ih01;
}),
(415,750,l),
(545,750,l,{
name = ab02;
}),
(435,900,l,{
name = sv02;
}),
(275,900,l,{
name = sv01;
}),
(165,750,l)
);
}
);
};
layerId = "694BE86E-DB85-4EB8-AAFE-5A09896C9F48";
shapes = (
{
ref = A;
},
{
pos = (145,0);
ref = circumflexcomb.case;
}
);
width = 710;
},
{
background = {
shapes = (
{
closed = 1;
nodes = (
(762,0,l,{
name = ab02;
}),
(514,700,l),
(250,700,l,{
name = at01;
}),
(2,0,l),
(246,0,l,{
name = ab01;
}),
(271,94,l),
(453,94,l,{
name = sh01;
}),
(478,0,l)
);
},
{
closed = 1;
nodes = (
(401,286,l,{
name = ih01;
}),
(322,286,l),
(362,460,l,{
name = iv01;
})
);
},
{
closed = 1;
nodes = (
(332,750,l,{
name = ab01;
}),
(382,795,l,{
name = ih01;
}),
(432,750,l),
(602,750,l,{
name = ab02;
}),
(492,900,l,{
name = sv02;
}),
(272,900,l,{
name = sv01;
}),
(162,750,l)
);
}
);
};
layerId = "BB51FDA8-DF56-46E5-B7C8-6101400FE38F";
shapes = (
{
ref = A;
},
{
pos = (142,0);
ref = circumflexcomb.case;
}
);
width = 764;
}
);
unicode = 194;
},
{
glyphname = Adieresis;
kernLeft = _A_right;
kernRight = _A_left;
lastChange = "2023-01-04 10:50:46 +0000";
layers = (
{
background = {
shapes = (
{
closed = 1;
nodes = (
(650,0,l,{
name = ab02;
}),
(382,700,l),
(288,700,l,{
name = sh01;
}),
(20,0,l),
(118,0,l,{
name = ab01;
}),
(185,174,l),
(481,174,l,{
name = sv01;
}),
(548,0,l)
);
},
{
closed = 1;
nodes = (
(450,256,l,{
name = iv01;
}),
(216,256,l),
(333,580,l,{
name = ih01;
})
);
},
{
closed = 1;
nodes = (
(258,765,o),
(285,792,o),
(285,825,cs),
(285,858,o),
(258,885,o),
(225,885,cs),
(192,885,o),
(165,858,o),
(165,825,cs),
(165,792,o),
(192,765,o),
(225,765,cs)
);
},
{
closed = 1;
nodes = (
(478,765,o),
(505,792,o),
(505,825,cs),
(505,858,o),
(478,885,o),
(445,885,cs),
(412,885,o),
(385,858,o),
(385,825,cs),
(385,792,o),
(412,765,o),
(445,765,cs)
);
}
);
};
layerId = "153974D4-4CB0-4785-B412-2977049B2888";
shapes = (
{
ref = A;
},
{
pos = (145,0);
ref = dieresiscomb.case;
}
);
width = 670;
},
{
background = {
shapes = (
{
closed = 1;
nodes = (
(665,0,l,{
name = ab02;
}),
(400,700,l),
(280,700,l,{
name = sh01;
}),
(15,0,l),
(135,0,l,{
name = ab01;
}),
(194,158,l),
(478,158,l,{
name = sv01;
}),
(537,0,l)
);
},
{
closed = 1;
nodes = (
(439,262,l,{
name = iv01;
}),
(233,262,l),
(337,550,l,{
name = ih01;
})
);
},
{
closed = 1;
nodes = (
(266,755,o),
(295,784,o),
(295,825,cs),
(295,866,o),
(266,895,o),
(225,895,cs),
(184,895,o),
(155,866,o),
(155,825,cs),
(155,784,o),
(184,755,o),
(225,755,cs)
);
},
{
closed = 1;
nodes = (
(496,755,o),
(525,784,o),
(525,825,cs),
(525,866,o),
(496,895,o),
(455,895,cs),
(414,895,o),
(385,866,o),
(385,825,cs),
(385,784,o),
(414,755,o),
(455,755,cs)
);
}
);
};
layerId = "519BD859-66F8-41ED-8E65-BDFB48F6DA60";
shapes = (
{
ref = A;
},
{
pos = (135,0);
ref = dieresiscomb.case;
}
);
width = 680;
},
{
background = {
shapes = (
{
closed = 1;
nodes = (
(680,0,l,{
name = ab02;
}),
(420,700,l),
(270,700,l,{
name = sh01;
}),
(10,0,l),
(156,0,l,{
name = ab01;
}),
(209,143,l),
(468,143,l,{
name = sv01;
}),
(522,0,l)
);
},
{
closed = 1;
nodes = (
(423,267,l,{
name = iv01;
}),
(255,267,l),
(339,510,l,{
name = ih01;
})
);
},
{
closed = 1;
nodes = (
(272,745,o),
(305,778,o),
(305,825,cs),
(305,872,o),
(272,905,o),
(225,905,cs),
(178,905,o),
(145,872,o),
(145,825,cs),
(145,778,o),
(178,745,o),
(225,745,cs)
);
},
{
closed = 1;
nodes = (
(512,745,o),
(545,778,o),
(545,825,cs),
(545,872,o),
(512,905,o),
(465,905,cs),
(418,905,o),
(385,872,o),
(385,825,cs),
(385,778,o),
(418,745,o),
(465,745,cs)
);
}
);
};
layerId = "68905092-2787-4DB6-B22F-3BD17B98A53B";
shapes = (
{
ref = A;
},
{
pos = (125,0);
ref = dieresiscomb.case;
}
);
width = 690;
},
{
background = {
shapes = (
{
closed = 1;
nodes = (
(700,0,l,{
name = ab02;
}),
(445,700,l),
(265,700,l,{
name = sh01;
}),
(10,0,l),
(180,0,l,{
name = ab01;
}),
(228,134,l),
(462,134,l,{
name = sv01;
}),
(510,0,l)
);
},
{
closed = 1;
nodes = (
(411,272,l,{
name = iv01;
}),
(279,272,l),
(345,480,l,{
name = ih01;
})
);
},
{
closed = 1;
nodes = (
(287,740,o),
(320,778,o),
(320,825,cs),
(320,872,o),
(287,910,o),
(230,910,cs),
(173,910,o),
(140,872,o),
(140,825,cs),
(140,778,o),
(173,740,o),
(230,740,cs)
);
},
{
closed = 1;
nodes = (
(537,740,o),
(570,778,o),
(570,825,cs),
(570,872,o),
(537,910,o),
(480,910,cs),
(423,910,o),
(390,872,o),
(390,825,cs),
(390,778,o),
(423,740,o),
(480,740,cs)
);
}
);
};
layerId = "694BE86E-DB85-4EB8-AAFE-5A09896C9F48";
shapes = (
{
ref = A;
},
{
pos = (120,0);
ref = dieresiscomb.case;
}
);
width = 710;
},
{
background = {
shapes = (
{
closed = 1;
nodes = (
(762,0,l,{
name = ab02;
}),
(514,700,l),
(250,700,l,{
name = at01;
}),
(2,0,l),
(246,0,l,{
name = ab01;
}),
(271,94,l),
(453,94,l,{
name = sh01;
}),
(478,0,l)
);
},
{
closed = 1;
nodes = (
(401,286,l,{
name = ih01;
}),
(322,286,l),
(362,460,l,{
name = iv01;
})
);
},
{
closed = 1;
nodes = (
(314,740,o),
(357,774,o),
(357,825,cs),
(357,876,o),
(314,910,o),
(247,910,cs),
(180,910,o),
(137,876,o),
(137,825,cs),
(137,774,o),
(180,740,o),
(247,740,cs)
);
},
{
closed = 1;
nodes = (
(584,740,o),
(627,774,o),
(627,825,cs),
(627,876,o),
(584,910,o),
(517,910,cs),
(450,910,o),
(407,876,o),
(407,825,cs),
(407,774,o),
(450,740,o),
(517,740,cs)
);
}
);
};
layerId = "BB51FDA8-DF56-46E5-B7C8-6101400FE38F";
shapes = (
{
ref = A;
},
{
pos = (117,0);
ref = dieresiscomb.case;
}
);
width = 764;
}
);
unicode = 196;
},
{
glyphname = Agrave;
kernLeft = _A_right;
kernRight = _A_left;
lastChange = "2023-01-04 10:50:46 +0000";
layers = (
{
background = {
shapes = (
{
closed = 1;
nodes = (
(650,0,l,{
name = ab02;
}),
(382,700,l),
(288,700,l,{
name = sh01;
}),
(20,0,l),
(118,0,l,{
name = ab01;
}),
(185,174,l),
(481,174,l,{
name = sv01;
}),
(548,0,l)
);
},
{
closed = 1;
nodes = (
(450,256,l,{
name = iv01;
}),
(216,256,l),
(333,580,l,{
name = ih01;
})
);
},
{
closed = 1;
nodes = (
(375,750,l,{
name = ab01;
}),
(264,900,l,{
name = ih01;
}),
(145,900,l,{
name = sv01;
}),
(295,750,l)
);
}
);
};
layerId = "153974D4-4CB0-4785-B412-2977049B2888";
shapes = (
{
ref = A;
},
{
pos = (125,0);
ref = gravecomb.case;
}
);
width = 670;
},
{
background = {
shapes = (
{
closed = 1;
nodes = (
(665,0,l,{
name = ab02;
}),
(400,700,l),
(280,700,l,{
name = sh01;
}),
(15,0,l),
(135,0,l,{
name = ab01;
}),
(194,158,l),
(478,158,l,{
name = sv01;
}),
(537,0,l)
);
},
{
closed = 1;
nodes = (
(439,262,l,{
name = iv01;
}),
(233,262,l),
(337,550,l,{
name = ih01;
})
);
},
{
closed = 1;
nodes = (
(390,750,l,{
name = ab01;
}),
(280,900,l,{
name = ih01;
}),
(140,900,l,{
name = sv01;
}),
(290,750,l)
);
}
);
};
layerId = "519BD859-66F8-41ED-8E65-BDFB48F6DA60";
shapes = (
{
ref = A;
},
{
pos = (120,0);
ref = gravecomb.case;
}
);
width = 680;
},
{
background = {
shapes = (
{
closed = 1;
nodes = (
(680,0,l,{
name = ab02;
}),
(420,700,l),
(270,700,l,{
name = sh01;
}),
(10,0,l),
(156,0,l,{
name = ab01;
}),
(209,143,l),
(468,143,l,{
name = sv01;
}),
(522,0,l)
);
},
{
closed = 1;
nodes = (
(423,267,l,{
name = iv01;
}),
(255,267,l),
(339,510,l,{
name = ih01;
})
);
},
{
closed = 1;
nodes = (
(405,750,l,{
name = ab01;
}),
(295,900,l),
(135,900,l,{
name = sv01;
}),
(285,750,l,{
name = ih01;
})
);
}
);
};
layerId = "68905092-2787-4DB6-B22F-3BD17B98A53B";
shapes = (
{
ref = A;
},
{
pos = (115,0);
ref = gravecomb.case;
}
);
width = 690;
},
{
background = {
shapes = (
{
closed = 1;
nodes = (
(700,0,l,{
name = ab02;
}),
(445,700,l),
(265,700,l,{
name = sh01;
}),
(10,0,l),
(180,0,l,{
name = ab01;
}),
(228,134,l),
(462,134,l,{
name = sv01;
}),
(510,0,l)
);
},
{
closed = 1;
nodes = (
(411,272,l,{
name = iv01;
}),
(279,272,l),
(345,480,l,{
name = ih01;
})
);
},
{
closed = 1;
nodes = (
(420,750,l,{
name = ab01;
}),
(310,900,l),
(140,900,l,{
name = sv01;
}),
(290,750,l,{
name = ih01;
})
);
}
);
};
layerId = "694BE86E-DB85-4EB8-AAFE-5A09896C9F48";
shapes = (
{
ref = A;
},
{
pos = (120,0);
ref = gravecomb.case;
}
);
width = 710;
},
{
background = {
shapes = (
{
closed = 1;
nodes = (
(762,0,l,{
name = ab02;
}),
(514,700,l),
(250,700,l,{
name = at01;
}),
(2,0,l),
(246,0,l,{
name = ab01;
}),
(271,94,l),
(453,94,l,{
name = sh01;
}),
(478,0,l)
);
},
{
closed = 1;
nodes = (
(401,286,l,{
name = ih01;
}),
(322,286,l),
(362,460,l,{
name = iv01;
})
);
},
{
closed = 1;
nodes = (
(467,750,l,{
name = ab01;
}),
(357,900,l),
(127,900,l,{
name = sv01;
}),
(297,750,l,{
name = ih01;
})
);
}
);
};
layerId = "BB51FDA8-DF56-46E5-B7C8-6101400FE38F";
shapes = (
{
ref = A;
},
{
pos = (97,0);
ref = gravecomb.case;
}
);
width = 764;
}
);
unicode = 192;
},
{
glyphname = Amacron;
kernLeft = _A_right;
kernRight = _A_left;
lastChange = "2023-01-04 10:50:46 +0000";
layers = (
{
background = {
shapes = (
{
closed = 1;
nodes = (
(650,0,l,{
name = ab02;
}),
(382,700,l),
(288,700,l,{
name = sh01;
}),
(20,0,l),
(118,0,l,{
name = ab01;
}),
(185,174,l),
(481,174,l,{
name = sv01;
}),
(548,0,l)
);
},
{
closed = 1;
nodes = (
(450,256,l,{
name = iv01;
}),
(216,256,l),
(333,580,l,{
name = ih01;
})
);
},
{
closed = 1;
nodes = (
(280,626,l,{
name = av01;
}),
(280,694,l,{
name = sv01;
}),
(20,694,l,{
name = ih01;
}),
(20,626,l)
);
}
);
};
layerId = "153974D4-4CB0-4785-B412-2977049B2888";
shapes = (
{
ref = A;
},
{
pos = (175,0);
ref = macroncomb.case;
}
);
width = 670;
},
{
background = {
shapes = (
{
closed = 1;
nodes = (
(665,0,l,{
name = ab02;
}),
(400,700,l),
(280,700,l,{
name = sh01;
}),
(15,0,l),
(135,0,l,{
name = ab01;
}),
(194,158,l),
(478,158,l,{
name = sv01;
}),
(537,0,l)
);
},
{
closed = 1;
nodes = (
(439,262,l,{
name = iv01;
}),
(233,262,l),
(337,550,l,{
name = ih01;
})
);
},
{
closed = 1;
nodes = (
(300,618,l,{
name = av01;
}),
(300,702,l,{
name = sv01;
}),
(20,702,l,{
name = ih01;
}),
(20,618,l)
);
}
);
};
layerId = "519BD859-66F8-41ED-8E65-BDFB48F6DA60";
shapes = (
{
ref = A;
},
{
pos = (170,0);
ref = macroncomb.case;
}
);
width = 680;
},
{
background = {
shapes = (
{
closed = 1;
nodes = (
(680,0,l,{
name = ab02;
}),
(420,700,l),
(270,700,l,{
name = sh01;
}),
(10,0,l),
(156,0,l,{
name = ab01;
}),
(209,143,l),
(468,143,l,{
name = sv01;
}),
(522,0,l)
);
},
{
closed = 1;
nodes = (
(423,267,l,{
name = iv01;
}),
(255,267,l),
(339,510,l,{
name = ih01;
})
);
},
{
closed = 1;
nodes = (
(320,615,l,{
name = av01;
}),
(320,705,l,{
name = sv01;
}),
(20,705,l,{
name = ih01;
}),
(20,615,l)
);
}
);
};
layerId = "68905092-2787-4DB6-B22F-3BD17B98A53B";
shapes = (
{
ref = A;
},
{
pos = (165,15);
ref = macroncomb.case;
}
);
width = 690;
},
{
background = {
shapes = (
{
closed = 1;
nodes = (
(700,0,l,{
name = ab02;
}),
(445,700,l),
(265,700,l,{
name = sh01;
}),
(10,0,l),
(180,0,l,{
name = ab01;
}),
(228,134,l),
(462,134,l,{
name = sv01;
}),
(510,0,l)
);
},
{
closed = 1;
nodes = (
(411,272,l,{
name = iv01;
}),
(279,272,l),
(345,480,l,{
name = ih01;
})
);
},
{
closed = 1;
nodes = (
(340,607,l,{
name = av01;
}),
(340,713,l,{
name = sv01;
}),
(20,713,l,{
name = ih01;
}),
(20,607,l)
);
}
);
};
layerId = "694BE86E-DB85-4EB8-AAFE-5A09896C9F48";
shapes = (
{
ref = A;
},
{
pos = (170,0);
ref = macroncomb.case;
}
);
width = 710;
},
{
background = {
shapes = (
{
closed = 1;
nodes = (
(762,0,l,{
name = ab02;
}),
(514,700,l),
(250,700,l,{
name = at01;
}),
(2,0,l),
(246,0,l,{
name = ab01;
}),
(271,94,l),
(453,94,l,{
name = sh01;
}),
(478,0,l)
);
},
{
closed = 1;
nodes = (
(401,286,l,{
name = ih01;
}),
(322,286,l),
(362,460,l,{
name = iv01;
})
);
},
{
closed = 1;
nodes = (
(360,597,l,{
name = av01;
}),
(360,723,l,{
name = sv01;
}),
(20,723,l,{
name = ih01;
}),
(20,597,l)
);
}
);
};
layerId = "BB51FDA8-DF56-46E5-B7C8-6101400FE38F";
shapes = (
{
ref = A;
},
{
pos = (187,0);
ref = macroncomb.case;
}
);
width = 764;
}
);
unicode = 256;
},
{
glyphname = Aring;
kernLeft = _A_right;
kernRight = _A_left;
lastChange = "2023-01-04 10:50:46 +0000";
layers = (
{
background = {
shapes = (
{
closed = 1;
nodes = (
(650,0,l,{
name = ab02;
}),
(382,700,l),
(288,700,l,{
name = sh01;
}),
(20,0,l),
(118,0,l,{
name = ab01;
}),
(185,174,l),
(481,174,l,{
name = sv01;
}),
(548,0,l)
);
},
{
closed = 1;
nodes = (
(450,256,l,{
name = iv01;
}),
(216,256,l),
(333,580,l,{
name = ih01;
})
);
},
{
closed = 1;
nodes = (
(403,735,o),
(455,782,o,{
name = sv01;
}),
(455,845,cs),
(455,908,o,{
name = ih01;
}),
(403,955,o),
(335,955,cs),
(267,955,o,{
name = iv01;
}),
(215,908,o),
(215,845,cs,{
name = sh01;
}),
(215,782,o,{
name = ih02;
}),
(267,735,o,{
name = ih03;
}),
(335,735,cs)
);
},
{
closed = 1;
nodes = (
(306,795,o),
(285,816,o),
(285,845,cs),
(285,874,o),
(306,895,o),
(335,895,cs),
(364,895,o),
(385,874,o),
(385,845,cs),
(385,816,o),
(364,795,o),
(335,795,cs)
);
}
);
};
layerId = "153974D4-4CB0-4785-B412-2977049B2888";
shapes = (
{
ref = A;
},
{
pos = (195,0);
ref = ringcomb.case;
}
);
width = 670;
},
{
background = {
shapes = (
{
closed = 1;
nodes = (
(665,0,l,{
name = ab02;
}),
(400,700,l),
(280,700,l,{
name = sh01;
}),
(15,0,l),
(135,0,l,{
name = ab01;
}),
(194,158,l),
(478,158,l,{
name = sv01;
}),
(537,0,l)
);
},
{
closed = 1;
nodes = (
(439,262,l,{
name = iv01;
}),
(233,262,l),
(337,550,l,{
name = ih01;
})
);
},
{
closed = 1;
nodes = (
(410,730,o),
(465,781,o,{
name = sv01;
}),
(465,845,cs),
(465,909,o,{
name = ih01;
}),
(410,960,o),
(340,960,cs),
(270,960,o,{
name = iv01;
}),
(215,909,o),
(215,845,cs,{
name = sh01;
}),
(215,781,o,{
name = ih02;
}),
(270,730,o,{
name = ih03;
}),
(340,730,cs)
);
},
{
closed = 1;
nodes = (
(313,800,o),
(295,818,o),
(295,845,cs),
(295,872,o),
(313,890,o),
(340,890,cs),
(367,890,o),
(385,872,o),
(385,845,cs),
(385,818,o),
(367,800,o),
(340,800,cs)
);
}
);
};
layerId = "519BD859-66F8-41ED-8E65-BDFB48F6DA60";
shapes = (
{
ref = A;
},
{
pos = (195,0);
ref = ringcomb.case;
}
);
width = 680;
},
{
background = {
shapes = (
{
closed = 1;
nodes = (
(680,0,l,{
name = ab02;
}),
(420,700,l),
(270,700,l,{
name = sh01;
}),
(10,0,l),
(156,0,l,{
name = ab01;
}),
(209,143,l),
(468,143,l,{
name = sv01;
}),
(522,0,l)
);
},
{
closed = 1;
nodes = (
(423,267,l,{
name = iv01;
}),
(255,267,l),
(339,510,l,{
name = ih01;
})
);
},
{
closed = 1;
nodes = (
(419,730,o),
(475,777,o,{
name = sv01;
}),
(475,845,cs),
(475,913,o,{
name = ih01;
}),
(419,960,o),
(345,960,cs),
(271,960,o,{
name = iv01;
}),
(215,913,o),
(215,845,cs,{
name = sh01;
}),
(215,777,o,{
name = ih02;
}),
(271,730,o,{
name = ih03;
}),
(345,730,cs)
);
},
{
closed = 1;
nodes = (
(322,810,o),
(305,822,o),
(305,845,cs),
(305,868,o),
(322,880,o),
(345,880,cs),
(368,880,o),
(385,868,o),
(385,845,cs),
(385,822,o),
(368,810,o),
(345,810,cs)
);
}
);
};
layerId = "68905092-2787-4DB6-B22F-3BD17B98A53B";
shapes = (
{
ref = A;
},
{
pos = (195,0);
ref = ringcomb.case;
}
);
width = 690;
},
{
background = {
shapes = (
{
closed = 1;
nodes = (
(700,0,l,{
name = ab02;
}),
(445,700,l),
(265,700,l,{
name = sh01;
}),
(10,0,l),
(180,0,l,{
name = ab01;
}),
(228,134,l),
(462,134,l,{
name = sv01;
}),
(510,0,l)
);
},
{
closed = 1;
nodes = (
(411,272,l,{
name = iv01;
}),
(279,272,l),
(345,480,l,{
name = ih01;
})
);
},
{
closed = 1;
nodes = (
(436,730,o),
(490,776,o,{
name = sv01;
}),
(490,845,cs),
(490,914,o,{
name = ih01;
}),
(436,960,o),
(355,960,cs),
(274,960,o,{
name = iv01;
}),
(220,914,o),
(220,845,cs,{
name = sh01;
}),
(220,776,o,{
name = ih02;
}),
(274,730,o,{
name = ih03;
}),
(355,730,cs)
);
},
{
closed = 1;
nodes = (
(327,815,o),
(310,825,o),
(310,845,cs),
(310,865,o),
(327,875,o),
(355,875,cs),
(383,875,o),
(400,865,o),
(400,845,cs),
(400,825,o),
(383,815,o),
(355,815,cs)
);
}
);
};
layerId = "694BE86E-DB85-4EB8-AAFE-5A09896C9F48";
shapes = (
{
ref = A;
},
{
pos = (200,0);
ref = ringcomb.case;
}
);
width = 710;
},
{
background = {
shapes = (
{
closed = 1;
nodes = (
(762,0,l,{
name = ab02;
}),
(514,700,l),
(250,700,l,{
name = at01;
}),
(2,0,l),
(246,0,l,{
name = ab01;
}),
(271,94,l),
(453,94,l,{
name = sh01;
}),
(478,0,l)
);
},
{
closed = 1;
nodes = (
(401,286,l,{
name = ih01;
}),
(322,286,l),
(362,460,l,{
name = iv01;
})
);
},
{
closed = 1;
nodes = (
(478,730,o),
(532,773,o,{
name = sv01;
}),
(532,845,cs),
(532,917,o,{
name = ih01;
}),
(478,960,o),
(382,960,cs),
(286,960,o,{
name = iv01;
}),
(232,917,o),
(232,845,cs,{
name = sh01;
}),
(232,773,o,{
name = ih02;
}),
(286,730,o,{
name = ih03;
}),
(382,730,cs)
);
},
{
closed = 1;
nodes = (
(353,820,o),
(342,829,o),
(342,845,cs),
(342,861,o),
(353,870,o),
(382,870,cs),
(411,870,o),
(422,861,o),
(422,845,cs),
(422,829,o),
(411,820,o),
(382,820,cs)
);
}
);
};
layerId = "BB51FDA8-DF56-46E5-B7C8-6101400FE38F";
shapes = (
{
ref = A;
},
{
pos = (212,0);
ref = ringcomb.case;
}
);
width = 764;
}
);
unicode = 197;
},
{
glyphname = Atilde;
kernLeft = _A_right;
kernRight = _A_left;
lastChange = "2023-01-04 10:50:46 +0000";
layers = (
{
background = {
shapes = (
{
closed = 1;
nodes = (
(650,0,l,{
name = ab02;
}),
(382,700,l),
(288,700,l,{
name = sh01;
}),
(20,0,l),
(118,0,l,{
name = ab01;
}),
(185,174,l),
(481,174,l,{
name = sv01;
}),
(548,0,l)
);
},
{
closed = 1;
nodes = (
(450,256,l,{
name = iv01;
}),
(216,256,l),
(333,580,l,{
name = ih01;
})
);
},
{
closed = 1;
nodes = (
(445,760,o),
(470,785,o),
(485,812,c),
(494,827,o),
(500,845,o),
(505,865,c),
(440,885,l),
(436,877,o),
(435,873,o),
(431,865,c),
(424,854,o),
(415,845,o),
(400,845,cs),
(360,845,o),
(329,890,o,{
name = hr01;
}),
(265,890,cs),
(225,890,o),
(200,864,o),
(185,837,c),
(176,822,o),
(170,804,o),
(165,785,c),
(230,765,l),
(234,773,o),
(235,777,o),
(239,785,c),
(246,796,o),
(255,805,o),
(270,805,cs),
(310,805,o),
(341,760,o,{
name = hr02;
}),
(405,760,cs)
);
}
);
};
layerId = "153974D4-4CB0-4785-B412-2977049B2888";
shapes = (
{
ref = A;
},
{
pos = (145,0);
ref = tildecomb.case;
}
);
width = 670;
},
{
background = {
shapes = (
{
closed = 1;
nodes = (
(665,0,l,{
name = ab02;
}),
(400,700,l),
(280,700,l,{
name = sh01;
}),
(15,0,l),
(135,0,l,{
name = ab01;
}),
(194,158,l),
(478,158,l,{
name = sv01;
}),
(537,0,l)
);
},
{
closed = 1;
nodes = (
(439,262,l,{
name = iv01;
}),
(233,262,l),
(337,550,l,{
name = ih01;
})
);
},
{
closed = 1;
nodes = (
(455,755,o),
(483,780,o),
(499,807,cs),
(508,822,o),
(515,840,o),
(520,860,c),
(455,890,l),
(452,883,o),
(448,876,o),
(444,870,c),
(436,859,o),
(425,850,o),
(410,850,cs),
(365,850,o),
(340,895,o,{
name = hr01;
}),
(270,895,cs),
(225,895,o),
(197,869,o),
(181,842,cs),
(172,827,o),
(165,809,o),
(160,790,c),
(225,760,l),
(228,767,o),
(231,774,o),
(236,780,c),
(243,791,o),
(255,800,o),
(270,800,cs),
(315,800,o),
(340,755,o,{
name = hr02;
}),
(410,755,cs)
);
}
);
};
layerId = "519BD859-66F8-41ED-8E65-BDFB48F6DA60";
shapes = (
{
ref = A;
},
{
pos = (140,0);
ref = tildecomb.case;
}
);
width = 680;
},
{
background = {
shapes = (
{
closed = 1;
nodes = (
(680,0,l,{
name = ab02;
}),
(420,700,l),
(270,700,l,{
name = sh01;
}),
(10,0,l),
(156,0,l,{
name = ab01;
}),
(209,143,l),
(468,143,l,{
name = sv01;
}),
(522,0,l)
);
},
{
closed = 1;
nodes = (
(423,267,l,{
name = iv01;
}),
(255,267,l),
(339,510,l,{
name = ih01;
})
);
},
{
closed = 1;
nodes = (
(462,750,o),
(492,775,o),
(511,802,cs),
(522,817,o),
(530,835,o),
(535,855,c),
(465,895,l),
(462,888,o),
(458,881,o),
(453,875,c),
(445,864,o),
(432,855,o),
(415,855,cs),
(370,855,o),
(345,900,o,{
name = hr01;
}),
(275,900,cs),
(227,900,o),
(198,874,o),
(179,847,cs),
(168,832,o),
(160,814,o),
(155,795,c),
(225,755,l),
(228,762,o),
(232,769,o),
(237,775,c),
(245,786,o),
(256,795,o),
(275,795,cs),
(320,795,o),
(345,750,o,{
name = hr02;
}),
(415,750,cs)
);
}
);
};
layerId = "68905092-2787-4DB6-B22F-3BD17B98A53B";
shapes = (
{
ref = A;
},
{
pos = (135,0);
ref = tildecomb.case;
}
);
width = 690;
},
{
background = {
shapes = (
{
closed = 1;
nodes = (
(700,0,l,{
name = ab02;
}),
(445,700,l),
(265,700,l,{
name = sh01;
}),
(10,0,l),
(180,0,l,{
name = ab01;
}),
(228,134,l),
(462,134,l,{
name = sv01;
}),
(510,0,l)
);
},
{
closed = 1;
nodes = (
(411,272,l,{
name = iv01;
}),
(279,272,l),
(345,480,l,{
name = ih01;
})
);
},
{
closed = 1;
nodes = (
(477,740,o),
(509,767,o),
(528,795,cs),
(539,811,o),
(548,829,o),
(555,850,c),
(480,905,l),
(477,898,o),
(473,891,o),
(468,885,c),
(460,874,o),
(447,865,o),
(430,865,cs),
(380,865,o),
(355,910,o,{
name = hr01;
}),
(280,910,cs),
(232,910,o),
(201,882,o),
(182,855,c),
(171,838,o),
(162,820,o),
(155,800,c),
(230,745,l),
(233,752,o),
(237,759,o),
(242,765,c),
(250,776,o),
(261,785,o),
(280,785,cs),
(330,785,o),
(355,740,o,{
name = hr02;
}),
(430,740,cs)
);
}
);
};
layerId = "694BE86E-DB85-4EB8-AAFE-5A09896C9F48";
shapes = (
{
ref = A;
},
{
pos = (135,0);
ref = tildecomb.case;
}
);
width = 710;
},
{
background = {
shapes = (
{
closed = 1;
nodes = (
(762,0,l,{
name = ab02;
}),
(514,700,l),
(250,700,l,{
name = at01;
}),
(2,0,l),
(246,0,l,{
name = ab01;
}),
(271,94,l),
(453,94,l,{
name = sh01;
}),
(478,0,l)
);
},
{
closed = 1;
nodes = (
(401,286,l,{
name = ih01;
}),
(322,286,l),
(362,460,l,{
name = iv01;
})
);
},
{
closed = 1;
nodes = (
(509,730,o),
(546,757,o),
(569,785,cs),
(582,801,o),
(593,819,o),
(602,840,c),
(527,915,l),
(522,908,o),
(517,902,o),
(510,897,c),
(499,888,o),
(484,880,o),
(467,880,cs),
(407,880,o),
(382,920,o,{
name = hr01;
}),
(307,920,cs),
(254,920,o),
(218,892,o),
(195,865,c),
(182,848,o),
(171,830,o),
(162,810,c),
(237,735,l),
(242,742,o),
(247,749,o),
(254,755,c),
(265,766,o),
(278,775,o),
(297,775,cs),
(356,775,o),
(383,730,o,{
name = hr02;
}),
(457,730,cs)
);
}
);
};
layerId = "BB51FDA8-DF56-46E5-B7C8-6101400FE38F";
shapes = (
{
ref = A;
},
{
pos = (142,0);
ref = tildecomb.case;
}
);
width = 764;
}
);
unicode = 195;
},
{
glyphname = AE;
kernRight = _E_left;
lastChange = "2023-01-04 10:50:46 +0000";
layers = (
{
anchors = (
{
name = bottom;
pos = (475,0);
},
{
name = top;
pos = (475,700);
}
);
background = {
shapes = (
{
closed = 1;
nodes = (
(114,0,l,{
name = ab02;
}),
(215,174,l),
(440,174,l,{
name = sv04;
}),
(440,0,l,{
name = ih01;
}),
(890,0,l,{
name = ab01;
}),
(890,82,l),
(534,82,l,{
name = sv03;
}),
(534,319,l),
(860,319,l,{
name = sv02;
}),
(860,401,l,{
name = iv01;
}),
(534,401,l),
(534,618,l),
(890,618,l,{
name = sv01;
}),
(890,700,l),
(419,700,l,{
name = at01;
}),
(10,0,l)
);
},
{
closed = 1;
nodes = (
(440,576,l,{
name = iv02;
}),
(440,256,l,{
name = sh01;
}),
(263,256,l)
);
}
);
};
layerId = "153974D4-4CB0-4785-B412-2977049B2888";
shapes = (
{
closed = 1;
nodes = (
(114,0,l,{
name = ab02;
}),
(215,174,l),
(440,174,l,{
name = sv04;
}),
(440,0,l,{
name = ih01;
}),
(890,0,l,{
name = ab01;
}),
(890,82,l),
(534,82,l,{
name = sv03;
}),
(534,319,l),
(860,319,l,{
name = sv02;
}),
(860,401,l,{
name = iv01;
}),
(534,401,l),
(534,618,l),
(890,618,l,{
name = sv01;
}),
(890,700,l),
(419,700,l,{
name = at01;
}),
(10,0,l)
);
},
{
closed = 1;
nodes = (
(440,576,l,{
name = iv02;
}),
(440,256,l,{
name = sh01;
}),
(263,256,l)
);
}
);
userData = {
com.fontlab.ttcommands = (
{
code = alignt;
point = at01;
zone = uc;
},
{
code = alignb;
point = ab01;
zone = "b: 0";
},
{
code = alignb;
point = ab02;
zone = "b: 0";
},
{
align = round;
code = interpolatev;
point = sh01;
point1 = at01;
point2 = ab01;
},
{
align = center;
code = singlev;
point1 = sh01;
point2 = sv04;
stem = "BES: 82";
},
{
align = round;
code = singlev;
point1 = ab01;
point2 = sv03;
stem = "BES: 82";
},
{
align = round;
code = interpolatev;
point = iv01;
point1 = at01;
point2 = ab01;
},
{
align = round;
code = singlev;
point1 = iv01;
point2 = sv02;
stem = "BES: 82";
},
{
align = round;
code = singlev;
point1 = at01;
point2 = sv01;
stem = "BES: 82";
},
{
align = round;
code = interpolatev;
point = iv02;
point1 = at01;
point2 = ab01;
},
{
align = round;
code = interpolateh;
point = ih01;
point1 = lsb;
point2 = rsb;
},
{
align = round;
code = singleh;
point1 = ih01;
point2 = sh01;
}
);
};
vertWidth = 0;
width = 950;
},
{
anchors = (
{
name = bottom;
pos = (488,0);
},
{
name = top;
pos = (488,700);
}
);
background = {
shapes = (
{
closed = 1;
nodes = (
(138,0,l,{
name = ab02;
}),
(230,158,l),
(450,158,l,{
name = sv04;
}),
(450,0,l,{
name = ih01;
}),
(920,0,l,{
name = ab01;
}),
(920,104,l),
(570,104,l,{
name = sv03;
}),
(570,308,l),
(890,308,l,{
name = sv02;
}),
(890,412,l,{
name = iv01;
}),
(570,412,l),
(570,596,l),
(920,596,l,{
name = sv01;
}),
(920,700,l),
(420,700,l,{
name = at01;
}),
(10,0,l)
);
},
{
closed = 1;
nodes = (
(450,550,l,{
name = iv02;
}),
(450,262,l,{
name = sh01;
}),
(289,262,l)
);
}
);
};
layerId = "519BD859-66F8-41ED-8E65-BDFB48F6DA60";
shapes = (
{
closed = 1;
nodes = (
(138,0,l,{
name = ab02;
}),
(230,158,l),
(450,158,l,{
name = sv04;
}),
(450,0,l,{
name = ih01;
}),
(920,0,l,{
name = ab01;
}),
(920,104,l),
(570,104,l,{
name = sv03;
}),
(570,308,l),
(890,308,l,{
name = sv02;
}),
(890,412,l,{
name = iv01;
}),
(570,412,l),
(570,596,l),
(920,596,l,{
name = sv01;
}),
(920,700,l),
(420,700,l,{
name = at01;
}),
(10,0,l)
);
},
{
closed = 1;
nodes = (
(450,550,l,{
name = iv02;
}),
(450,262,l,{
name = sh01;
}),
(289,262,l)
);
}
);
userData = {
com.fontlab.ttcommands = (
{
code = alignt;
point = at01;
zone = uc;
},
{
code = alignb;
point = ab01;
zone = "b: 0";
},
{
code = alignb;
point = ab02;
zone = "b: 0";
},
{
align = round;
code = interpolatev;
point = sh01;
point1 = at01;
point2 = ab01;
},
{
align = center;
code = singlev;
point1 = sh01;
point2 = sv04;
stem = "BES: 104";
},
{
align = round;
code = singlev;
point1 = ab01;
point2 = sv03;
stem = "BES: 104";
},
{
align = round;
code = interpolatev;
point = iv01;
point1 = at01;
point2 = ab01;
},
{
code = mdeltav;
delta = 8;
point = iv01;
ppm1 = 15;
ppm2 = 16;
},
{
align = round;
code = singlev;
point1 = iv01;
point2 = sv02;
stem = "BES: 104";
},
{
align = round;
code = singlev;
point1 = at01;
point2 = sv01;
stem = "BES: 104";
},
{
align = round;
code = interpolatev;
point = iv02;
point1 = at01;
point2 = ab01;
},
{
align = round;
code = interpolateh;
point = ih01;
point1 = lsb;
point2 = rsb;
},
{
align = round;
code = singleh;
point1 = ih01;
point2 = sh01;
}
);
};
vertWidth = 0;
width = 975;
},
{
anchors = (
{
name = bottom;
pos = (500,0);
},
{
name = top;
pos = (500,700);
}
);
background = {
shapes = (
{
closed = 1;
nodes = (
(166,0,l,{
name = ab02;
}),
(250,143,l),
(460,143,l,{
name = sv04;
}),
(460,0,l,{
name = ih01;
}),
(950,0,l,{
name = ab01;
}),
(950,124,l),
(611,124,l,{
name = sv03;
}),
(611,300,l),
(920,300,l,{
name = sv02;
}),
(920,420,l,{
name = iv01;
}),
(611,420,l),
(611,576,l),
(950,576,l,{
name = sv01;
}),
(950,700,l),
(420,700,l,{
name = at01;
}),
(10,0,l)
);
},
{
closed = 1;
nodes = (
(460,515,l,{
name = iv02;
}),
(460,267,l,{
name = sh01;
}),
(322,267,l)
);
}
);
};
layerId = "68905092-2787-4DB6-B22F-3BD17B98A53B";
shapes = (
{
closed = 1;
nodes = (
(166,0,l,{
name = ab02;
}),
(250,143,l),
(460,143,l,{
name = sv04;
}),
(460,0,l,{
name = ih01;
}),
(950,0,l,{
name = ab01;
}),
(950,124,l),
(611,124,l,{
name = sv03;
}),
(611,300,l),
(920,300,l,{
name = sv02;
}),
(920,420,l,{
name = iv01;
}),
(611,420,l),
(611,576,l),
(950,576,l,{
name = sv01;
}),
(950,700,l),
(420,700,l,{
name = at01;
}),
(10,0,l)
);
},
{
closed = 1;
nodes = (
(460,515,l,{
name = iv02;
}),
(460,267,l,{
name = sh01;
}),
(322,267,l)
);
}
);
userData = {
com.fontlab.ttcommands = (
{
code = alignt;
point = at01;
zone = uc;
},
{
code = alignb;
point = ab01;
zone = "b: 0";
},
{
code = alignb;
point = ab02;
zone = "b: 0";
},
{
align = round;
code = interpolatev;
point = sh01;
point1 = at01;
point2 = ab01;
},
{
align = center;
code = singlev;
point1 = sh01;
point2 = sv04;
stem = "B: 114";
},
{
align = round;
code = singlev;
point1 = ab01;
point2 = sv03;
stem = "OH: 124";
},
{
align = round;
code = interpolatev;
point = iv01;
point1 = at01;
point2 = ab01;
},
{
code = mdeltav;
delta = 8;
point = iv01;
ppm1 = 13;
ppm2 = 13;
},
{
align = round;
code = singlev;
point1 = iv01;
point2 = sv02;
stem = "OH: 124";
},
{
align = round;
code = singlev;
point1 = at01;
point2 = sv01;
stem = "OH: 124";
},
{
align = round;
code = interpolatev;
point = iv02;
point1 = at01;
point2 = ab01;
},
{
align = round;
code = interpolateh;
point = ih01;
point1 = lsb;
point2 = rsb;
},
{
align = round;
code = singleh;
point1 = ih01;
point2 = sh01;
}
);
};
vertWidth = 0;
width = 1000;
},
{
anchors = (
{
name = bottom;
pos = (513,0);
},
{
name = top;
pos = (513,700);
}
);
background = {
shapes = (
{
closed = 1;
nodes = (
(192,0,l,{
name = ab02;
}),
(271,134,l,{
name = hr01;
}),
(470,134,l,{
name = sv04;
}),
(470,0,l,{
name = ih01;
}),
(980,0,l,{
name = ab01;
}),
(980,138,l),
(650,138,l,{
name = sv03;
}),
(650,295,l,{
name = hr03;
}),
(950,295,l,{
name = sv02;
}),
(950,425,l,{
name = hr02;
}),
(650,425,l),
(650,562,l,{
name = hr01;
}),
(980,562,l,{
name = sv01;
}),
(980,700,l),
(420,700,l,{
name = at01;
}),
(10,0,l)
);
},
{
closed = 1;
nodes = (
(470,485,l,{
name = iv01;
}),
(470,272,l,{
name = sh01;
}),
(351,272,l,{
name = hr03;
})
);
}
);
};
layerId = "694BE86E-DB85-4EB8-AAFE-5A09896C9F48";
shapes = (
{
closed = 1;
nodes = (
(192,0,l,{
name = ab02;
}),
(271,134,l,{
name = hr01;
}),
(470,134,l,{
name = sv04;
}),
(470,0,l,{
name = ih01;
}),
(980,0,l,{
name = ab01;
}),
(980,138,l),
(650,138,l,{
name = sv03;
}),
(650,295,l,{
name = hr03;
}),
(950,295,l,{
name = sv02;
}),
(950,425,l,{
name = hr02;
}),
(650,425,l),
(650,562,l,{
name = hr01;
}),
(980,562,l,{
name = sv01;
}),
(980,700,l),
(420,700,l,{
name = at01;
}),
(10,0,l)
);
},
{
closed = 1;
nodes = (
(470,485,l,{
name = iv01;
}),
(470,272,l,{
name = sh01;
}),
(351,272,l,{
name = hr03;
})
);
}
);
userData = {
com.fontlab.ttcommands = (
{
code = alignt;
point = at01;
zone = uc;
},
{
code = alignb;
point = ab01;
zone = "b: 0";
},
{
code = alignb;
point = ab02;
zone = "b: 0";
},
{
align = round;
code = interpolatev;
point = sh01;
point1 = at01;
point2 = ab01;
},
{
align = center;
code = singlev;
point1 = sh01;
point2 = sv04;
stem = "BES: 138";
},
{
align = round;
code = singlev;
point1 = ab01;
point2 = sv03;
stem = "BES: 138";
},
{
align = round;
code = interpolatev;
point = hr02;
point1 = at01;
point2 = ab01;
},
{
code = mdeltav;
delta = 8;
point = hr02;
ppm1 = 13;
ppm2 = 13;
},
{
code = mdeltav;
delta = -8;
point = hr02;
ppm1 = 26;
ppm2 = 27;
},
{
align = round;
code = singlev;
point1 = hr02;
point2 = sv02;
stem = "ond: 127";
},
{
align = round;
code = singlev;
point1 = at01;
point2 = sv01;
stem = "BES: 138";
},
{
align = round;
code = interpolatev;
point = iv01;
point1 = at01;
point2 = ab01;
},
{
align = round;
code = interpolateh;
point = ih01;
point1 = lsb;
point2 = rsb;
},
{
align = round;
code = singleh;
point1 = ih01;
point2 = sh01;
}
);
};
vertWidth = 0;
width = 1025;
},
{
anchors = (
{
name = bottom;
pos = (529,0);
},
{
name = top;
pos = (529,700);
}
);
background = {
shapes = (
{
closed = 1;
nodes = (
(266,0,l,{
name = ab02;
}),
(316,94,l,{
name = hr01;
}),
(482,94,l,{
name = sv03;
}),
(482,0,l,{
name = hr02;
}),
(1032,0,l,{
name = ab01;
}),
(1032,192,l),
(746,192,l,{
name = sv02;
}),
(746,274,l),
(1002,274,l,{
name = iv02;
}),
(1002,436,l,{
name = iv01;
}),
(746,436,l),
(746,508,l),
(1032,508,l,{
name = sv01;
}),
(1032,700,l),
(402,700,l,{
name = at01;
}),
(2,0,l)
);
},
{
closed = 1;
nodes = (
(482,410,l,{
name = iv03;
}),
(482,286,l,{
name = sh01;
}),
(417,286,l,{
name = hr03;
})
);
}
);
};
layerId = "BB51FDA8-DF56-46E5-B7C8-6101400FE38F";
shapes = (
{
closed = 1;
nodes = (
(266,0,l,{
name = ab02;
}),
(316,94,l,{
name = hr01;
}),
(482,94,l,{
name = sv03;
}),
(482,0,l,{
name = hr02;
}),
(1032,0,l,{
name = ab01;
}),
(1032,192,l),
(746,192,l,{
name = sv02;
}),
(746,274,l),
(1002,274,l,{
name = iv02;
}),
(1002,436,l,{
name = iv01;
}),
(746,436,l),
(746,508,l),
(1032,508,l,{
name = sv01;
}),
(1032,700,l),
(402,700,l,{
name = at01;
}),
(2,0,l)
);
},
{
closed = 1;
nodes = (
(482,410,l,{
name = iv03;
}),
(482,286,l,{
name = sh01;
}),
(417,286,l,{
name = hr03;
})
);
}
);
userData = {
com.fontlab.ttcommands = (
{
code = alignt;
point = at01;
zone = uc;
},
{
code = alignb;
point = ab01;
zone = "b: 0";
},
{
code = alignb;
point = ab02;
zone = "b: 0";
},
{
align = round;
code = interpolatev;
point = sh01;
point1 = at01;
point2 = ab01;
},
{
align = center;
code = singlev;
point1 = sh01;
point2 = sv03;
stem = "EP: 192";
},
{
align = round;
code = singlev;
point1 = ab01;
point2 = sv02;
stem = "EP: 192";
},
{
align = round;
code = interpolatev;
point = iv01;
point1 = at01;
point2 = ab01;
},
{
code = mdeltav;
delta = 8;
point = iv01;
ppm1 = 28;
ppm2 = 29;
},
{
code = mdeltav;
delta = 8;
point = iv01;
ppm1 = 17;
ppm2 = 17;
},
{
align = round;
code = interpolatev;
point = iv02;
point1 = iv01;
point2 = ab01;
},
{
align = round;
code = singlev;
point1 = at01;
point2 = sv01;
stem = "EP: 192";
},
{
align = round;
code = interpolatev;
point = iv03;
point1 = at01;
point2 = ab01;
},
{
align = round;
code = interpolateh;
point = hr02;
point1 = lsb;
point2 = rsb;
},
{
align = round;
code = singleh;
point1 = hr02;
point2 = sh01;
}
);
};
vertWidth = 0;
width = 1057;
}
);
unicode = 198;
},
{
glyphname = B;
kernLeft = _H_right;
kernRight = _B_left;
lastChange = "2023-01-04 10:50:46 +0000";
layers = (
{
anchors = (
{
name = bottom;
pos = (335,0);
},
{
name = center;
pos = (335,350);
},
{
name = top;
pos = (335,700);
}
);
background = {
shapes = (
{
closed = 1;
nodes = (
(370,0,ls,{
name = ab01;
}),
(549,0,o),
(620,84,o,{
name = iv01;
}),
(620,198,cs),
(620,289,o,{
name = ih01;
}),
(569,346,o,{
name = at01;
}),
(486,365,c),
(545,388,o),
(590,441,o,{
name = sh01;
}),
(590,513,cs,{
name = hr01;
}),
(590,622,o,{
name = sv01;
}),
(517,700,o),
(350,700,cs),
(100,700,l,{
name = sv02;
}),
(100,0,l)
);
},
{
closed = 1;
nodes = (
(194,321,l,{
name = sh02;
}),
(369,321,ls,{
name = ih02;
}),
(490,321,o,{
name = ih03;
}),
(526,274,o,{
name = hr02;
}),
(526,201,cs),
(526,129,o),
(490,82,o),
(370,82,cs),
(194,82,l)
);
},
{
closed = 1;
nodes = (
(194,618,l),
(350,618,ls),
(462,618,o),
(496,574,o,{
name = hr03;
}),
(496,509,cs),
(496,445,o),
(462,399,o),
(350,399,cs),
(194,399,l)
);
}
);
};
layerId = "153974D4-4CB0-4785-B412-2977049B2888";
shapes = (
{
closed = 1;
nodes = (
(370,0,ls,{
name = ab01;
}),
(549,0,o),
(620,84,o,{
name = iv01;
}),
(620,198,cs),
(620,289,o,{
name = ih01;
}),
(569,346,o,{
name = at01;
}),
(486,365,c),
(545,388,o),
(590,441,o,{
name = sh01;
}),
(590,513,cs,{
name = hr01;
}),
(590,622,o,{
name = sv01;
}),
(517,700,o),
(350,700,cs),
(100,700,l,{
name = sv02;
}),
(100,0,l)
);
},
{
closed = 1;
nodes = (
(194,321,l,{
name = sh02;
}),
(369,321,ls,{
name = ih02;
}),
(490,321,o,{
name = ih03;
}),
(526,274,o,{
name = hr02;
}),
(526,201,cs),
(526,129,o),
(490,82,o),
(370,82,cs),
(194,82,l)
);
},
{
closed = 1;
nodes = (
(194,618,l),
(350,618,ls),
(462,618,o),
(496,574,o,{
name = hr03;
}),
(496,509,cs),
(496,445,o),
(462,399,o),
(350,399,cs),
(194,399,l)
);
}
);
userData = {
com.fontlab.ttcommands = (
{
code = alignt;
point = at01;
zone = uc;
},
{
code = alignb;
point = ab01;
zone = "b: 0";
},
{
align = round;
code = interpolatev;
point = sh02;
point1 = at01;
point2 = ab01;
},
{
align = round;
code = singlev;
point1 = sh02;
point2 = sh01;
stem = "cyr: 78";
},
{
align = round;
code = interpolatev;
point = iv01;
point1 = sh02;
point2 = sh01;
},
{
align = round;
code = singlev;
point1 = ab01;
point2 = sv01;
stem = "BES: 82";
},
{
align = round;
code = singlev;
point1 = at01;
point2 = sv02;
stem = "BES: 82";
},
{
align = round;
code = interpolateh;
point = ih01;
point1 = ih02;
point2 = ih03;
},
{
align = round;
code = singleh;
point1 = ih01;
point2 = sh01;
},
{
align = round;
code = singleh;
point1 = ih01;
point2 = sh02;
}
);
};
vertWidth = 0;
width = 670;
},
{
anchors = (
{
name = bottom;
pos = (338,0);
},
{
name = center;
pos = (338,350);
},
{
name = top;
pos = (338,700);
}
);
background = {
shapes = (
{
closed = 1;
nodes = (
(386,0,ls,{
name = ab01;
}),
(558,0,o),
(630,81,o,{
name = iv01;
}),
(630,198,cs),
(630,289,o,{
name = sh01;
}),
(578,346,o,{
name = at01;
}),
(495,365,c),
(560,388,o),
(600,441,o,{
name = sh02;
}),
(600,513,cs,{
name = hr01;
}),
(600,626,o,{
name = sv01;
}),
(529,700,o),
(370,700,cs),
(90,700,l,{
name = sv02;
}),
(90,0,l)
);
},
{
closed = 1;
nodes = (
(210,312,l,{
name = ih01;
}),
(372,312,ls,{
name = ih02;
}),
(476,312,o,{
name = ih03;
}),
(510,274,o,{
name = hr02;
}),
(510,206,cs),
(510,137,o),
(477,104,o),
(373,104,cs),
(210,104,l)
);
},
{
closed = 1;
nodes = (
(210,596,l),
(355,596,ls),
(450,596,o),
(480,564,o,{
name = hr03;
}),
(480,504,cs),
(480,445,o),
(448,408,o),
(355,408,cs),
(210,408,l)
);
}
);
};
layerId = "519BD859-66F8-41ED-8E65-BDFB48F6DA60";
shapes = (
{
closed = 1;
nodes = (
(386,0,ls,{
name = ab01;
}),
(558,0,o),
(630,81,o,{
name = iv01;
}),
(630,198,cs),
(630,289,o,{
name = sh01;
}),
(578,346,o,{
name = at01;
}),
(495,365,c),
(560,388,o),
(600,441,o,{
name = sh02;
}),
(600,513,cs,{
name = hr01;
}),
(600,626,o,{
name = sv01;
}),
(529,700,o),
(370,700,cs),
(90,700,l,{
name = sv02;
}),
(90,0,l)
);
},
{
closed = 1;
nodes = (
(210,312,l,{
name = ih01;
}),
(372,312,ls,{
name = ih02;
}),
(476,312,o,{
name = ih03;
}),
(510,274,o,{
name = hr02;
}),
(510,206,cs),
(510,137,o),
(477,104,o),
(373,104,cs),
(210,104,l)
);
},
{
closed = 1;
nodes = (
(210,596,l),
(355,596,ls),
(450,596,o),
(480,564,o,{
name = hr03;
}),
(480,504,cs),
(480,445,o),
(448,408,o),
(355,408,cs),
(210,408,l)
);
}
);
userData = {
com.fontlab.ttcommands = (
{
code = alignt;
point = at01;
zone = uc;
},
{
code = alignb;
point = ab01;
zone = "b: 0";
},
{
align = round;
code = interpolatev;
point = ih01;
point1 = at01;
point2 = ab01;
},
{
code = mdeltav;
delta = 8;
point = ih01;
ppm1 = 15;
ppm2 = 16;
},
{
align = round;
code = singlev;
point1 = ih01;
point2 = sh02;
stem = "asg: 96";
},
{
align = round;
code = interpolatev;
point = iv01;
point1 = ih01;
point2 = sh02;
},
{
align = round;
code = singlev;
point1 = ab01;
point2 = sv01;
stem = "BES: 104";
},
{
align = round;
code = singlev;
point1 = at01;
point2 = sv02;
stem = "BES: 104";
},
{
align = round;
code = interpolateh;
point = ih01;
point1 = ih02;
point2 = ih03;
},
{
align = round;
code = singleh;
point1 = ih01;
point2 = sh01;
},
{
align = round;
code = singleh;
point1 = ih01;
point2 = sh02;
}
);
};
vertWidth = 0;
width = 675;
},
{
anchors = (
{
name = bottom;
pos = (340,0);
},
{
name = center;
pos = (340,350);
},
{
name = top;
pos = (340,700);
}
);
background = {
shapes = (
{
closed = 1;
nodes = (
(393,0,ls,{
name = ab01;
}),
(569,0,o),
(640,78,o,{
name = iv01;
}),
(640,198,cs),
(640,289,o,{
name = sh01;
}),
(591,346,o,{
name = at01;
}),
(511,365,c),
(572,388,o),
(610,441,o,{
name = sh02;
}),
(610,513,cs,{
name = hr01;
}),
(610,630,o,{
name = sv01;
}),
(537,700,o),
(380,700,cs),
(80,700,l,{
name = sv02;
}),
(80,0,l)
);
},
{
closed = 1;
nodes = (
(230,309,l,{
name = ih01;
}),
(365,309,ls,{
name = ih02;
}),
(460,309,o,{
name = ih03;
}),
(490,272,o,{
name = hr02;
}),
(490,209,cs),
(490,146,o),
(459,114,o),
(366,114,cs),
(230,114,l)
);
},
{
closed = 1;
nodes = (
(230,586,l),
(351,586,ls),
(432,586,o),
(460,556,o,{
name = hr03;
}),
(460,500,cs),
(460,445,o),
(431,411,o),
(350,411,cs),
(230,411,l)
);
}
);
};
layerId = "68905092-2787-4DB6-B22F-3BD17B98A53B";
shapes = (
{
closed = 1;
nodes = (
(393,0,ls,{
name = ab01;
}),
(569,0,o),
(640,78,o,{
name = iv01;
}),
(640,198,cs),
(640,289,o,{
name = sh01;
}),
(591,346,o,{
name = at01;
}),
(511,365,c),
(572,388,o),
(610,441,o,{
name = sh02;
}),
(610,513,cs,{
name = hr01;
}),
(610,630,o,{
name = sv01;
}),
(537,700,o),
(380,700,cs),
(80,700,l,{
name = sv02;
}),
(80,0,l)
);
},
{
closed = 1;
nodes = (
(230,309,l,{
name = ih01;
}),
(365,309,ls,{
name = ih02;
}),
(460,309,o,{
name = ih03;
}),
(490,272,o,{
name = hr02;
}),
(490,209,cs),
(490,146,o),
(459,114,o),
(366,114,cs),
(230,114,l)
);
},
{
closed = 1;
nodes = (
(230,586,l),
(351,586,ls),
(432,586,o),
(460,556,o,{
name = hr03;
}),
(460,500,cs),
(460,445,o),
(431,411,o),
(350,411,cs),
(230,411,l)
);
}
);
userData = {
com.fontlab.ttcommands = (
{
code = alignt;
point = at01;
zone = uc;
},
{
code = alignb;
point = ab01;
zone = "b: 0";
},
{
align = round;
code = interpolatev;
point = ih01;
point1 = at01;
point2 = ab01;
},
{
code = mdeltav;
delta = 8;
point = ih01;
ppm1 = 15;
ppm2 = 16;
},
{
align = round;
code = interpolatev;
point = sh02;
point1 = ih01;
point2 = ab01;
},
{
align = round;
code = interpolatev;
point = iv01;
point1 = ih01;
point2 = sh02;
},
{
align = round;
code = singlev;
point1 = ab01;
point2 = sv01;
stem = "B: 114";
},
{
align = round;
code = singlev;
point1 = at01;
point2 = sv02;
stem = "B: 114";
},
{
align = round;
code = interpolateh;
point = ih01;
point1 = ih02;
point2 = ih03;
},
{
align = round;
code = singleh;
point1 = ih01;
point2 = sh01;
},
{
align = round;
code = singleh;
point1 = ih01;
point2 = sh02;
}
);
};
vertWidth = 0;
width = 680;
},
{
anchors = (
{
name = bottom;
pos = (353,0);
},
{
name = center;
pos = (353,350);
},
{
name = top;
pos = (353,700);
}
);
background = {
shapes = (
{
closed = 1;
nodes = (
(415,0,ls,{
name = ab01;
}),
(594,0,o),
(670,75,o,{
name = iv01;
}),
(670,198,cs),
(670,289,o,{
name = sh01;
}),
(619,346,o,{
name = at01;
}),
(536,365,c),
(600,388,o),
(640,441,o,{
name = sh02;
}),
(640,513,cs),
(640,633,o,{
name = sv01;
}),
(569,700,o),
(405,700,cs),
(70,700,l,{
name = sv02;
}),
(70,0,l,{
name = hr01;
})
);
},
{
closed = 1;
nodes = (
(250,299,l,{
name = ih01;
}),
(373,299,ls,{
name = ih02;
}),
(461,299,o,{
name = ih03;
}),
(490,273,o,{
name = hr02;
}),
(490,218,cs),
(490,163,o),
(462,138,o),
(375,138,cs),
(250,138,l)
);
},
{
closed = 1;
nodes = (
(250,562,l),
(362,562,ls),
(438,562,o),
(460,539,o,{
name = hr03;
}),
(460,492,cs),
(460,447,o),
(438,421,o),
(361,421,cs),
(250,421,l)
);
}
);
};
layerId = "694BE86E-DB85-4EB8-AAFE-5A09896C9F48";
shapes = (
{
closed = 1;
nodes = (
(415,0,ls,{
name = ab01;
}),
(594,0,o),
(670,75,o,{
name = iv01;
}),
(670,198,cs),
(670,289,o,{
name = sh01;
}),
(619,346,o,{
name = at01;
}),
(536,365,c),
(600,388,o),
(640,441,o,{
name = sh02;
}),
(640,513,cs),
(640,633,o,{
name = sv01;
}),
(569,700,o),
(405,700,cs),
(70,700,l,{
name = sv02;
}),
(70,0,l,{
name = hr01;
})
);
},
{
closed = 1;
nodes = (
(250,299,l,{
name = ih01;
}),
(373,299,ls,{
name = ih02;
}),
(461,299,o,{
name = ih03;
}),
(490,273,o,{
name = hr02;
}),
(490,218,cs),
(490,163,o),
(462,138,o),
(375,138,cs),
(250,138,l)
);
},
{
closed = 1;
nodes = (
(250,562,l),
(362,562,ls),
(438,562,o),
(460,539,o,{
name = hr03;
}),
(460,492,cs),
(460,447,o),
(438,421,o),
(361,421,cs),
(250,421,l)
);
}
);
userData = {
com.fontlab.ttcommands = (
{
code = alignt;
point = at01;
zone = uc;
},
{
code = alignb;
point = ab01;
zone = "b: 0";
},
{
align = round;
code = interpolatev;
point = ih01;
point1 = at01;
point2 = ab01;
},
{
code = mdeltav;
delta = 8;
point = ih01;
ppm1 = 20;
ppm2 = 20;
},
{
code = mdeltav;
delta = 8;
point = ih01;
ppm1 = 13;
ppm2 = 13;
},
{
align = round;
code = singlev;
point1 = ih01;
point2 = sh02;
stem = "e: 122";
},
{
align = round;
code = interpolatev;
point = iv01;
point1 = ih01;
point2 = sh02;
},
{
align = round;
code = singlev;
point1 = ab01;
point2 = sv01;
stem = "BES: 138";
},
{
align = round;
code = singlev;
point1 = at01;
point2 = sv02;
stem = "BES: 138";
},
{
align = round;
code = interpolateh;
point = ih01;
point1 = ih02;
point2 = ih03;
},
{
align = round;
code = singleh;
point1 = ih01;
point2 = sh01;
},
{
align = round;
code = singleh;
point1 = ih01;
point2 = sh02;
}
);
};
vertWidth = 0;
width = 705;
},
{
anchors = (
{
name = bottom;
pos = (365,0);
},
{
name = center;
pos = (365,350);
},
{
name = top;
pos = (365,700);
}
);
background = {
shapes = (
{
closed = 1;
nodes = (
(444,0,ls,{
name = sh01;
}),
(633,0,o),
(710,67,o,{
name = iv03;
}),
(710,198,cs),
(710,289,o),
(667,345,o,{
name = at01;
}),
(580,365,c),
(643,388,o),
(680,441,o,{
name = iv02;
}),
(680,513,cs),
(680,642,o,{
name = ih01;
}),
(604,700,o),
(445,700,cs),
(40,700,l,{
name = sh02;
}),
(40,0,l)
);
},
{
closed = 1;
nodes = (
(304,279,l,{
name = iv01;
}),
(362,279,ls,{
name = ih02;
}),
(426,279,o,{
name = ih03;
}),
(446,265,o),
(446,226,cs),
(446,186,o),
(427,172,o),
(364,172,cs),
(304,172,l)
);
},
{
closed = 1;
nodes = (
(304,528,l),
(353,528,ls),
(396,528,o),
(416,515,o),
(416,480,cs),
(416,445,o),
(396,431,o),
(351,431,cs),
(304,431,l)
);
}
);
};
layerId = "BB51FDA8-DF56-46E5-B7C8-6101400FE38F";
shapes = (
{
closed = 1;
nodes = (
(444,0,ls,{
name = sh01;
}),
(633,0,o),
(710,67,o,{
name = iv03;
}),
(710,198,cs),
(710,289,o),
(667,345,o,{
name = at01;
}),
(580,365,c),
(643,388,o),
(680,441,o,{
name = iv02;
}),
(680,513,cs),
(680,642,o,{
name = ih01;
}),
(604,700,o),
(445,700,cs),
(40,700,l,{
name = sh02;
}),
(40,0,l)
);
},
{
closed = 1;
nodes = (
(304,279,l,{
name = iv01;
}),
(362,279,ls,{
name = ih02;
}),
(426,279,o,{
name = ih03;
}),
(446,265,o),
(446,226,cs),
(446,186,o),
(427,172,o),
(364,172,cs),
(304,172,l)
);
},
{
closed = 1;
nodes = (
(304,528,l),
(353,528,ls),
(396,528,o),
(416,515,o),
(416,480,cs),
(416,445,o),
(396,431,o),
(351,431,cs),
(304,431,l)
);
}
);
userData = {
com.fontlab.ttcommands = (
{
code = alignt;
point = at01;
zone = uc;
},
{
code = alignb;
point = sh01;
zone = "b: 0";
},
{
align = round;
code = interpolatev;
point = iv01;
point1 = at01;
point2 = sh01;
},
{
code = mdeltav;
delta = 8;
point = iv01;
ppm1 = 24;
ppm2 = 24;
},
{
align = round;
code = interpolatev;
point = iv02;
point1 = iv01;
point2 = sh01;
},
{
align = round;
code = interpolatev;
point = iv03;
point1 = iv01;
point2 = iv02;
},
{
align = round;
code = singlev;
point1 = sh01;
point2 = ih01;
stem = "B: 172";
},
{
align = round;
code = singlev;
point1 = at01;
point2 = sh02;
stem = "B: 172";
},
{
align = round;
code = interpolateh;
point = ih01;
point1 = ih02;
point2 = ih03;
},
{
align = left;
code = singleh;
point1 = ih01;
point2 = sh01;
},
{
align = round;
code = singleh;
point1 = ih01;
point2 = sh02;
}
);
};
vertWidth = 0;
width = 730;
}
);
unicode = 66;
},
{
glyphname = C;
kernLeft = _O_right;
kernRight = _O_left;
lastChange = "2023-01-04 10:50:46 +0000";
layers = (
{
anchors = (
{
name = bottom;
pos = (340,0);
},
{
name = top;
pos = (340,700);
}
);
background = {
shapes = (
{
closed = 1;
nodes = (
(496,-10,o),
(609,55,o,{
name = iv02;
}),
(630,210,c,{
name = sv02;
}),
(530,210,l),
(518,130,o),
(459,74,o,{
name = sv01;
}),
(355,74,cs,{
name = iv01;
}),
(266,74,o),
(160,143,o,{
name = at01;
}),
(160,345,cs),
(160,365,ls),
(160,557,o,{
name = ih01;
}),
(256,626,o,{
name = ih02;
}),
(355,626,cs,{
name = ih03;
}),
(450,626,o),
(511,581,o),
(530,490,c,{
name = hr02;
}),
(630,490,l),
(614,629,o),
(506,710,o),
(355,710,cs),
(199,710,o),
(60,604,o),
(60,365,cs),
(60,345,ls),
(60,97,o),
(199,-10,o),
(355,-10,cs)
);
}
);
};
layerId = "153974D4-4CB0-4785-B412-2977049B2888";
shapes = (
{
closed = 1;
nodes = (
(496,-10,o),
(609,55,o,{
name = iv02;
}),
(630,210,c,{
name = sv02;
}),
(530,210,l),
(518,130,o),
(459,74,o,{
name = sv01;
}),
(355,74,cs,{
name = iv01;
}),
(266,74,o),
(160,143,o,{
name = at01;
}),
(160,345,cs),
(160,365,ls),
(160,557,o,{
name = ih01;
}),
(256,626,o,{
name = ih02;
}),
(355,626,cs,{
name = ih03;
}),
(450,626,o),
(511,581,o),
(530,490,c,{
name = hr02;
}),
(630,490,l),
(614,629,o),
(506,710,o),
(355,710,cs),
(199,710,o),
(60,604,o),
(60,365,cs),
(60,345,ls),
(60,97,o),
(199,-10,o),
(355,-10,cs)
);
}
);
userData = {
com.fontlab.ttcommands = (
{
code = alignt;
point = at01;
zone = uc;
},
{
code = alignb;
point = ih01;
zone = "b: 0";
},
{
align = round;
code = interpolatev;
point = iv02;
point1 = ih01;
point2 = at01;
},
{
align = center;
code = singlev;
point1 = ih01;
point2 = sv02;
stem = "OH: 82";
},
{
align = round;
code = singlev;
point1 = at01;
point2 = sv01;
stem = "OH: 82";
},
{
align = round;
code = interpolatev;
point = iv01;
point1 = at01;
point2 = ih01;
},
{
align = round;
code = interpolateh;
point = ih01;
point1 = ih02;
point2 = ih03;
}
);
};
vertWidth = 0;
width = 680;
},
{
anchors = (
{
name = bottom;
pos = (345,0);
},
{
name = top;
pos = (345,700);
}
);
background = {
shapes = (
{
closed = 1;
nodes = (
(512,-11,o),
(629,55,o,{
name = iv02;
}),
(645,220,c,{
name = sv02;
}),
(519,220,l),
(508,143,o),
(456,95,o,{
name = sv01;
}),
(360,95,cs,{
name = iv01;
}),
(278,95,o),
(181,153,o,{
name = at01;
}),
(181,345,cs),
(181,365,ls),
(181,546,o,{
name = ih01;
}),
(272,605,o,{
name = ih02;
}),
(360,605,cs,{
name = ih03;
}),
(441,605,o),
(502,567,o),
(519,480,c,{
name = hr02;
}),
(645,480,l),
(632,634,o),
(515,711,o),
(360,711,cs),
(192,711,o),
(55,608,o),
(55,365,cs),
(55,345,ls),
(55,92,o),
(188,-11,o),
(360,-11,cs)
);
}
);
};
layerId = "519BD859-66F8-41ED-8E65-BDFB48F6DA60";
shapes = (
{
closed = 1;
nodes = (
(512,-11,o),
(629,55,o,{
name = iv02;
}),
(645,220,c,{
name = sv02;
}),
(519,220,l),
(508,143,o),
(456,95,o,{
name = sv01;
}),
(360,95,cs,{
name = iv01;
}),
(278,95,o),
(181,153,o,{
name = at01;
}),
(181,345,cs),
(181,365,ls),
(181,546,o,{
name = ih01;
}),
(272,605,o,{
name = ih02;
}),
(360,605,cs,{
name = ih03;
}),
(441,605,o),
(502,567,o),
(519,480,c,{
name = hr02;
}),
(645,480,l),
(632,634,o),
(515,711,o),
(360,711,cs),
(192,711,o),
(55,608,o),
(55,365,cs),
(55,345,ls),
(55,92,o),
(188,-11,o),
(360,-11,cs)
);
}
);
userData = {
com.fontlab.ttcommands = (
{
code = alignt;
point = at01;
zone = uc;
},
{
code = alignb;
point = ih01;
zone = "b: 0";
},
{
align = round;
code = interpolatev;
point = iv02;
point1 = ih01;
point2 = at01;
},
{
align = center;
code = singlev;
point1 = ih01;
point2 = sv02;
stem = "OH: 104";
},
{
align = round;
code = singlev;
point1 = at01;
point2 = sv01;
stem = "OH: 104";
},
{
align = round;
code = interpolatev;
point = iv01;
point1 = at01;
point2 = ih01;
},
{
align = round;
code = interpolateh;
point = ih01;
point1 = ih02;
point2 = ih03;
}
);
};
vertWidth = 0;
width = 690;
},
{
anchors = (
{
name = bottom;
pos = (350,0);
},
{
name = top;
pos = (350,700);
}
);
background = {
shapes = (
{
closed = 1;
nodes = (
(526,-12,o),
(647,54,o),
(660,230,c),
(504,230,l),
(493,154,o),
(441,114,o,{
name = hr01;
}),
(365,114,cs),
(288,114,o),
(206,169,o),
(206,345,cs),
(206,365,ls),
(206,532,o),
(283,586,o),
(365,586,cs),
(437,586,o),
(489,550,o),
(504,470,c,{
name = hr02;
}),
(660,470,l),
(649,639,o),
(522,712,o),
(365,712,cs),
(189,712,o),
(50,609,o),
(50,365,cs),
(50,345,ls),
(50,89,o),
(182,-12,o),
(365,-12,cs)
);
}
);
};
layerId = "68905092-2787-4DB6-B22F-3BD17B98A53B";
shapes = (
{
closed = 1;
nodes = (
(526,-12,o),
(647,54,o),
(660,230,c),
(504,230,l),
(493,154,o),
(441,114,o,{
name = hr01;
}),
(365,114,cs),
(288,114,o),
(206,169,o),
(206,345,cs),
(206,365,ls),
(206,532,o),
(283,586,o),
(365,586,cs),
(437,586,o),
(489,550,o),
(504,470,c,{
name = hr02;
}),
(660,470,l),
(649,639,o),
(522,712,o),
(365,712,cs),
(189,712,o),
(50,609,o),
(50,365,cs),
(50,345,ls),
(50,89,o),
(182,-12,o),
(365,-12,cs)
);
}
);
vertWidth = 0;
width = 700;
},
{
anchors = (
{
name = bottom;
pos = (355,0);
},
{
name = top;
pos = (355,700);
}
);
background = {
shapes = (
{
closed = 1;
nodes = (
(538,-13,o),
(664,54,o),
(675,240,c),
(489,240,l),
(480,168,o),
(438,137,o),
(370,137,cs),
(296,137,o),
(231,189,o),
(231,344,cs),
(231,365,ls),
(231,510,o),
(290,563,o),
(370,563,cs),
(427,563,o),
(476,535,o),
(489,460,c),
(675,460,l),
(662,643,o),
(533,713,o),
(370,713,cs),
(188,713,o),
(45,610,o),
(45,365,cs),
(45,346,ls),
(45,86,o),
(178,-13,o),
(370,-13,cs)
);
}
);
};
layerId = "694BE86E-DB85-4EB8-AAFE-5A09896C9F48";
shapes = (
{
closed = 1;
nodes = (
(538,-13,o),
(664,54,o),
(675,240,c),
(489,240,l),
(480,168,o),
(438,137,o),
(370,137,cs),
(296,137,o),
(231,189,o),
(231,344,cs),
(231,365,ls),
(231,510,o),
(290,563,o),
(370,563,cs),
(427,563,o),
(476,535,o),
(489,460,c),
(675,460,l),
(662,643,o),
(533,713,o),
(370,713,cs),
(188,713,o),
(45,610,o),
(45,365,cs),
(45,346,ls),
(45,86,o),
(178,-13,o),
(370,-13,cs)
);
}
);
vertWidth = 0;
width = 710;
},
{
anchors = (
{
name = bottom;
pos = (363,0);
},
{
name = top;
pos = (363,700);
}
);
background = {
shapes = (
{
closed = 1;
nodes = (
(554,-15,o),
(705,59,o),
(710,280,c),
(450,280,l),
(443,215,o),
(411,199,o),
(375,199,cs),
(324,199,o),
(290,244,o),
(290,345,cs),
(290,365,ls),
(290,466,o),
(331,501,o),
(375,501,cs),
(410,501,o),
(443,484,o),
(450,420,c),
(710,420,l),
(705,636,o),
(550,715,o),
(375,715,cs),
(180,715,o),
(20,612,o),
(20,365,cs),
(20,345,ls),
(20,84,o),
(175,-15,o),
(375,-15,cs)
);
}
);
};
layerId = "BB51FDA8-DF56-46E5-B7C8-6101400FE38F";
shapes = (
{
closed = 1;
nodes = (
(554,-15,o),
(705,59,o),
(710,280,c),
(450,280,l),
(443,215,o),
(411,199,o),
(375,199,cs),
(324,199,o),
(290,244,o),
(290,345,cs),
(290,365,ls),
(290,466,o),
(331,501,o),
(375,501,cs),
(410,501,o),
(443,484,o),
(450,420,c),
(710,420,l),
(705,636,o),
(550,715,o),
(375,715,cs),
(180,715,o),
(20,612,o),
(20,365,cs),
(20,345,ls),
(20,84,o),
(175,-15,o),
(375,-15,cs)
);
}
);
vertWidth = 0;
width = 725;
}
);
unicode = 67;
},
{
glyphname = Cacute;
kernLeft = _O_right;
kernRight = _O_left;
lastChange = "2023-01-04 10:50:46 +0000";
layers = (
{
background = {
shapes = (
{
closed = 1;
nodes = (
(496,-10,o),
(609,55,o,{
name = iv02;
}),
(630,210,c,{
name = sv02;
}),
(530,210,l),
(518,130,o),
(459,74,o,{
name = sv01;
}),
(355,74,cs,{
name = iv01;
}),
(266,74,o),
(160,143,o,{
name = at01;
}),
(160,345,cs),
(160,365,ls),
(160,557,o,{
name = ih01;
}),
(256,626,o,{
name = ih02;
}),
(355,626,cs,{
name = ih03;
}),
(450,626,o),
(511,581,o),
(530,490,c,{
name = hr02;
}),
(630,490,l),
(614,629,o),
(506,710,o),
(355,710,cs),
(199,710,o),
(60,604,o),
(60,365,cs),
(60,345,ls),
(60,97,o),
(199,-10,o),
(355,-10,cs)
);
},
{
closed = 1;
nodes = (
(90,580,l,{
name = ab01;
}),
(240,740,l),
(130,740,l,{
name = ih01;
}),
(20,580,l)
);
}
);
};
layerId = "153974D4-4CB0-4785-B412-2977049B2888";
shapes = (
{
ref = C;
},
{
pos = (280,0);
ref = acutecomb.case;
}
);
width = 680;
},
{
background = {
shapes = (
{
closed = 1;
nodes = (
(512,-11,o),
(629,55,o,{
name = iv02;
}),
(645,220,c,{
name = sv02;
}),
(519,220,l),
(508,143,o),
(456,95,o,{
name = sv01;
}),
(360,95,cs,{
name = iv01;
}),
(278,95,o),
(181,153,o,{
name = at01;
}),
(181,345,cs),
(181,365,ls),
(181,546,o,{
name = ih01;
}),
(272,605,o,{
name = ih02;
}),
(360,605,cs,{
name = ih03;
}),
(441,605,o),
(502,567,o),
(519,480,c,{
name = hr02;
}),
(645,480,l),
(632,634,o),
(515,711,o),
(360,711,cs),
(192,711,o),
(55,608,o),
(55,365,cs),
(55,345,ls),
(55,92,o),
(188,-11,o),
(360,-11,cs)
);
},
{
closed = 1;
nodes = (
(110,580,l,{
name = ab01;
}),
(260,740,l),
(130,740,l,{
name = ih01;
}),
(20,580,l)
);
}
);
};
layerId = "519BD859-66F8-41ED-8E65-BDFB48F6DA60";
shapes = (
{
ref = C;
},
{
pos = (275,0);
ref = acutecomb.case;
}
);
width = 690;
},
{
background = {
shapes = (
{
closed = 1;
nodes = (
(526,-12,o),
(647,54,o),
(660,230,c),
(504,230,l),
(493,154,o),
(441,114,o,{
name = hr01;
}),
(365,114,cs),
(288,114,o),
(206,169,o),
(206,345,cs),
(206,365,ls),
(206,532,o),
(283,586,o),
(365,586,cs),
(437,586,o),
(489,550,o),
(504,470,c,{
name = hr02;
}),
(660,470,l),
(649,639,o),
(522,712,o),
(365,712,cs),
(189,712,o),
(50,609,o),
(50,365,cs),
(50,345,ls),
(50,89,o),
(182,-12,o),
(365,-12,cs)
);
},
{
closed = 1;
nodes = (
(130,580,l,{
name = ab01;
}),
(280,740,l),
(130,740,l,{
name = ih01;
}),
(20,580,l)
);
}
);
};
layerId = "68905092-2787-4DB6-B22F-3BD17B98A53B";
shapes = (
{
ref = C;
},
{
pos = (270,0);
ref = acutecomb.case;
}
);
width = 700;
},
{
background = {
shapes = (
{
closed = 1;
nodes = (
(538,-13,o),
(664,54,o),
(675,240,c),
(489,240,l),
(480,168,o),
(438,137,o),
(370,137,cs),
(296,137,o),
(231,189,o),
(231,344,cs),
(231,365,ls),
(231,510,o),
(290,563,o),
(370,563,cs),
(427,563,o),
(476,535,o),
(489,460,c),
(675,460,l),
(662,643,o),
(533,713,o),
(370,713,cs),
(188,713,o),
(45,610,o),
(45,365,cs),
(45,346,ls),
(45,86,o),
(178,-13,o),
(370,-13,cs)
);
},
{
closed = 1;
nodes = (
(140,580,l,{
name = ih01;
}),
(290,740,l),
(130,740,l,{
name = sv01;
}),
(20,580,l)
);
}
);
};
layerId = "694BE86E-DB85-4EB8-AAFE-5A09896C9F48";
shapes = (
{
ref = C;
},
{
pos = (269,0);
ref = acutecomb.case;
}
);
width = 710;
},
{
background = {
shapes = (
{
closed = 1;
nodes = (
(554,-15,o),
(705,59,o),
(710,280,c),
(450,280,l),
(443,215,o),
(411,199,o),
(375,199,cs),
(324,199,o),
(290,244,o),
(290,345,cs),
(290,365,ls),
(290,466,o),
(331,501,o),
(375,501,cs),
(410,501,o),
(443,484,o),
(450,420,c),
(710,420,l),
(705,636,o),
(550,715,o),
(375,715,cs),
(180,715,o),
(20,612,o),
(20,365,cs),
(20,345,ls),
(20,84,o),
(175,-15,o),
(375,-15,cs)
);
},
{
closed = 1;
nodes = (
(170,580,l,{
name = ih01;
}),
(340,740,l),
(130,740,l,{
name = sv01;
}),
(20,580,l)
);
}
);
};
layerId = "BB51FDA8-DF56-46E5-B7C8-6101400FE38F";
shapes = (
{
ref = C;
},
{
pos = (258,0);
ref = acutecomb.case;
}
);
width = 725;
}
);
unicode = 262;
},
{
glyphname = Ccaron;
kernLeft = _O_right;
kernRight = _O_left;
lastChange = "2023-01-04 10:50:46 +0000";
layers = (
{
background = {
shapes = (
{
closed = 1;
nodes = (
(496,-10,o),
(609,55,o,{
name = iv02;
}),
(630,210,c,{
name = sv02;
}),
(530,210,l),
(518,130,o),
(459,74,o,{
name = sv01;
}),
(355,74,cs,{
name = iv01;
}),
(266,74,o),
(160,143,o,{
name = at01;
}),
(160,345,cs),
(160,365,ls),
(160,557,o,{
name = ih01;
}),
(256,626,o,{
name = ih02;
}),
(355,626,cs,{
name = ih03;
}),
(450,626,o),
(511,581,o),
(530,490,c,{
name = hr02;
}),
(630,490,l),
(614,629,o),
(506,710,o),
(355,710,cs),
(199,710,o),
(60,604,o),
(60,365,cs),
(60,345,ls),
(60,97,o),
(199,-10,o),
(355,-10,cs)
);
},
{
closed = 1;
nodes = (
(220,580,l,{
name = ab01;
}),
(330,740,l,{
name = sv03;
}),
(260,740,l,{
name = sv02;
}),
(175,649,l,{
name = ih01;
}),
(90,740,l),
(20,740,l,{
name = sv01;
}),
(130,580,l)
);
}
);
};
layerId = "153974D4-4CB0-4785-B412-2977049B2888";
shapes = (
{
ref = C;
},
{
pos = (160,0);
ref = caroncomb.case;
}
);
width = 680;
},
{
background = {
shapes = (
{
closed = 1;
nodes = (
(512,-11,o),
(629,55,o,{
name = iv02;
}),
(645,220,c,{
name = sv02;
}),
(519,220,l),
(508,143,o),
(456,95,o,{
name = sv01;
}),
(360,95,cs,{
name = iv01;
}),
(278,95,o),
(181,153,o,{
name = at01;
}),
(181,345,cs),
(181,365,ls),
(181,546,o,{
name = ih01;
}),
(272,605,o,{
name = ih02;
}),
(360,605,cs,{
name = ih03;
}),
(441,605,o),
(502,567,o),
(519,480,c,{
name = hr02;
}),
(645,480,l),
(632,634,o),
(515,711,o),
(360,711,cs),
(192,711,o),
(55,608,o),
(55,365,cs),
(55,345,ls),
(55,92,o),
(188,-11,o),
(360,-11,cs)
);
},
{
closed = 1;
nodes = (
(240,580,l,{
name = ab01;
}),
(350,740,l,{
name = sv03;
}),
(260,740,l,{
name = sv02;
}),
(185,660,l,{
name = ih01;
}),
(110,740,l),
(20,740,l,{
name = sv01;
}),
(130,580,l)
);
}
);
};
layerId = "519BD859-66F8-41ED-8E65-BDFB48F6DA60";
shapes = (
{
ref = C;
},
{
pos = (155,0);
ref = caroncomb.case;
}
);
width = 690;
},
{
background = {
shapes = (
{
closed = 1;
nodes = (
(526,-12,o),
(647,54,o),
(660,230,c),
(504,230,l),
(493,154,o),
(441,114,o,{
name = hr01;
}),
(365,114,cs),
(288,114,o),
(206,169,o),
(206,345,cs),
(206,365,ls),
(206,532,o),
(283,586,o),
(365,586,cs),
(437,586,o),
(489,550,o),
(504,470,c,{
name = hr02;
}),
(660,470,l),
(649,639,o),
(522,712,o),
(365,712,cs),
(189,712,o),
(50,609,o),
(50,365,cs),
(50,345,ls),
(50,89,o),
(182,-12,o),
(365,-12,cs)
);
},
{
closed = 1;
nodes = (
(260,580,l,{
name = ab01;
}),
(370,740,l,{
name = sv03;
}),
(260,740,l,{
name = sv02;
}),
(195,670,l,{
name = ih01;
}),
(130,740,l),
(20,740,l,{
name = sv01;
}),
(130,580,l)
);
}
);
};
layerId = "68905092-2787-4DB6-B22F-3BD17B98A53B";
shapes = (
{
ref = C;
},
{
pos = (150,0);
ref = caroncomb.case;
}
);
width = 700;
},
{
background = {
shapes = (
{
closed = 1;
nodes = (
(538,-13,o),
(664,54,o),
(675,240,c),
(489,240,l),
(480,168,o),
(438,137,o),
(370,137,cs),
(296,137,o),
(231,189,o),
(231,344,cs),
(231,365,ls),
(231,510,o),
(290,563,o),
(370,563,cs),
(427,563,o),
(476,535,o),
(489,460,c),
(675,460,l),
(662,643,o),
(533,713,o),
(370,713,cs),
(188,713,o),
(45,610,o),
(45,365,cs),
(45,346,ls),
(45,86,o),
(178,-13,o),
(370,-13,cs)
);
},
{
closed = 1;
nodes = (
(280,580,l,{
name = ab01;
}),
(390,740,l,{
name = sv03;
}),
(270,740,l,{
name = sv02;
}),
(205,670,l,{
name = ih01;
}),
(140,740,l),
(20,740,l,{
name = sv01;
}),
(130,580,l)
);
}
);
};
layerId = "694BE86E-DB85-4EB8-AAFE-5A09896C9F48";
shapes = (
{
ref = C;
},
{
pos = (145,0);
ref = caroncomb.case;
}
);
width = 710;
},
{
background = {
shapes = (
{
closed = 1;
nodes = (
(554,-15,o),
(705,59,o),
(710,280,c),
(450,280,l),
(443,215,o),
(411,199,o),
(375,199,cs),
(324,199,o),
(290,244,o),
(290,345,cs),
(290,365,ls),
(290,466,o),
(331,501,o),
(375,501,cs),
(410,501,o),
(443,484,o),
(450,420,c),
(710,420,l),
(705,636,o),
(550,715,o),
(375,715,cs),
(180,715,o),
(20,612,o),
(20,365,cs),
(20,345,ls),
(20,84,o),
(175,-15,o),
(375,-15,cs)
);
},
{
closed = 1;
nodes = (
(330,580,l,{
name = ab01;
}),
(440,740,l,{
name = sv03;
}),
(290,740,l,{
name = sv02;
}),
(230,683,l,{
name = ih01;
}),
(170,740,l),
(20,740,l,{
name = sv01;
}),
(130,580,l)
);
}
);
};
layerId = "BB51FDA8-DF56-46E5-B7C8-6101400FE38F";
shapes = (
{
ref = C;
},
{
pos = (123,0);
ref = caroncomb.case;
}
);
width = 725;
}
);
unicode = 268;
},
{
glyphname = Ccedilla;
kernLeft = _O_right;
kernRight = _O_left;
lastChange = "2023-01-04 10:50:46 +0000";
layers = (
{
background = {
shapes = (
{
closed = 1;
nodes = (
(496,-10,o),
(609,55,o,{
name = iv02;
}),
(630,210,c,{
name = sv02;
}),
(530,210,l),
(518,130,o),
(459,74,o,{
name = sv01;
}),
(355,74,cs,{
name = iv01;
}),
(266,74,o),
(160,143,o,{
name = at01;
}),
(160,345,cs),
(160,365,ls),
(160,557,o,{
name = ih01;
}),
(256,626,o,{
name = ih02;
}),
(355,626,cs,{
name = ih03;
}),
(450,626,o),
(511,581,o),
(530,490,c,{
name = hr02;
}),
(630,490,l),
(614,629,o),
(506,710,o),
(355,710,cs),
(199,710,o),
(60,604,o),
(60,365,cs),
(60,345,ls),
(60,97,o),
(199,-10,o),
(355,-10,cs)
);
},
{
closed = 1;
nodes = (
(408,-210,o),
(445,-172,o),
(445,-115,cs),
(445,-84,o),
(434,-51,o),
(382,-38,c),
(389,10,l),
(325,10,l),
(308,-81,l),
(359,-81,o),
(365,-97,o,{
name = hr01;
}),
(365,-113,cs),
(365,-132,o),
(352,-146,o),
(315,-146,cs),
(300,-146,o),
(288,-145,o),
(279,-144,c),
(265,-142,l,{
name = hr02;
}),
(265,-204,l),
(272,-205,o),
(277,-206,o),
(284,-207,c),
(295,-209,o),
(308,-210,o),
(325,-210,cs)
);
}
);
};
layerId = "153974D4-4CB0-4785-B412-2977049B2888";
shapes = (
{
ref = C;
},
{
pos = (245,0);
ref = cedillacomb.case;
}
);
width = 680;
},
{
background = {
shapes = (
{
closed = 1;
nodes = (
(512,-11,o),
(629,55,o,{
name = iv02;
}),
(645,220,c,{
name = sv02;
}),
(519,220,l),
(508,143,o),
(456,95,o,{
name = sv01;
}),
(360,95,cs,{
name = iv01;
}),
(278,95,o),
(181,153,o,{
name = at01;
}),
(181,345,cs),
(181,365,ls),
(181,546,o,{
name = ih01;
}),
(272,605,o,{
name = ih02;
}),
(360,605,cs,{
name = ih03;
}),
(441,605,o),
(502,567,o),
(519,480,c,{
name = hr02;
}),
(645,480,l),
(632,634,o),
(515,711,o),
(360,711,cs),
(192,711,o),
(55,608,o),
(55,365,cs),
(55,345,ls),
(55,92,o),
(188,-11,o),
(360,-11,cs)
);
},
{
closed = 1;
nodes = (
(418,-211,o),
(455,-174,o),
(455,-115,cs),
(455,-84,o),
(442,-49,o),
(391,-37,c),
(398,10,l),
(326,10,l),
(309,-82,l),
(353,-82,o),
(361,-94,o,{
name = hr01;
}),
(361,-111,cs),
(361,-126,o),
(352,-140,o),
(315,-140,cs,{
name = hr01;
}),
(300,-140,o),
(288,-139,o),
(279,-138,c),
(265,-136,l,{
name = hr02;
}),
(265,-204,l),
(270,-205,o),
(275,-207,o),
(282,-208,c),
(293,-210,o),
(309,-211,o),
(330,-211,cs)
);
}
);
};
layerId = "519BD859-66F8-41ED-8E65-BDFB48F6DA60";
shapes = (
{
ref = C;
},
{
pos = (245,0);
ref = cedillacomb.case;
}
);
width = 690;
},
{
background = {
shapes = (
{
closed = 1;
nodes = (
(526,-12,o),
(647,54,o),
(660,230,c),
(504,230,l),
(493,154,o),
(441,114,o,{
name = hr01;
}),
(365,114,cs),
(288,114,o),
(206,169,o),
(206,345,cs),
(206,365,ls),
(206,532,o),
(283,586,o),
(365,586,cs),
(437,586,o),
(489,550,o),
(504,470,c,{
name = hr02;
}),
(660,470,l),
(649,639,o),
(522,712,o),
(365,712,cs),
(189,712,o),
(50,609,o),
(50,365,cs),
(50,345,ls),
(50,89,o),
(182,-12,o),
(365,-12,cs)
);
},
{
closed = 1;
nodes = (
(427,-212,o),
(465,-175,o),
(465,-115,cs),
(465,-82,o),
(449,-47,o),
(400,-36,c),
(407,10,l),
(327,10,l),
(310,-83,l),
(353,-83,o),
(359,-94,o,{
name = hr01;
}),
(359,-109,cs),
(359,-122,o),
(351,-134,o),
(315,-134,cs,{
name = hr01;
}),
(300,-134,o),
(288,-133,o),
(279,-132,c),
(265,-129,l,{
name = hr02;
}),
(265,-204,l),
(270,-205,o),
(276,-207,o),
(283,-208,c),
(295,-211,o),
(312,-212,o),
(335,-212,cs)
);
}
);
};
layerId = "68905092-2787-4DB6-B22F-3BD17B98A53B";
shapes = (
{
ref = C;
},
{
pos = (245,0);
ref = cedillacomb.case;
}
);
width = 700;
},
{
background = {
shapes = (
{
closed = 1;
nodes = (
(538,-13,o),
(664,54,o),
(675,240,c),
(489,240,l),
(480,168,o),
(438,137,o),
(370,137,cs),
(296,137,o),
(231,189,o),
(231,344,cs),
(231,365,ls),
(231,510,o),
(290,563,o),
(370,563,cs),
(427,563,o),
(476,535,o),
(489,460,c),
(675,460,l),
(662,643,o),
(533,713,o),
(370,713,cs),
(188,713,o),
(45,610,o),
(45,365,cs),
(45,346,ls),
(45,86,o),
(178,-13,o),
(370,-13,cs)
);
},
{
closed = 1;
nodes = (
(437,-213,o),
(475,-175,o),
(475,-115,cs),
(475,-80,o),
(456,-46,o),
(409,-35,c),
(416,10,l),
(328,10,l),
(311,-84,l),
(347,-84,o),
(354,-96,o),
(354,-107,cs),
(354,-118,o),
(346,-128,o,{
name = hr01;
}),
(315,-128,cs),
(300,-128,o),
(288,-127,o),
(279,-125,cs),
(265,-122,l),
(265,-204,l),
(270,-206,o),
(277,-208,o),
(284,-209,c),
(296,-212,o),
(315,-213,o),
(340,-213,cs)
);
}
);
};
layerId = "694BE86E-DB85-4EB8-AAFE-5A09896C9F48";
shapes = (
{
ref = C;
},
{
pos = (245,0);
ref = cedillacomb.case;
}
);
width = 710;
},
{
background = {
shapes = (
{
closed = 1;
nodes = (
(554,-15,o),
(705,59,o),
(710,280,c),
(450,280,l),
(443,215,o),
(411,199,o),
(375,199,cs),
(324,199,o),
(290,244,o),
(290,345,cs),
(290,365,ls),
(290,466,o),
(331,501,o),
(375,501,cs),
(410,501,o),
(443,484,o),
(450,420,c),
(710,420,l),
(705,636,o),
(550,715,o),
(375,715,cs),
(180,715,o),
(20,612,o),
(20,365,cs),
(20,345,ls),
(20,84,o),
(175,-15,o),
(375,-15,cs)
);
},
{
closed = 1;
nodes = (
(452,-215,o),
(490,-176,o),
(490,-115,cs),
(490,-74,o),
(464,-42,o),
(419,-34,c),
(425,10,l),
(329,10,l),
(312,-85,l),
(344,-85,o),
(350,-94,o),
(350,-102,cs),
(350,-113,o),
(342,-118,o,{
name = hr01;
}),
(310,-118,cs,{
name = hr01;
}),
(295,-118,o),
(283,-117,o),
(274,-115,c),
(260,-111,l),
(260,-205,l),
(265,-207,o),
(272,-209,o),
(280,-210,c),
(295,-213,o),
(314,-215,o),
(345,-215,cs)
);
}
);
};
layerId = "BB51FDA8-DF56-46E5-B7C8-6101400FE38F";
shapes = (
{
ref = C;
},
{
pos = (240,0);
ref = cedillacomb.case;
}
);
width = 725;
}
);
unicode = 199;
},
{
glyphname = Cdotaccent;
kernLeft = _O_right;
kernRight = _O_left;
lastChange = "2023-01-04 10:50:46 +0000";
layers = (
{
background = {
shapes = (
{
closed = 1;
nodes = (
(496,-10,o),
(609,55,o,{
name = iv02;
}),
(630,210,c,{
name = sv02;
}),
(530,210,l),
(518,130,o),
(459,74,o,{
name = sv01;
}),
(355,74,cs,{
name = iv01;
}),
(266,74,o),
(160,143,o,{
name = at01;
}),
(160,345,cs),
(160,365,ls),
(160,557,o,{
name = ih01;
}),
(256,626,o,{
name = ih02;
}),
(355,626,cs,{
name = ih03;
}),
(450,626,o),
(511,581,o),
(530,490,c,{
name = hr02;
}),
(630,490,l),
(614,629,o),
(506,710,o),
(355,710,cs),
(199,710,o),
(60,604,o),
(60,365,cs),
(60,345,ls),
(60,97,o),
(199,-10,o),
(355,-10,cs)
);
},
{
closed = 1;
nodes = (
(115,600,o),
(140,625,o,{
name = sv01;
}),
(140,660,cs),
(140,695,o,{
name = ih01;
}),
(115,720,o,{
name = ih02;
}),
(80,720,cs,{
name = ih03;
}),
(45,720,o),
(20,695,o),
(20,660,cs),
(20,625,o),
(45,600,o),
(80,600,cs)
);
}
);
};
layerId = "153974D4-4CB0-4785-B412-2977049B2888";
shapes = (
{
ref = C;
},
{
pos = (258,0);
ref = dotaccentcomb.case;
}
);
width = 680;
},
{
background = {
shapes = (
{
closed = 1;
nodes = (
(512,-11,o),
(629,55,o,{
name = iv02;
}),
(645,220,c,{
name = sv02;
}),
(519,220,l),
(508,143,o),
(456,95,o,{
name = sv01;
}),
(360,95,cs,{
name = iv01;
}),
(278,95,o),
(181,153,o,{
name = at01;
}),
(181,345,cs),
(181,365,ls),
(181,546,o,{
name = ih01;
}),
(272,605,o,{
name = ih02;
}),
(360,605,cs,{
name = ih03;
}),
(441,605,o),
(502,567,o),
(519,480,c,{
name = hr02;
}),
(645,480,l),
(632,634,o),
(515,711,o),
(360,711,cs),
(192,711,o),
(55,608,o),
(55,365,cs),
(55,345,ls),
(55,92,o),
(188,-11,o),
(360,-11,cs)
);
},
{
closed = 1;
nodes = (
(131,590,o),
(160,619,o,{
name = sv01;
}),
(160,660,cs),
(160,701,o,{
name = ih01;
}),
(131,730,o,{
name = ih02;
}),
(90,730,cs,{
name = ih03;
}),
(49,730,o),
(20,701,o),
(20,660,cs),
(20,619,o),
(49,590,o),
(90,590,cs)
);
}
);
};
layerId = "519BD859-66F8-41ED-8E65-BDFB48F6DA60";
shapes = (
{
ref = C;
},
{
pos = (251,0);
ref = dotaccentcomb.case;
}
);
width = 690;
},
{
background = {
shapes = (
{
closed = 1;
nodes = (
(526,-12,o),
(647,54,o),
(660,230,c),
(504,230,l),
(493,154,o),
(441,114,o,{
name = hr01;
}),
(365,114,cs),
(288,114,o),
(206,169,o),
(206,345,cs),
(206,365,ls),
(206,532,o),
(283,586,o),
(365,586,cs),
(437,586,o),
(489,550,o),
(504,470,c,{
name = hr02;
}),
(660,470,l),
(649,639,o),
(522,712,o),
(365,712,cs),
(189,712,o),
(50,609,o),
(50,365,cs),
(50,345,ls),
(50,89,o),
(182,-12,o),
(365,-12,cs)
);
},
{
closed = 1;
nodes = (
(147,580,o),
(180,613,o,{
name = sv01;
}),
(180,660,cs),
(180,707,o,{
name = ih01;
}),
(147,740,o,{
name = ih02;
}),
(100,740,cs,{
name = ih03;
}),
(53,740,o),
(20,707,o),
(20,660,cs),
(20,613,o),
(53,580,o),
(100,580,cs)
);
}
);
};
layerId = "68905092-2787-4DB6-B22F-3BD17B98A53B";
shapes = (
{
ref = C;
},
{
pos = (244,0);
ref = dotaccentcomb.case;
}
);
width = 700;
},
{
background = {
shapes = (
{
closed = 1;
nodes = (
(538,-13,o),
(664,54,o),
(675,240,c),
(489,240,l),
(480,168,o),
(438,137,o),
(370,137,cs),
(296,137,o),
(231,189,o),
(231,344,cs),
(231,365,ls),
(231,510,o),
(290,563,o),
(370,563,cs),
(427,563,o),
(476,535,o),
(489,460,c),
(675,460,l),
(662,643,o),
(533,713,o),
(370,713,cs),
(188,713,o),
(45,610,o),
(45,365,cs),
(45,346,ls),
(45,86,o),
(178,-13,o),
(370,-13,cs)
);
},
{
closed = 1;
nodes = (
(167,580,o),
(200,613,o,{
name = sv01;
}),
(200,660,cs),
(200,707,o,{
name = ih01;
}),
(167,740,o,{
name = ih02;
}),
(110,740,cs,{
name = ih03;
}),
(53,740,o),
(20,707,o),
(20,660,cs),
(20,613,o),
(53,580,o),
(110,580,cs)
);
}
);
};
layerId = "694BE86E-DB85-4EB8-AAFE-5A09896C9F48";
shapes = (
{
ref = C;
},
{
pos = (237,0);
ref = dotaccentcomb.case;
}
);
width = 710;
},
{
background = {
shapes = (
{
closed = 1;
nodes = (
(554,-15,o),
(705,59,o),
(710,280,c),
(450,280,l),
(443,215,o),
(411,199,o),
(375,199,cs),
(324,199,o),
(290,244,o),
(290,345,cs),
(290,365,ls),
(290,466,o),
(331,501,o),
(375,501,cs),
(410,501,o),
(443,484,o),
(450,420,c),
(710,420,l),
(705,636,o),
(550,715,o),
(375,715,cs),
(180,715,o),
(20,612,o),
(20,365,cs),
(20,345,ls),
(20,84,o),
(175,-15,o),
(375,-15,cs)
);
},
{
closed = 1;
nodes = (
(220,580,o),
(260,611,o,{
name = sv01;
}),
(260,660,cs),
(260,709,o,{
name = ih01;
}),
(220,740,o,{
name = ih02;
}),
(140,740,cs,{
name = ih03;
}),
(60,740,o),
(20,709,o),
(20,660,cs),
(20,611,o),
(60,580,o),
(140,580,cs)
);
}
);
};
layerId = "BB51FDA8-DF56-46E5-B7C8-6101400FE38F";
shapes = (
{
ref = C;
},
{
pos = (213,0);
ref = dotaccentcomb.case;
}
);
width = 725;
}
);
unicode = 266;
},
{
glyphname = D;
kernLeft = _H_right;
kernRight = _O_left;
lastChange = "2023-01-04 10:50:46 +0000";
layers = (
{
anchors = (
{
name = bottom;
pos = (350,0);
},
{
name = center;
pos = (350,350);
},
{
name = top;
pos = (350,700);
}
);
background = {
shapes = (
{
closed = 1;
nodes = (
(295,0,ls),
(511,0,o),
(640,121,o),
(640,345,cs),
(640,365,ls),
(640,585,o),
(515,700,o),
(305,700,cs),
(100,700,l),
(100,0,l)
);
},
{
closed = 1;
nodes = (
(194,618,l),
(295,618,ls),
(445,618,o),
(540,544,o),
(540,365,cs),
(540,345,ls),
(540,158,o),
(443,82,o),
(285,82,cs),
(194,82,l)
);
}
);
};
layerId = "153974D4-4CB0-4785-B412-2977049B2888";
shapes = (
{
closed = 1;
nodes = (
(295,0,ls),
(511,0,o),
(640,121,o),
(640,345,cs),
(640,365,ls),
(640,585,o),
(515,700,o),
(305,700,cs),
(100,700,l),
(100,0,l)
);
},
{
closed = 1;
nodes = (
(194,618,l),
(295,618,ls),
(445,618,o),
(540,544,o),
(540,365,cs),
(540,345,ls),
(540,158,o),
(443,82,o),
(285,82,cs),
(194,82,l)
);
}
);
vertWidth = 0;
width = 700;
},
{
anchors = (
{
name = bottom;
pos = (353,0);
},
{
name = center;
pos = (353,350);
},
{
name = top;
pos = (353,700);
}
);
background = {
shapes = (
{
closed = 1;
nodes = (
(305,0,ls),
(521,0,o),
(650,121,o),
(650,345,cs),
(650,365,ls),
(650,586,o),
(527,700,o),
(315,700,cs),
(90,700,l),
(90,0,l)
);
},
{
closed = 1;
nodes = (
(210,596,l),
(305,596,ls),
(429,596,o),
(524,529,o),
(524,365,cs),
(524,345,ls),
(524,169,o),
(432,104,o),
(295,104,cs),
(210,104,l)
);
}
);
};
layerId = "519BD859-66F8-41ED-8E65-BDFB48F6DA60";
shapes = (
{
closed = 1;
nodes = (
(305,0,ls),
(521,0,o),
(650,121,o),
(650,345,cs),
(650,365,ls),
(650,586,o),
(527,700,o),
(315,700,cs),
(90,700,l),
(90,0,l)
);
},
{
closed = 1;
nodes = (
(210,596,l),
(305,596,ls),
(429,596,o),
(524,529,o),
(524,365,cs),
(524,345,ls),
(524,169,o),
(432,104,o),
(295,104,cs),
(210,104,l)
);
}
);
vertWidth = 0;
width = 705;
},
{
anchors = (
{
name = bottom;
pos = (355,0);
},
{
name = center;
pos = (355,350);
},
{
name = top;
pos = (355,700);
}
);
background = {
shapes = (
{
closed = 1;
nodes = (
(315,0,ls),
(531,0,o),
(660,121,o),
(660,345,cs),
(660,365,ls),
(660,585,o),
(535,700,o),
(325,700,cs),
(80,700,l),
(80,0,l)
);
},
{
closed = 1;
nodes = (
(230,576,l),
(315,576,ls),
(419,576,o),
(504,521,o),
(504,365,cs),
(504,345,ls),
(504,181,o),
(412,124,o),
(305,124,cs),
(230,124,l)
);
}
);
};
layerId = "68905092-2787-4DB6-B22F-3BD17B98A53B";
shapes = (
{
closed = 1;
nodes = (
(315,0,ls),
(531,0,o),
(660,121,o),
(660,345,cs),
(660,365,ls),
(660,585,o),
(535,700,o),
(325,700,cs),
(80,700,l),
(80,0,l)
);
},
{
closed = 1;
nodes = (
(230,576,l),
(315,576,ls),
(419,576,o),
(504,521,o),
(504,365,cs),
(504,345,ls),
(504,181,o),
(412,124,o),
(305,124,cs),
(230,124,l)
);
}
);
vertWidth = 0;
width = 710;
},
{
anchors = (
{
name = bottom;
pos = (358,0);
},
{
name = center;
pos = (358,350);
},
{
name = top;
pos = (358,700);
}
);
background = {
shapes = (
{
closed = 1;
nodes = (
(325,0,ls),
(541,0,o),
(670,121,o),
(670,345,cs),
(670,365,ls),
(670,585,o),
(545,700,o),
(335,700,cs),
(70,700,l),
(70,0,l)
);
},
{
closed = 1;
nodes = (
(250,552,l),
(325,552,ls),
(413,552,o),
(484,501,o),
(484,365,cs),
(484,345,ls),
(484,200,o),
(406,148,o),
(315,148,cs),
(250,148,l)
);
}
);
};
layerId = "694BE86E-DB85-4EB8-AAFE-5A09896C9F48";
shapes = (
{
closed = 1;
nodes = (
(325,0,ls),
(541,0,o),
(670,121,o),
(670,345,cs),
(670,365,ls),
(670,585,o),
(545,700,o),
(335,700,cs),
(70,700,l),
(70,0,l)
);
},
{
closed = 1;
nodes = (
(250,552,l),
(325,552,ls),
(413,552,o),
(484,501,o),
(484,365,cs),
(484,345,ls),
(484,200,o),
(406,148,o),
(315,148,cs),
(250,148,l)
);
}
);
vertWidth = 0;
width = 715;
},
{
anchors = (
{
name = bottom;
pos = (360,0);
},
{
name = center;
pos = (360,350);
},
{
name = top;
pos = (360,700);
}
);
background = {
shapes = (
{
closed = 1;
nodes = (
(345,0,ls),
(561,0,o),
(700,121,o),
(700,345,cs),
(700,365,ls),
(700,585,o),
(565,700,o),
(355,700,cs),
(40,700,l),
(40,0,l)
);
},
{
closed = 1;
nodes = (
(304,488,l),
(345,488,ls),
(402,488,o),
(430,460,o),
(430,365,cs),
(430,345,ls),
(430,240,o),
(396,212,o),
(345,212,cs),
(304,212,l)
);
}
);
};
layerId = "BB51FDA8-DF56-46E5-B7C8-6101400FE38F";
shapes = (
{
closed = 1;
nodes = (
(345,0,ls),
(561,0,o),
(700,121,o),
(700,345,cs),
(700,365,ls),
(700,585,o),
(565,700,o),
(355,700,cs),
(40,700,l),
(40,0,l)
);
},
{
closed = 1;
nodes = (
(304,488,l),
(345,488,ls),
(402,488,o),
(430,460,o),
(430,365,cs),
(430,345,ls),
(430,240,o),
(396,212,o),
(345,212,cs),
(304,212,l)
);
}
);
vertWidth = 0;
width = 720;
}
);
unicode = 68;
},
{
glyphname = Eth;
kernRight = _O_left;
lastChange = "2023-01-04 10:50:46 +0000";
layers = (
{
background = {
shapes = (
{
closed = 1;
nodes = (
(310,0,ls),
(526,0,o),
(655,121,o),
(655,345,cs),
(655,365,ls),
(655,585,o),
(530,700,o),
(320,700,cs),
(115,700,l),
(115,391,l),
(35,391,l),
(35,319,l),
(115,319,l),
(115,0,l)
);
},
{
closed = 1;
nodes = (
(209,319,l),
(385,319,l),
(385,391,l),
(209,391,l),
(209,618,l),
(310,618,ls),
(460,618,o),
(555,544,o),
(555,365,cs),
(555,345,ls),
(555,158,o),
(458,82,o),
(300,82,cs),
(209,82,l)
);
}
);
};
layerId = "153974D4-4CB0-4785-B412-2977049B2888";
shapes = (
{
closed = 1;
nodes = (
(310,0,ls),
(526,0,o),
(655,121,o),
(655,345,cs),
(655,365,ls),
(655,585,o),
(530,700,o),
(320,700,cs),
(115,700,l),
(115,391,l),
(35,391,l),
(35,319,l),
(115,319,l),
(115,0,l)
);
},
{
closed = 1;
nodes = (
(209,319,l),
(385,319,l),
(385,391,l),
(209,391,l),
(209,618,l),
(310,618,ls),
(460,618,o),
(555,544,o),
(555,365,cs),
(555,345,ls),
(555,158,o),
(458,82,o),
(300,82,cs),
(209,82,l)
);
}
);
vertWidth = 0;
width = 715;
},
{
background = {
shapes = (
{
closed = 1;
nodes = (
(325,0,ls),
(541,0,o),
(670,121,o),
(670,345,cs),
(670,365,ls),
(670,586,o),
(547,700,o),
(335,700,cs),
(110,700,l),
(110,402,l),
(30,402,l),
(30,308,l),
(110,308,l),
(110,0,l)
);
},
{
closed = 1;
nodes = (
(230,308,l),
(390,308,l),
(390,402,l),
(230,402,l),
(230,596,l),
(325,596,ls),
(449,596,o),
(544,529,o),
(544,365,cs),
(544,345,ls),
(544,169,o),
(452,104,o),
(315,104,cs),
(230,104,l)
);
}
);
};
layerId = "519BD859-66F8-41ED-8E65-BDFB48F6DA60";
shapes = (
{
closed = 1;
nodes = (
(325,0,ls),
(541,0,o),
(670,121,o),
(670,345,cs),
(670,365,ls),
(670,586,o),
(547,700,o),
(335,700,cs),
(110,700,l),
(110,402,l),
(30,402,l),
(30,308,l),
(110,308,l),
(110,0,l)
);
},
{
closed = 1;
nodes = (
(230,308,l),
(390,308,l),
(390,402,l),
(230,402,l),
(230,596,l),
(325,596,ls),
(449,596,o),
(544,529,o),
(544,365,cs),
(544,345,ls),
(544,169,o),
(452,104,o),
(315,104,cs),
(230,104,l)
);
}
);
vertWidth = 0;
width = 725;
},
{
background = {
shapes = (
{
closed = 1;
nodes = (
(340,0,ls),
(556,0,o),
(685,121,o),
(685,345,cs),
(685,365,ls),
(685,585,o),
(560,700,o),
(350,700,cs),
(105,700,l),
(105,407,l),
(25,407,l),
(25,303,l),
(105,303,l),
(105,0,l)
);
},
{
closed = 1;
nodes = (
(255,303,l),
(395,303,l),
(395,407,l),
(255,407,l),
(255,576,l),
(340,576,ls),
(444,576,o),
(529,521,o),
(529,365,cs),
(529,345,ls),
(529,181,o),
(437,124,o),
(330,124,cs),
(255,124,l)
);
}
);
};
layerId = "68905092-2787-4DB6-B22F-3BD17B98A53B";
shapes = (
{
closed = 1;
nodes = (
(340,0,ls),
(556,0,o),
(685,121,o),
(685,345,cs),
(685,365,ls),
(685,585,o),
(560,700,o),
(350,700,cs),
(105,700,l),
(105,407,l),
(25,407,l),
(25,303,l),
(105,303,l),
(105,0,l)
);
},
{
closed = 1;
nodes = (
(255,303,l),
(395,303,l),
(395,407,l),
(255,407,l),
(255,576,l),
(340,576,ls),
(444,576,o),
(529,521,o),
(529,365,cs),
(529,345,ls),
(529,181,o),
(437,124,o),
(330,124,cs),
(255,124,l)
);
}
);
vertWidth = 0;
width = 735;
},
{
background = {
shapes = (
{
closed = 1;
nodes = (
(355,0,ls),
(571,0,o),
(700,121,o),
(700,345,cs),
(700,365,ls),
(700,585,o),
(575,700,o),
(365,700,cs),
(100,700,l),
(100,424,l),
(20,424,l),
(20,286,l),
(100,286,l),
(100,0,l)
);
},
{
closed = 1;
nodes = (
(280,286,l),
(400,286,l),
(400,424,l),
(280,424,l),
(280,552,l),
(355,552,ls),
(443,552,o),
(514,501,o),
(514,365,cs),
(514,345,ls),
(514,200,o),
(436,148,o),
(345,148,cs),
(280,148,l)
);
}
);
};
layerId = "694BE86E-DB85-4EB8-AAFE-5A09896C9F48";
shapes = (
{
closed = 1;
nodes = (
(355,0,ls),
(571,0,o),
(700,121,o),
(700,345,cs),
(700,365,ls),
(700,585,o),
(575,700,o),
(365,700,cs),
(100,700,l),
(100,424,l),
(20,424,l),
(20,286,l),
(100,286,l),
(100,0,l)
);
},
{
closed = 1;
nodes = (
(280,286,l),
(400,286,l),
(400,424,l),
(280,424,l),
(280,552,l),
(355,552,ls),
(443,552,o),
(514,501,o),
(514,365,cs),
(514,345,ls),
(514,200,o),
(436,148,o),
(345,148,cs),
(280,148,l)
);
}
);
vertWidth = 0;
width = 745;
},
{
background = {
shapes = (
{
closed = 1;
nodes = (
(395,0,ls,{
name = ih01;
}),
(611,0,o),
(750,121,o),
(750,345,cs),
(750,365,ls,{
name = at01;
}),
(750,585,o,{
name = iv01;
}),
(615,700,o),
(405,700,cs),
(90,700,l,{
name = iv02;
}),
(90,446,l),
(10,446,l),
(10,254,l,{
name = sv03;
}),
(90,254,l),
(90,0,l)
);
},
{
closed = 1;
nodes = (
(354,254,l),
(420,254,l,{
name = sv01;
}),
(420,446,l),
(354,446,l),
(354,488,l,{
name = sh01;
}),
(395,488,ls,{
name = ih02;
}),
(452,488,o,{
name = ih03;
}),
(480,460,o),
(480,365,cs),
(480,345,ls),
(480,240,o),
(446,212,o),
(395,212,cs),
(354,212,l,{
name = sv02;
})
);
}
);
};
layerId = "BB51FDA8-DF56-46E5-B7C8-6101400FE38F";
shapes = (
{
closed = 1;
nodes = (
(395,0,ls,{
name = ih01;
}),
(611,0,o),
(750,121,o),
(750,345,cs),
(750,365,ls,{
name = at01;
}),
(750,585,o,{
name = iv01;
}),
(615,700,o),
(405,700,cs),
(90,700,l,{
name = iv02;
}),
(90,446,l),
(10,446,l),
(10,254,l,{
name = sv03;
}),
(90,254,l),
(90,0,l)
);
},
{
closed = 1;
nodes = (
(354,254,l),
(420,254,l,{
name = sv01;
}),
(420,446,l),
(354,446,l),
(354,488,l,{
name = sh01;
}),
(395,488,ls,{
name = ih02;
}),
(452,488,o,{
name = ih03;
}),
(480,460,o),
(480,365,cs),
(480,345,ls),
(480,240,o),
(446,212,o),
(395,212,cs),
(354,212,l,{
name = sv02;
})
);
}
);
userData = {
com.fontlab.ttcommands = (
{
code = alignt;
point = at01;
zone = uc;
},
{
code = alignb;
point = ih01;
zone = "b: 0";
},
{
align = round;
code = interpolatev;
point = iv01;
point1 = at01;
point2 = ih01;
},
{
align = round;
code = interpolatev;
point = iv02;
point1 = iv01;
point2 = ih01;
},
{
code = mdeltav;
delta = 8;
point = iv02;
ppm1 = 28;
ppm2 = 29;
},
{
code = mdeltav;
delta = 8;
point = iv02;
ppm1 = 13;
ppm2 = 14;
},
{
code = mdeltav;
delta = 8;
point = iv02;
ppm1 = 9;
ppm2 = 10;
},
{
align = round;
code = singlev;
point1 = iv02;
point2 = sv03;
},
{
align = round;
code = singlev;
point1 = iv01;
point2 = sv02;
},
{
align = round;
code = singlev;
point1 = at01;
point2 = sv01;
stem = "OH: 212";
},
{
align = round;
code = singlev;
point1 = ih01;
point2 = sh01;
stem = "OH: 212";
},
{
align = round;
code = interpolateh;
point = ih01;
point1 = ih02;
point2 = ih03;
},
{
align = round;
code = singleh;
point1 = ih01;
point2 = sh01;
}
);
};
vertWidth = 0;
width = 770;
}
);
unicode = 208;
},
{
glyphname = Dcaron;
kernLeft = _H_right;
kernRight = _O_left;
lastChange = "2023-01-04 10:50:46 +0000";
layers = (
{
background = {
shapes = (
{
closed = 1;
nodes = (
(295,0,ls),
(511,0,o),
(640,121,o),
(640,345,cs),
(640,365,ls),
(640,585,o),
(515,700,o),
(305,700,cs),
(100,700,l),
(100,0,l)
);
},
{
closed = 1;
nodes = (
(194,618,l),
(295,618,ls),
(445,618,o),
(540,544,o),
(540,365,cs),
(540,345,ls),
(540,158,o),
(443,82,o),
(285,82,cs),
(194,82,l)
);
},
{
closed = 1;
nodes = (
(220,580,l,{
name = ab01;
}),
(330,740,l,{
name = sv03;
}),
(260,740,l,{
name = sv02;
}),
(175,649,l,{
name = ih01;
}),
(90,740,l),
(20,740,l,{
name = sv01;
}),
(130,580,l)
);
}
);
};
layerId = "153974D4-4CB0-4785-B412-2977049B2888";
shapes = (
{
ref = D;
},
{
pos = (170,0);
ref = caroncomb.case;
}
);
width = 700;
},
{
background = {
shapes = (
{
closed = 1;
nodes = (
(305,0,ls),
(521,0,o),
(650,121,o),
(650,345,cs),
(650,365,ls),
(650,586,o),
(527,700,o),
(315,700,cs),
(90,700,l),
(90,0,l)
);
},
{
closed = 1;
nodes = (
(210,596,l),
(305,596,ls),
(429,596,o),
(524,529,o),
(524,365,cs),
(524,345,ls),
(524,169,o),
(432,104,o),
(295,104,cs),
(210,104,l)
);
},
{
closed = 1;
nodes = (
(240,580,l,{
name = ab01;
}),
(350,740,l,{
name = sv03;
}),
(260,740,l,{
name = sv02;
}),
(185,660,l,{
name = ih01;
}),
(110,740,l),
(20,740,l,{
name = sv01;
}),
(130,580,l)
);
}
);
};
layerId = "519BD859-66F8-41ED-8E65-BDFB48F6DA60";
shapes = (
{
ref = D;
},
{
pos = (163,0);
ref = caroncomb.case;
}
);
width = 705;
},
{
background = {
shapes = (
{
closed = 1;
nodes = (
(315,0,ls),
(531,0,o),
(660,121,o),
(660,345,cs),
(660,365,ls),
(660,585,o),
(535,700,o),
(325,700,cs),
(80,700,l),
(80,0,l)
);
},
{
closed = 1;
nodes = (
(230,576,l),
(315,576,ls),
(419,576,o),
(504,521,o),
(504,365,cs),
(504,345,ls),
(504,181,o),
(412,124,o),
(305,124,cs),
(230,124,l)
);
},
{
closed = 1;
nodes = (
(260,580,l,{
name = ab01;
}),
(370,740,l,{
name = sv03;
}),
(260,740,l,{
name = sv02;
}),
(195,670,l,{
name = ih01;
}),
(130,740,l),
(20,740,l,{
name = sv01;
}),
(130,580,l)
);
}
);
};
layerId = "68905092-2787-4DB6-B22F-3BD17B98A53B";
shapes = (
{
ref = D;
},
{
pos = (155,0);
ref = caroncomb.case;
}
);
width = 710;
},
{
background = {
shapes = (
{
closed = 1;
nodes = (
(325,0,ls),
(541,0,o),
(670,121,o),
(670,345,cs),
(670,365,ls),
(670,585,o),
(545,700,o),
(335,700,cs),
(70,700,l),
(70,0,l)
);
},
{
closed = 1;
nodes = (
(250,552,l),
(325,552,ls),
(413,552,o),
(484,501,o),
(484,365,cs),
(484,345,ls),
(484,200,o),
(406,148,o),
(315,148,cs),
(250,148,l)
);
},
{
closed = 1;
nodes = (
(280,580,l,{
name = ab01;
}),
(390,740,l,{
name = sv03;
}),
(270,740,l,{
name = sv02;
}),
(205,670,l,{
name = ih01;
}),
(140,740,l),
(20,740,l,{
name = sv01;
}),
(130,580,l)
);
}
);
};
layerId = "694BE86E-DB85-4EB8-AAFE-5A09896C9F48";
shapes = (
{
ref = D;
},
{
pos = (148,0);
ref = caroncomb.case;
}
);
width = 715;
},
{
background = {
shapes = (
{
closed = 1;
nodes = (
(345,0,ls),
(561,0,o),
(700,121,o),
(700,345,cs),
(700,365,ls),
(700,585,o),
(565,700,o),
(355,700,cs),
(40,700,l),
(40,0,l)
);
},
{
closed = 1;
nodes = (
(304,488,l),
(345,488,ls),
(402,488,o),
(430,460,o),
(430,365,cs),
(430,345,ls),
(430,240,o),
(396,212,o),
(345,212,cs),
(304,212,l)
);
},
{
closed = 1;
nodes = (
(330,580,l,{
name = ab01;
}),
(440,740,l,{
name = sv03;
}),
(290,740,l,{
name = sv02;
}),
(230,683,l,{
name = ih01;
}),
(170,740,l),
(20,740,l,{
name = sv01;
}),
(130,580,l)
);
}
);
};
layerId = "BB51FDA8-DF56-46E5-B7C8-6101400FE38F";
shapes = (
{
ref = D;
},
{
pos = (120,0);
ref = caroncomb.case;
}
);
width = 720;
}
);
unicode = 270;
},
{
glyphname = Dcroat;
kernLeft = _H_right;
kernRight = _O_left;
lastChange = "2023-01-04 10:50:46 +0000";
layers = (
{
background = {
shapes = (
{
closed = 1;
nodes = (
(310,0,ls),
(526,0,o),
(655,121,o),
(655,345,cs),
(655,365,ls),
(655,585,o),
(530,700,o),
(320,700,cs),
(115,700,l),
(115,391,l),
(35,391,l),
(35,319,l),
(115,319,l),
(115,0,l)
);
},
{
closed = 1;
nodes = (
(209,319,l),
(385,319,l),
(385,391,l),
(209,391,l),
(209,618,l),
(310,618,ls),
(460,618,o),
(555,544,o),
(555,365,cs),
(555,345,ls),
(555,158,o),
(458,82,o),
(300,82,cs),
(209,82,l)
);
}
);
};
layerId = "153974D4-4CB0-4785-B412-2977049B2888";
shapes = (
{
ref = Eth;
}
);
width = 715;
},
{
background = {
shapes = (
{
closed = 1;
nodes = (
(325,0,ls),
(541,0,o),
(670,121,o),
(670,345,cs),
(670,365,ls),
(670,586,o),
(547,700,o),
(335,700,cs),
(110,700,l),
(110,402,l),
(30,402,l),
(30,308,l),
(110,308,l),
(110,0,l)
);
},
{
closed = 1;
nodes = (
(230,308,l),
(390,308,l),
(390,402,l),
(230,402,l),
(230,596,l),
(325,596,ls),
(449,596,o),
(544,529,o),
(544,365,cs),
(544,345,ls),
(544,169,o),
(452,104,o),
(315,104,cs),
(230,104,l)
);
}
);
};
layerId = "519BD859-66F8-41ED-8E65-BDFB48F6DA60";
shapes = (
{
ref = Eth;
}
);
width = 725;
},
{
background = {
shapes = (
{
closed = 1;
nodes = (
(340,0,ls),
(556,0,o),
(685,121,o),
(685,345,cs),
(685,365,ls),
(685,585,o),
(560,700,o),
(350,700,cs),
(105,700,l),
(105,407,l),
(25,407,l),
(25,303,l),
(105,303,l),
(105,0,l)
);
},
{
closed = 1;
nodes = (
(255,303,l),
(395,303,l),
(395,407,l),
(255,407,l),
(255,576,l),
(340,576,ls),
(444,576,o),
(529,521,o),
(529,365,cs),
(529,345,ls),
(529,181,o),
(437,124,o),
(330,124,cs),
(255,124,l)
);
}
);
};
layerId = "68905092-2787-4DB6-B22F-3BD17B98A53B";
shapes = (
{
ref = Eth;
}
);
width = 735;
},
{
background = {
shapes = (
{
closed = 1;
nodes = (
(355,0,ls),
(571,0,o),
(700,121,o),
(700,345,cs),
(700,365,ls),
(700,585,o),
(575,700,o),
(365,700,cs),
(100,700,l),
(100,424,l),
(20,424,l),
(20,286,l),
(100,286,l),
(100,0,l)
);
},
{
closed = 1;
nodes = (
(280,286,l),
(400,286,l),
(400,424,l),
(280,424,l),
(280,552,l),
(355,552,ls),
(443,552,o),
(514,501,o),
(514,365,cs),
(514,345,ls),
(514,200,o),
(436,148,o),
(345,148,cs),
(280,148,l)
);
}
);
};
layerId = "694BE86E-DB85-4EB8-AAFE-5A09896C9F48";
shapes = (
{
ref = Eth;
}
);
width = 745;
},
{
background = {
shapes = (
{
closed = 1;
nodes = (
(395,0,ls,{
name = ih01;
}),
(611,0,o),
(750,121,o),
(750,345,cs),
(750,365,ls,{
name = at01;
}),
(750,585,o,{
name = iv01;
}),
(615,700,o),
(405,700,cs),
(90,700,l,{
name = iv02;
}),
(90,446,l),
(10,446,l),
(10,254,l,{
name = sv03;
}),
(90,254,l),
(90,0,l)
);
},
{
closed = 1;
nodes = (
(354,254,l),
(420,254,l,{
name = sv01;
}),
(420,446,l),
(354,446,l),
(354,488,l,{
name = sh01;
}),
(395,488,ls,{
name = ih02;
}),
(452,488,o,{
name = ih03;
}),
(480,460,o),
(480,365,cs),
(480,345,ls),
(480,240,o),
(446,212,o),
(395,212,cs),
(354,212,l,{
name = sv02;
})
);
}
);
};
layerId = "BB51FDA8-DF56-46E5-B7C8-6101400FE38F";
shapes = (
{
ref = Eth;
}
);
width = 770;
}
);
unicode = 272;
},
{
glyphname = E;
kernLeft = _H_right;
kernRight = _E_left;
lastChange = "2023-01-04 10:50:46 +0000";
layers = (
{
anchors = (
{
name = bottom;
pos = (305,0);
},
{
name = ogonek;
pos = (550,0);
},
{
name = top;
pos = (325,700);
},
{
name = topleft;
pos = (20,700);
}
);
background = {
shapes = (
{
closed = 1;
nodes = (
(550,0,l,{
name = ab01;
}),
(550,82,l),
(194,82,l,{
name = sv03;
}),
(194,319,l),
(520,319,l,{
name = sv02;
}),
(520,401,l,{
name = iv01;
}),
(194,401,l),
(194,618,l,{
name = ih01;
}),
(550,618,l,{
name = sv01;
}),
(550,700,l),
(100,700,l,{
name = at01;
}),
(100,0,l)
);
}
);
};
layerId = "153974D4-4CB0-4785-B412-2977049B2888";
shapes = (
{
closed = 1;
nodes = (
(550,0,l,{
name = ab01;
}),
(550,82,l),
(194,82,l,{
name = sv03;
}),
(194,319,l),
(520,319,l,{
name = sv02;
}),
(520,401,l,{
name = iv01;
}),
(194,401,l),
(194,618,l,{
name = ih01;
}),
(550,618,l,{
name = sv01;
}),
(550,700,l),
(100,700,l,{
name = at01;
}),
(100,0,l)
);
}
);
userData = {
com.fontlab.ttcommands = (
{
code = alignt;
point = at01;
zone = uc;
},
{
code = alignb;
point = ab01;
zone = "b: 0";
},
{
align = center;
code = singlev;
point1 = ab01;
point2 = sv03;
stem = "OH: 82";
},
{
align = round;
code = interpolatev;
point = iv01;
point1 = at01;
point2 = ab01;
},
{
align = round;
code = singlev;
point1 = iv01;
point2 = sv02;
stem = "OH: 82";
},
{
align = round;
code = singlev;
point1 = at01;
point2 = sv01;
stem = "OH: 82";
},
{
align = round;
code = interpolateh;
point = ih01;
point1 = lsb;
point2 = rsb;
}
);
};
vertWidth = 0;
width = 610;
},
{
anchors = (
{
name = bottom;
pos = (308,0);
},
{
name = ogonek;
pos = (560,0);
},
{
name = top;
pos = (325,700);
},
{
name = topleft;
pos = (20,700);
}
);
background = {
shapes = (
{
closed = 1;
nodes = (
(560,0,l,{
name = ab01;
}),
(560,104,l),
(210,104,l,{
name = sv03;
}),
(210,308,l),
(530,308,l,{
name = sv02;
}),
(530,412,l,{
name = iv01;
}),
(210,412,l),
(210,596,l,{
name = ih01;
}),
(560,596,l,{
name = sv01;
}),
(560,700,l),
(90,700,l,{
name = at01;
}),
(90,0,l)
);
}
);
};
layerId = "519BD859-66F8-41ED-8E65-BDFB48F6DA60";
shapes = (
{
closed = 1;
nodes = (
(560,0,l,{
name = ab01;
}),
(560,104,l),
(210,104,l,{
name = sv03;
}),
(210,308,l),
(530,308,l,{
name = sv02;
}),
(530,412,l,{
name = iv01;
}),
(210,412,l),
(210,596,l,{
name = ih01;
}),
(560,596,l,{
name = sv01;
}),
(560,700,l),
(90,700,l,{
name = at01;
}),
(90,0,l)
);
}
);
userData = {
com.fontlab.ttcommands = (
{
code = alignt;
point = at01;
zone = uc;
},
{
code = alignb;
point = ab01;
zone = "b: 0";
},
{
align = center;
code = singlev;
point1 = ab01;
point2 = sv03;
stem = "OH: 104";
},
{
align = round;
code = interpolatev;
point = iv01;
point1 = at01;
point2 = ab01;
},
{
code = mdeltav;
delta = 8;
point = iv01;
ppm1 = 15;
ppm2 = 16;
},
{
align = round;
code = singlev;
point1 = iv01;
point2 = sv02;
stem = "OH: 104";
},
{
align = round;
code = singlev;
point1 = at01;
point2 = sv01;
stem = "OH: 104";
},
{
align = round;
code = interpolateh;
point = ih01;
point1 = lsb;
point2 = rsb;
}
);
};
vertWidth = 0;
width = 615;
},
{
anchors = (
{
name = bottom;
pos = (310,0);
},
{
name = ogonek;
pos = (570,0);
},
{
name = top;
pos = (325,700);
},
{
name = topleft;
pos = (20,700);
}
);
background = {
shapes = (
{
closed = 1;
nodes = (
(570,0,l,{
name = ab01;
}),
(570,124,l),
(231,124,l,{
name = sv03;
}),
(231,300,l),
(540,300,l,{
name = sv02;
}),
(540,420,l,{
name = iv01;
}),
(231,420,l),
(231,576,l,{
name = ih01;
}),
(570,576,l,{
name = sv01;
}),
(570,700,l),
(80,700,l,{
name = at01;
}),
(80,0,l)
);
}
);
};
layerId = "68905092-2787-4DB6-B22F-3BD17B98A53B";
shapes = (
{
closed = 1;
nodes = (
(570,0,l,{
name = ab01;
}),
(570,124,l),
(231,124,l,{
name = sv03;
}),
(231,300,l),
(540,300,l,{
name = sv02;
}),
(540,420,l,{
name = iv01;
}),
(231,420,l),
(231,576,l,{
name = ih01;
}),
(570,576,l,{
name = sv01;
}),
(570,700,l),
(80,700,l,{
name = at01;
}),
(80,0,l)
);
}
);
userData = {
com.fontlab.ttcommands = (
{
code = alignt;
point = at01;
zone = uc;
},
{
code = alignb;
point = ab01;
zone = "b: 0";
},
{
align = center;
code = singlev;
point1 = ab01;
point2 = sv03;
stem = "OH: 124";
},
{
align = round;
code = interpolatev;
point = iv01;
point1 = at01;
point2 = ab01;
},
{
code = mdeltav;
delta = 8;
point = iv01;
ppm1 = 13;
ppm2 = 13;
},
{
align = round;
code = singlev;
point1 = iv01;
point2 = sv02;
stem = "OH: 124";
},
{
align = round;
code = singlev;
point1 = at01;
point2 = sv01;
stem = "OH: 124";
},
{
align = round;
code = interpolateh;
point = ih01;
point1 = lsb;
point2 = rsb;
}
);
};
vertWidth = 0;
width = 620;
},
{
anchors = (
{
name = bottom;
pos = (313,0);
},
{
name = ogonek;
pos = (580,0);
},
{
name = top;
pos = (325,700);
},
{
name = topleft;
pos = (20,700);
}
);
background = {
shapes = (
{
closed = 1;
nodes = (
(580,0,l,{
name = ab01;
}),
(580,138,l),
(250,138,l,{
name = sv03;
}),
(250,295,l),
(550,295,l,{
name = sv02;
}),
(550,425,l,{
name = iv01;
}),
(250,425,l),
(250,562,l,{
name = ih01;
}),
(580,562,l,{
name = sv01;
}),
(580,700,l),
(70,700,l,{
name = at01;
}),
(70,0,l)
);
}
);
};
layerId = "694BE86E-DB85-4EB8-AAFE-5A09896C9F48";
shapes = (
{
closed = 1;
nodes = (
(580,0,l,{
name = ab01;
}),
(580,138,l),
(250,138,l,{
name = sv03;
}),
(250,295,l),
(550,295,l,{
name = sv02;
}),
(550,425,l,{
name = iv01;
}),
(250,425,l),
(250,562,l,{
name = ih01;
}),
(580,562,l,{
name = sv01;
}),
(580,700,l),
(70,700,l,{
name = at01;
}),
(70,0,l)
);
}
);
userData = {
com.fontlab.ttcommands = (
{
code = alignt;
point = at01;
zone = uc;
},
{
code = alignb;
point = ab01;
zone = "b: 0";
},
{
align = center;
code = singlev;
point1 = ab01;
point2 = sv03;
stem = "BES: 138";
},
{
align = round;
code = interpolatev;
point = iv01;
point1 = at01;
point2 = ab01;
},
{
code = mdeltav;
delta = 8;
point = iv01;
ppm1 = 13;
ppm2 = 13;
},
{
code = mdeltav;
delta = -8;
point = iv01;
ppm1 = 26;
ppm2 = 27;
},
{
align = round;
code = singlev;
point1 = iv01;
point2 = sv02;
stem = "ond: 127";
},
{
align = round;
code = singlev;
point1 = at01;
point2 = sv01;
stem = "BES: 138";
},
{
align = round;
code = interpolateh;
point = ih01;
point1 = lsb;
point2 = rsb;
}
);
};
vertWidth = 0;
width = 625;
},
{
anchors = (
{
name = bottom;
pos = (308,0);
},
{
name = ogonek;
pos = (590,0);
},
{
name = top;
pos = (315,700);
},
{
name = topleft;
pos = (20,700);
}
);
background = {
shapes = (
{
closed = 1;
nodes = (
(590,0,l,{
name = ab01;
}),
(590,192,l),
(304,192,l,{
name = sv02;
}),
(304,274,l),
(560,274,l,{
name = iv02;
}),
(560,436,l,{
name = iv01;
}),
(304,436,l),
(304,508,l,{
name = ih01;
}),
(590,508,l,{
name = sv01;
}),
(590,700,l),
(40,700,l,{
name = at01;
}),
(40,0,l)
);
}
);
};
layerId = "BB51FDA8-DF56-46E5-B7C8-6101400FE38F";
shapes = (
{
closed = 1;
nodes = (
(590,0,l,{
name = ab01;
}),
(590,192,l),
(304,192,l,{
name = sv02;
}),
(304,274,l),
(560,274,l,{
name = iv02;
}),
(560,436,l,{
name = iv01;
}),
(304,436,l),
(304,508,l,{
name = ih01;
}),
(590,508,l,{
name = sv01;
}),
(590,700,l),
(40,700,l,{
name = at01;
}),
(40,0,l)
);
}
);
userData = {
com.fontlab.ttcommands = (
{
code = alignt;
point = at01;
zone = uc;
},
{
code = alignb;
point = ab01;
zone = "b: 0";
},
{
align = center;
code = singlev;
point1 = ab01;
point2 = sv02;
stem = "EP: 192";
},
{
align = round;
code = interpolatev;
point = iv01;
point1 = at01;
point2 = ab01;
},
{
code = mdeltav;
delta = 8;
point = iv01;
ppm1 = 28;
ppm2 = 29;
},
{
code = mdeltav;
delta = 8;
point = iv01;
ppm1 = 17;
ppm2 = 17;
},
{
align = round;
code = interpolatev;
point = iv02;
point1 = iv01;
point2 = ab01;
},
{
align = round;
code = singlev;
point1 = at01;
point2 = sv01;
stem = "EP: 192";
},
{
align = round;
code = interpolateh;
point = ih01;
point1 = lsb;
point2 = rsb;
}
);
};
vertWidth = 0;
width = 615;
}
);
unicode = 69;
},
{
glyphname = Eacute;
kernLeft = _H_right;
kernRight = _E_left;
lastChange = "2023-01-04 10:50:46 +0000";
layers = (
{
background = {
shapes = (
{
closed = 1;
nodes = (
(550,0,l,{
name = ab01;
}),
(550,82,l),
(194,82,l,{
name = sv03;
}),
(194,319,l),
(520,319,l,{
name = sv02;
}),
(520,401,l,{
name = iv01;
}),
(194,401,l),
(194,618,l,{
name = ih01;
}),
(550,618,l,{
name = sv01;
}),
(550,700,l),
(100,700,l,{
name = at01;
}),
(100,0,l)
);
},
{
closed = 1;
nodes = (
(365,750,l,{
name = ab01;
}),
(515,900,l),
(395,900,l,{
name = ih01;
}),
(285,750,l)
);
}
);
};
layerId = "153974D4-4CB0-4785-B412-2977049B2888";
shapes = (
{
ref = E;
},
{
pos = (265,0);
ref = acutecomb.case;
}
);
width = 610;
},
{
background = {
shapes = (
{
closed = 1;
nodes = (
(560,0,l,{
name = ab01;
}),
(560,104,l),
(210,104,l,{
name = sv03;
}),
(210,308,l),
(530,308,l,{
name = sv02;
}),
(530,412,l,{
name = iv01;
}),
(210,412,l),
(210,596,l,{
name = ih01;
}),
(560,596,l,{
name = sv01;
}),
(560,700,l),
(90,700,l,{
name = at01;
}),
(90,0,l)
);
},
{
closed = 1;
nodes = (
(375,750,l,{
name = ab01;
}),
(525,900,l),
(385,900,l,{
name = ih01;
}),
(275,750,l)
);
}
);
};
layerId = "519BD859-66F8-41ED-8E65-BDFB48F6DA60";
shapes = (
{
ref = E;
},
{
pos = (255,0);
ref = acutecomb.case;
}
);
width = 615;
},
{
background = {
shapes = (
{
closed = 1;
nodes = (
(570,0,l,{
name = ab01;
}),
(570,124,l),
(231,124,l,{
name = sv03;
}),
(231,300,l),
(540,300,l,{
name = sv02;
}),
(540,420,l,{
name = iv01;
}),
(231,420,l),
(231,576,l,{
name = ih01;
}),
(570,576,l,{
name = sv01;
}),
(570,700,l),
(80,700,l,{
name = at01;
}),
(80,0,l)
);
},
{
closed = 1;
nodes = (
(385,750,l,{
name = ih01;
}),
(535,900,l),
(375,900,l,{
name = sv01;
}),
(265,750,l)
);
}
);
};
layerId = "68905092-2787-4DB6-B22F-3BD17B98A53B";
shapes = (
{
ref = E;
},
{
pos = (245,0);
ref = acutecomb.case;
}
);
width = 620;
},
{
background = {
shapes = (
{
closed = 1;
nodes = (
(580,0,l,{
name = ab01;
}),
(580,138,l),
(250,138,l,{
name = sv03;
}),
(250,295,l),
(550,295,l,{
name = sv02;
}),
(550,425,l,{
name = iv01;
}),
(250,425,l),
(250,562,l,{
name = ih01;
}),
(580,562,l,{
name = sv01;
}),
(580,700,l),
(70,700,l,{
name = at01;
}),
(70,0,l)
);
},
{
closed = 1;
nodes = (
(390,750,l,{
name = ih01;
}),
(540,900,l),
(370,900,l,{
name = sv01;
}),
(260,750,l)
);
}
);
};
layerId = "694BE86E-DB85-4EB8-AAFE-5A09896C9F48";
shapes = (
{
ref = E;
},
{
pos = (239,0);
ref = acutecomb.case;
}
);
width = 625;
},
{
background = {
shapes = (
{
closed = 1;
nodes = (
(590,0,l,{
name = ab01;
}),
(590,192,l),
(304,192,l,{
name = sv02;
}),
(304,274,l),
(560,274,l,{
name = iv02;
}),
(560,436,l,{
name = iv01;
}),
(304,436,l),
(304,508,l,{
name = ih01;
}),
(590,508,l,{
name = sv01;
}),
(590,700,l),
(40,700,l,{
name = at01;
}),
(40,0,l)
);
},
{
closed = 1;
nodes = (
(400,750,l,{
name = ih01;
}),
(570,900,l),
(340,900,l,{
name = sv01;
}),
(230,750,l)
);
}
);
};
layerId = "BB51FDA8-DF56-46E5-B7C8-6101400FE38F";
shapes = (
{
ref = E;
},
{
pos = (210,0);
ref = acutecomb.case;
}
);
width = 615;
}
);
unicode = 201;
},
{
glyphname = Ecaron;
kernLeft = _H_right;
kernRight = _E_left;
lastChange = "2023-01-04 10:50:46 +0000";
layers = (
{
background = {
shapes = (
{
closed = 1;
nodes = (
(550,0,l,{
name = ab01;
}),
(550,82,l),
(194,82,l,{
name = sv03;
}),
(194,319,l),
(520,319,l,{
name = sv02;
}),
(520,401,l,{
name = iv01;
}),
(194,401,l),
(194,618,l,{
name = ih01;
}),
(550,618,l,{
name = sv01;
}),
(550,700,l),
(100,700,l,{
name = at01;
}),
(100,0,l)
);
},
{
closed = 1;
nodes = (
(220,580,l,{
name = ab01;
}),
(330,740,l,{
name = sv03;
}),
(260,740,l,{
name = sv02;
}),
(175,649,l,{
name = ih01;
}),
(90,740,l),
(20,740,l,{
name = sv01;
}),
(130,580,l)
);
}
);
};
layerId = "153974D4-4CB0-4785-B412-2977049B2888";
shapes = (
{
ref = E;
},
{
pos = (145,0);
ref = caroncomb.case;
}
);
width = 610;
},
{
background = {
shapes = (
{
closed = 1;
nodes = (
(560,0,l,{
name = ab01;
}),
(560,104,l),
(210,104,l,{
name = sv03;
}),
(210,308,l),
(530,308,l,{
name = sv02;
}),
(530,412,l,{
name = iv01;
}),
(210,412,l),
(210,596,l,{
name = ih01;
}),
(560,596,l,{
name = sv01;
}),
(560,700,l),
(90,700,l,{
name = at01;
}),
(90,0,l)
);
},
{
closed = 1;
nodes = (
(240,580,l,{
name = ab01;
}),
(350,740,l,{
name = sv03;
}),
(260,740,l,{
name = sv02;
}),
(185,660,l,{
name = ih01;
}),
(110,740,l),
(20,740,l,{
name = sv01;
}),
(130,580,l)
);
}
);
};
layerId = "519BD859-66F8-41ED-8E65-BDFB48F6DA60";
shapes = (
{
ref = E;
},
{
pos = (135,0);
ref = caroncomb.case;
}
);
width = 615;
},
{
background = {
shapes = (
{
closed = 1;
nodes = (
(570,0,l,{
name = ab01;
}),
(570,124,l),
(231,124,l,{
name = sv03;
}),
(231,300,l),
(540,300,l,{
name = sv02;
}),
(540,420,l,{
name = iv01;
}),
(231,420,l),
(231,576,l,{
name = ih01;
}),
(570,576,l,{
name = sv01;
}),
(570,700,l),
(80,700,l,{
name = at01;
}),
(80,0,l)
);
},
{
closed = 1;
nodes = (
(260,580,l,{
name = ab01;
}),
(370,740,l,{
name = sv03;
}),
(260,740,l,{
name = sv02;
}),
(195,670,l,{
name = ih01;
}),
(130,740,l),
(20,740,l,{
name = sv01;
}),
(130,580,l)
);
}
);
};
layerId = "68905092-2787-4DB6-B22F-3BD17B98A53B";
shapes = (
{
ref = E;
},
{
pos = (125,0);
ref = caroncomb.case;
}
);
width = 620;
},
{
background = {
shapes = (
{
closed = 1;
nodes = (
(580,0,l,{
name = ab01;
}),
(580,138,l),
(250,138,l,{
name = sv03;
}),
(250,295,l),
(550,295,l,{
name = sv02;
}),
(550,425,l,{
name = iv01;
}),
(250,425,l),
(250,562,l,{
name = ih01;
}),
(580,562,l,{
name = sv01;
}),
(580,700,l),
(70,700,l,{
name = at01;
}),
(70,0,l)
);
},
{
closed = 1;
nodes = (
(280,580,l,{
name = ab01;
}),
(390,740,l,{
name = sv03;
}),
(270,740,l,{
name = sv02;
}),
(205,670,l,{
name = ih01;
}),
(140,740,l),
(20,740,l,{
name = sv01;
}),
(130,580,l)
);
}
);
};
layerId = "694BE86E-DB85-4EB8-AAFE-5A09896C9F48";
shapes = (
{
ref = E;
},
{
pos = (115,0);
ref = caroncomb.case;
}
);
width = 625;
},
{
background = {
shapes = (
{
closed = 1;
nodes = (
(590,0,l,{
name = ab01;
}),
(590,192,l),
(304,192,l,{
name = sv02;
}),
(304,274,l),
(560,274,l,{
name = iv02;
}),
(560,436,l,{
name = iv01;
}),
(304,436,l),
(304,508,l,{
name = ih01;
}),
(590,508,l,{
name = sv01;
}),
(590,700,l),
(40,700,l,{
name = at01;
}),
(40,0,l)
);
},
{
closed = 1;
nodes = (
(330,580,l,{
name = ab01;
}),
(440,740,l,{
name = sv03;
}),
(290,740,l,{
name = sv02;
}),
(230,683,l,{
name = ih01;
}),
(170,740,l),
(20,740,l,{
name = sv01;
}),
(130,580,l)
);
}
);
};
layerId = "BB51FDA8-DF56-46E5-B7C8-6101400FE38F";
shapes = (
{
ref = E;
},
{
pos = (75,0);
ref = caroncomb.case;
}
);
width = 615;
}
);
unicode = 282;
},
{
glyphname = Ecircumflex;
kernLeft = _H_right;
kernRight = _E_left;
lastChange = "2023-01-04 10:50:46 +0000";
layers = (
{
background = {
shapes = (
{
closed = 1;
nodes = (
(550,0,l,{
name = ab01;
}),
(550,82,l),
(194,82,l,{
name = sv03;
}),
(194,319,l),
(520,319,l,{
name = sv02;
}),
(520,401,l,{
name = iv01;
}),
(194,401,l),
(194,618,l,{
name = ih01;
}),
(550,618,l,{
name = sv01;
}),
(550,700,l),
(100,700,l,{
name = at01;
}),
(100,0,l)
);
},
{
closed = 1;
nodes = (
(245,750,l,{
name = ab01;
}),
(325,830,l,{
name = ih01;
}),
(405,750,l),
(485,750,l,{
name = ab02;
}),
(374,900,l,{
name = sv02;
}),
(275,900,l,{
name = sv01;
}),
(165,750,l)
);
}
);
};
layerId = "153974D4-4CB0-4785-B412-2977049B2888";
shapes = (
{
ref = E;
},
{
pos = (145,0);
ref = circumflexcomb.case;
}
);
width = 610;
},
{
background = {
shapes = (
{
closed = 1;
nodes = (
(560,0,l,{
name = ab01;
}),
(560,104,l),
(210,104,l,{
name = sv03;
}),
(210,308,l),
(530,308,l,{
name = sv02;
}),
(530,412,l,{
name = iv01;
}),
(210,412,l),
(210,596,l,{
name = ih01;
}),
(560,596,l,{
name = sv01;
}),
(560,700,l),
(90,700,l,{
name = at01;
}),
(90,0,l)
);
},
{
closed = 1;
nodes = (
(255,750,l,{
name = ab01;
}),
(325,820,l,{
name = ih01;
}),
(395,750,l),
(495,750,l,{
name = ab02;
}),
(385,900,l,{
name = sv02;
}),
(265,900,l,{
name = sv01;
}),
(155,750,l)
);
}
);
};
layerId = "519BD859-66F8-41ED-8E65-BDFB48F6DA60";
shapes = (
{
ref = E;
},
{
pos = (135,0);
ref = circumflexcomb.case;
}
);
width = 615;
},
{
background = {
shapes = (
{
closed = 1;
nodes = (
(570,0,l,{
name = ab01;
}),
(570,124,l),
(231,124,l,{
name = sv03;
}),
(231,300,l),
(540,300,l,{
name = sv02;
}),
(540,420,l,{
name = iv01;
}),
(231,420,l),
(231,576,l,{
name = ih01;
}),
(570,576,l,{
name = sv01;
}),
(570,700,l),
(80,700,l,{
name = at01;
}),
(80,0,l)
);
},
{
closed = 1;
nodes = (
(265,750,l,{
name = ab01;
}),
(325,810,l,{
name = ih01;
}),
(385,750,l),
(505,750,l,{
name = ab02;
}),
(395,900,l,{
name = sv02;
}),
(255,900,l,{
name = sv01;
}),
(145,750,l)
);
}
);
};
layerId = "68905092-2787-4DB6-B22F-3BD17B98A53B";
shapes = (
{
ref = E;
},
{
pos = (125,0);
ref = circumflexcomb.case;
}
);
width = 620;
},
{
background = {
shapes = (
{
closed = 1;
nodes = (
(580,0,l,{
name = ab01;
}),
(580,138,l),
(250,138,l,{
name = sv03;
}),
(250,295,l),
(550,295,l,{
name = sv02;
}),
(550,425,l,{
name = iv01;
}),
(250,425,l),
(250,562,l,{
name = ih01;
}),
(580,562,l,{
name = sv01;
}),
(580,700,l),
(70,700,l,{
name = at01;
}),
(70,0,l)
);
},
{
closed = 1;
nodes = (
(265,750,l,{
name = ab01;
}),
(325,810,l,{
name = ih01;
}),
(385,750,l),
(515,750,l,{
name = ab02;
}),
(405,900,l,{
name = sv02;
}),
(245,900,l,{
name = sv01;
}),
(135,750,l)
);
}
);
};
layerId = "694BE86E-DB85-4EB8-AAFE-5A09896C9F48";
shapes = (
{
ref = E;
},
{
pos = (115,0);
ref = circumflexcomb.case;
}
);
width = 625;
},
{
background = {
shapes = (
{
closed = 1;
nodes = (
(590,0,l,{
name = ab01;
}),
(590,192,l),
(304,192,l,{
name = sv02;
}),
(304,274,l),
(560,274,l,{
name = iv02;
}),
(560,436,l,{
name = iv01;
}),
(304,436,l),
(304,508,l,{
name = ih01;
}),
(590,508,l,{
name = sv01;
}),
(590,700,l),
(40,700,l,{
name = at01;
}),
(40,0,l)
);
},
{
closed = 1;
nodes = (
(265,750,l,{
name = ab01;
}),
(315,795,l,{
name = ih01;
}),
(365,750,l),
(535,750,l,{
name = ab02;
}),
(425,900,l,{
name = sv02;
}),
(205,900,l,{
name = sv01;
}),
(95,750,l)
);
}
);
};
layerId = "BB51FDA8-DF56-46E5-B7C8-6101400FE38F";
shapes = (
{
ref = E;
},
{
pos = (75,0);
ref = circumflexcomb.case;
}
);
width = 615;
}
);
unicode = 202;
},
{
glyphname = Edieresis;
kernLeft = _H_right;
kernRight = _E_left;
lastChange = "2023-01-04 10:50:46 +0000";
layers = (
{
background = {
shapes = (
{
closed = 1;
nodes = (
(550,0,l,{
name = ab01;
}),
(550,82,l),
(194,82,l,{
name = sv03;
}),
(194,319,l),
(520,319,l,{
name = sv02;
}),
(520,401,l,{
name = iv01;
}),
(194,401,l),
(194,618,l,{
name = ih01;
}),
(550,618,l,{
name = sv01;
}),
(550,700,l),
(100,700,l,{
name = at01;
}),
(100,0,l)
);
},
{
closed = 1;
nodes = (
(248,765,o),
(275,792,o),
(275,825,cs),
(275,858,o),
(248,885,o),
(215,885,cs),
(182,885,o),
(155,858,o),
(155,825,cs),
(155,792,o),
(182,765,o),
(215,765,cs)
);
},
{
closed = 1;
nodes = (
(468,765,o),
(495,792,o),
(495,825,cs),
(495,858,o),
(468,885,o),
(435,885,cs),
(402,885,o),
(375,858,o),
(375,825,cs),
(375,792,o),
(402,765,o),
(435,765,cs)
);
}
);
};
layerId = "153974D4-4CB0-4785-B412-2977049B2888";
shapes = (
{
ref = E;
},
{
pos = (135,0);
ref = dieresiscomb.case;
}
);
width = 610;
},
{
background = {
shapes = (
{
closed = 1;
nodes = (
(560,0,l,{
name = ab01;
}),
(560,104,l),
(210,104,l,{
name = sv03;
}),
(210,308,l),
(530,308,l,{
name = sv02;
}),
(530,412,l,{
name = iv01;
}),
(210,412,l),
(210,596,l,{
name = ih01;
}),
(560,596,l,{
name = sv01;
}),
(560,700,l),
(90,700,l,{
name = at01;
}),
(90,0,l)
);
},
{
closed = 1;
nodes = (
(251,755,o),
(280,784,o),
(280,825,cs),
(280,866,o),
(251,895,o),
(210,895,cs),
(169,895,o),
(140,866,o),
(140,825,cs),
(140,784,o),
(169,755,o),
(210,755,cs)
);
},
{
closed = 1;
nodes = (
(481,755,o),
(510,784,o),
(510,825,cs),
(510,866,o),
(481,895,o),
(440,895,cs),
(399,895,o),
(370,866,o),
(370,825,cs),
(370,784,o),
(399,755,o),
(440,755,cs)
);
}
);
};
layerId = "519BD859-66F8-41ED-8E65-BDFB48F6DA60";
shapes = (
{
ref = E;
},
{
pos = (120,0);
ref = dieresiscomb.case;
}
);
width = 615;
},
{
background = {
shapes = (
{
closed = 1;
nodes = (
(570,0,l,{
name = ab01;
}),
(570,124,l),
(231,124,l,{
name = sv03;
}),
(231,300,l),
(540,300,l,{
name = sv02;
}),
(540,420,l,{
name = iv01;
}),
(231,420,l),
(231,576,l,{
name = ih01;
}),
(570,576,l,{
name = sv01;
}),
(570,700,l),
(80,700,l,{
name = at01;
}),
(80,0,l)
);
},
{
closed = 1;
nodes = (
(247,745,o),
(280,778,o),
(280,825,cs),
(280,872,o),
(247,905,o),
(200,905,cs),
(153,905,o),
(120,872,o),
(120,825,cs),
(120,778,o),
(153,745,o),
(200,745,cs)
);
},
{
closed = 1;
nodes = (
(487,745,o),
(520,778,o),
(520,825,cs),
(520,872,o),
(487,905,o),
(440,905,cs),
(393,905,o),
(360,872,o),
(360,825,cs),
(360,778,o),
(393,745,o),
(440,745,cs)
);
}
);
};
layerId = "68905092-2787-4DB6-B22F-3BD17B98A53B";
shapes = (
{
ref = E;
},
{
pos = (105,0);
ref = dieresiscomb.case;
}
);
width = 620;
},
{
background = {
shapes = (
{
closed = 1;
nodes = (
(580,0,l,{
name = ab01;
}),
(580,138,l),
(250,138,l,{
name = sv03;
}),
(250,295,l),
(550,295,l,{
name = sv02;
}),
(550,425,l,{
name = iv01;
}),
(250,425,l),
(250,562,l,{
name = ih01;
}),
(580,562,l,{
name = sv01;
}),
(580,700,l),
(70,700,l,{
name = at01;
}),
(70,0,l)
);
},
{
closed = 1;
nodes = (
(252,740,o),
(285,778,o),
(285,825,cs),
(285,872,o),
(252,910,o),
(195,910,cs),
(138,910,o),
(105,872,o),
(105,825,cs),
(105,778,o),
(138,740,o),
(195,740,cs)
);
},
{
closed = 1;
nodes = (
(502,740,o),
(535,778,o),
(535,825,cs),
(535,872,o),
(502,910,o),
(445,910,cs),
(388,910,o),
(355,872,o),
(355,825,cs),
(355,778,o),
(388,740,o),
(445,740,cs)
);
}
);
};
layerId = "694BE86E-DB85-4EB8-AAFE-5A09896C9F48";
shapes = (
{
ref = E;
},
{
pos = (90,0);
ref = dieresiscomb.case;
}
);
width = 625;
},
{
background = {
shapes = (
{
closed = 1;
nodes = (
(590,0,l,{
name = ab01;
}),
(590,192,l),
(304,192,l,{
name = sv02;
}),
(304,274,l),
(560,274,l,{
name = iv02;
}),
(560,436,l,{
name = iv01;
}),
(304,436,l),
(304,508,l,{
name = ih01;
}),
(590,508,l,{
name = sv01;
}),
(590,700,l),
(40,700,l,{
name = at01;
}),
(40,0,l)
);
},
{
closed = 1;
nodes = (
(247,740,o),
(290,774,o),
(290,825,cs),
(290,876,o),
(247,910,o),
(180,910,cs),
(113,910,o),
(70,876,o),
(70,825,cs),
(70,774,o),
(113,740,o),
(180,740,cs)
);
},
{
closed = 1;
nodes = (
(517,740,o),
(560,774,o),
(560,825,cs),
(560,876,o),
(517,910,o),
(450,910,cs),
(383,910,o),
(340,876,o),
(340,825,cs),
(340,774,o),
(383,740,o),
(450,740,cs)
);
}
);
};
layerId = "BB51FDA8-DF56-46E5-B7C8-6101400FE38F";
shapes = (
{
ref = E;
},
{
pos = (50,0);
ref = dieresiscomb.case;
}
);
width = 615;
}
);
unicode = 203;
},
{
glyphname = Edotaccent;
kernLeft = _H_right;
kernRight = _E_left;
lastChange = "2023-01-04 10:50:46 +0000";
layers = (
{
background = {
shapes = (
{
closed = 1;
nodes = (
(550,0,l,{
name = ab01;
}),
(550,82,l),
(194,82,l,{
name = sv03;
}),
(194,319,l),
(520,319,l,{
name = sv02;
}),
(520,401,l,{
name = iv01;
}),
(194,401,l),
(194,618,l,{
name = ih01;
}),
(550,618,l,{
name = sv01;
}),
(550,700,l),
(100,700,l,{
name = at01;
}),
(100,0,l)
);
},
{
closed = 1;
nodes = (
(115,600,o),
(140,625,o,{
name = sv01;
}),
(140,660,cs),
(140,695,o,{
name = ih01;
}),
(115,720,o,{
name = ih02;
}),
(80,720,cs,{
name = ih03;
}),
(45,720,o),
(20,695,o),
(20,660,cs),
(20,625,o),
(45,600,o),
(80,600,cs)
);
}
);
};
layerId = "153974D4-4CB0-4785-B412-2977049B2888";
shapes = (
{
ref = E;
},
{
pos = (243,0);
ref = dotaccentcomb.case;
}
);
width = 610;
},
{
background = {
shapes = (
{
closed = 1;
nodes = (
(560,0,l,{
name = ab01;
}),
(560,104,l),
(210,104,l,{
name = sv03;
}),
(210,308,l),
(530,308,l,{
name = sv02;
}),
(530,412,l,{
name = iv01;
}),
(210,412,l),
(210,596,l,{
name = ih01;
}),
(560,596,l,{
name = sv01;
}),
(560,700,l),
(90,700,l,{
name = at01;
}),
(90,0,l)
);
},
{
closed = 1;
nodes = (
(131,590,o),
(160,619,o,{
name = sv01;
}),
(160,660,cs),
(160,701,o,{
name = ih01;
}),
(131,730,o,{
name = ih02;
}),
(90,730,cs,{
name = ih03;
}),
(49,730,o),
(20,701,o),
(20,660,cs),
(20,619,o),
(49,590,o),
(90,590,cs)
);
}
);
};
layerId = "519BD859-66F8-41ED-8E65-BDFB48F6DA60";
shapes = (
{
ref = E;
},
{
pos = (231,0);
ref = dotaccentcomb.case;
}
);
width = 615;
},
{
background = {
shapes = (
{
closed = 1;
nodes = (
(570,0,l,{
name = ab01;
}),
(570,124,l),
(231,124,l,{
name = sv03;
}),
(231,300,l),
(540,300,l,{
name = sv02;
}),
(540,420,l,{
name = iv01;
}),
(231,420,l),
(231,576,l,{
name = ih01;
}),
(570,576,l,{
name = sv01;
}),
(570,700,l),
(80,700,l,{
name = at01;
}),
(80,0,l)
);
},
{
closed = 1;
nodes = (
(147,580,o),
(180,613,o,{
name = sv01;
}),
(180,660,cs),
(180,707,o,{
name = ih01;
}),
(147,740,o,{
name = ih02;
}),
(100,740,cs,{
name = ih03;
}),
(53,740,o),
(20,707,o),
(20,660,cs),
(20,613,o),
(53,580,o),
(100,580,cs)
);
}
);
};
layerId = "68905092-2787-4DB6-B22F-3BD17B98A53B";
shapes = (
{
ref = E;
},
{
pos = (219,0);
ref = dotaccentcomb.case;
}
);
width = 620;
},
{
background = {
shapes = (
{
closed = 1;
nodes = (
(580,0,l,{
name = ab01;
}),
(580,138,l),
(250,138,l,{
name = sv03;
}),
(250,295,l),
(550,295,l,{
name = sv02;
}),
(550,425,l,{
name = iv01;
}),
(250,425,l),
(250,562,l,{
name = ih01;
}),
(580,562,l,{
name = sv01;
}),
(580,700,l),
(70,700,l,{
name = at01;
}),
(70,0,l)
);
},
{
closed = 1;
nodes = (
(167,580,o),
(200,613,o,{
name = sv01;
}),
(200,660,cs),
(200,707,o,{
name = ih01;
}),
(167,740,o,{
name = ih02;
}),
(110,740,cs,{
name = ih03;
}),
(53,740,o),
(20,707,o),
(20,660,cs),
(20,613,o),
(53,580,o),
(110,580,cs)
);
}
);
};
layerId = "694BE86E-DB85-4EB8-AAFE-5A09896C9F48";
shapes = (
{
ref = E;
},
{
pos = (207,0);
ref = dotaccentcomb.case;
}
);
width = 625;
},
{
background = {
shapes = (
{
closed = 1;
nodes = (
(590,0,l,{
name = ab01;
}),
(590,192,l),
(304,192,l,{
name = sv02;
}),
(304,274,l),
(560,274,l,{
name = iv02;
}),
(560,436,l,{
name = iv01;
}),
(304,436,l),
(304,508,l,{
name = ih01;
}),
(590,508,l,{
name = sv01;
}),
(590,700,l),
(40,700,l,{
name = at01;
}),
(40,0,l)
);
},
{
closed = 1;
nodes = (
(220,580,o),
(260,611,o,{
name = sv01;
}),
(260,660,cs),
(260,709,o,{
name = ih01;
}),
(220,740,o,{
name = ih02;
}),
(140,740,cs,{
name = ih03;
}),
(60,740,o),
(20,709,o),
(20,660,cs),
(20,611,o),
(60,580,o),
(140,580,cs)
);
}
);
};
layerId = "BB51FDA8-DF56-46E5-B7C8-6101400FE38F";
shapes = (
{
ref = E;
},
{
pos = (165,0);
ref = dotaccentcomb.case;
}
);
width = 615;
}
);
unicode = 278;
},
{
glyphname = Egrave;
kernLeft = _H_right;
kernRight = _E_left;
lastChange = "2023-01-04 10:50:46 +0000";
layers = (
{
background = {
shapes = (
{
closed = 1;
nodes = (
(550,0,l,{
name = ab01;
}),
(550,82,l),
(194,82,l,{
name = sv03;
}),
(194,319,l),
(520,319,l,{
name = sv02;
}),
(520,401,l,{
name = iv01;
}),
(194,401,l),
(194,618,l,{
name = ih01;
}),
(550,618,l,{
name = sv01;
}),
(550,700,l),
(100,700,l,{
name = at01;
}),
(100,0,l)
);
},
{
closed = 1;
nodes = (
(365,750,l,{
name = ab01;
}),
(254,900,l,{
name = ih01;
}),
(135,900,l,{
name = sv01;
}),
(285,750,l)
);
}
);
};
layerId = "153974D4-4CB0-4785-B412-2977049B2888";
shapes = (
{
ref = E;
},
{
pos = (115,0);
ref = gravecomb.case;
}
);
width = 610;
},
{
background = {
shapes = (
{
closed = 1;
nodes = (
(560,0,l,{
name = ab01;
}),
(560,104,l),
(210,104,l,{
name = sv03;
}),
(210,308,l),
(530,308,l,{
name = sv02;
}),
(530,412,l,{
name = iv01;
}),
(210,412,l),
(210,596,l,{
name = ih01;
}),
(560,596,l,{
name = sv01;
}),
(560,700,l),
(90,700,l,{
name = at01;
}),
(90,0,l)
);
},
{
closed = 1;
nodes = (
(375,750,l,{
name = ab01;
}),
(265,900,l,{
name = ih01;
}),
(125,900,l,{
name = sv01;
}),
(275,750,l)
);
}
);
};
layerId = "519BD859-66F8-41ED-8E65-BDFB48F6DA60";
shapes = (
{
ref = E;
},
{
pos = (105,0);
ref = gravecomb.case;
}
);
width = 615;
},
{
background = {
shapes = (
{
closed = 1;
nodes = (
(570,0,l,{
name = ab01;
}),
(570,124,l),
(231,124,l,{
name = sv03;
}),
(231,300,l),
(540,300,l,{
name = sv02;
}),
(540,420,l,{
name = iv01;
}),
(231,420,l),
(231,576,l,{
name = ih01;
}),
(570,576,l,{
name = sv01;
}),
(570,700,l),
(80,700,l,{
name = at01;
}),
(80,0,l)
);
},
{
closed = 1;
nodes = (
(385,750,l,{
name = ab01;
}),
(275,900,l),
(115,900,l,{
name = sv01;
}),
(265,750,l,{
name = ih01;
})
);
}
);
};
layerId = "68905092-2787-4DB6-B22F-3BD17B98A53B";
shapes = (
{
ref = E;
},
{
pos = (95,0);
ref = gravecomb.case;
}
);
width = 620;
},
{
background = {
shapes = (
{
closed = 1;
nodes = (
(580,0,l,{
name = ab01;
}),
(580,138,l),
(250,138,l,{
name = sv03;
}),
(250,295,l),
(550,295,l,{
name = sv02;
}),
(550,425,l,{
name = iv01;
}),
(250,425,l),
(250,562,l,{
name = ih01;
}),
(580,562,l,{
name = sv01;
}),
(580,700,l),
(70,700,l,{
name = at01;
}),
(70,0,l)
);
},
{
closed = 1;
nodes = (
(390,750,l,{
name = ab01;
}),
(280,900,l),
(110,900,l,{
name = sv01;
}),
(260,750,l,{
name = ih01;
})
);
}
);
};
layerId = "694BE86E-DB85-4EB8-AAFE-5A09896C9F48";
shapes = (
{
ref = E;
},
{
pos = (90,0);
ref = gravecomb.case;
}
);
width = 625;
},
{
background = {
shapes = (
{
closed = 1;
nodes = (
(590,0,l,{
name = ab01;
}),
(590,192,l),
(304,192,l,{
name = sv02;
}),
(304,274,l),
(560,274,l,{
name = iv02;
}),
(560,436,l,{
name = iv01;
}),
(304,436,l),
(304,508,l,{
name = ih01;
}),
(590,508,l,{
name = sv01;
}),
(590,700,l),
(40,700,l,{
name = at01;
}),
(40,0,l)
);
},
{
closed = 1;
nodes = (
(400,750,l,{
name = ab01;
}),
(290,900,l),
(60,900,l,{
name = sv01;
}),
(230,750,l,{
name = ih01;
})
);
}
);
};
layerId = "BB51FDA8-DF56-46E5-B7C8-6101400FE38F";
shapes = (
{
ref = E;
},
{
pos = (30,0);
ref = gravecomb.case;
}
);
width = 615;
}
);
unicode = 200;
},
{
glyphname = Emacron;
kernLeft = _H_right;
kernRight = _E_left;
lastChange = "2023-01-04 10:50:46 +0000";
layers = (
{
background = {
shapes = (
{
closed = 1;
nodes = (
(550,0,l,{
name = ab01;
}),
(550,82,l),
(194,82,l,{
name = sv03;
}),
(194,319,l),
(520,319,l,{
name = sv02;
}),
(520,401,l,{
name = iv01;
}),
(194,401,l),
(194,618,l,{
name = ih01;
}),
(550,618,l,{
name = sv01;
}),
(550,700,l),
(100,700,l,{
name = at01;
}),
(100,0,l)
);
},
{
closed = 1;
nodes = (
(280,626,l,{
name = av01;
}),
(280,694,l,{
name = sv01;
}),
(20,694,l,{
name = ih01;
}),
(20,626,l)
);
}
);
};
layerId = "153974D4-4CB0-4785-B412-2977049B2888";
shapes = (
{
ref = E;
},
{
pos = (165,0);
ref = macroncomb.case;
}
);
width = 610;
},
{
background = {
shapes = (
{
closed = 1;
nodes = (
(560,0,l,{
name = ab01;
}),
(560,104,l),
(210,104,l,{
name = sv03;
}),
(210,308,l),
(530,308,l,{
name = sv02;
}),
(530,412,l,{
name = iv01;
}),
(210,412,l),
(210,596,l,{
name = ih01;
}),
(560,596,l,{
name = sv01;
}),
(560,700,l),
(90,700,l,{
name = at01;
}),
(90,0,l)
);
},
{
closed = 1;
nodes = (
(300,618,l,{
name = av01;
}),
(300,702,l,{
name = sv01;
}),
(20,702,l,{
name = ih01;
}),
(20,618,l)
);
}
);
};
layerId = "519BD859-66F8-41ED-8E65-BDFB48F6DA60";
shapes = (
{
ref = E;
},
{
pos = (155,0);
ref = macroncomb.case;
}
);
width = 615;
},
{
background = {
shapes = (
{
closed = 1;
nodes = (
(570,0,l,{
name = ab01;
}),
(570,124,l),
(231,124,l,{
name = sv03;
}),
(231,300,l),
(540,300,l,{
name = sv02;
}),
(540,420,l,{
name = iv01;
}),
(231,420,l),
(231,576,l,{
name = ih01;
}),
(570,576,l,{
name = sv01;
}),
(570,700,l),
(80,700,l,{
name = at01;
}),
(80,0,l)
);
},
{
closed = 1;
nodes = (
(320,615,l,{
name = av01;
}),
(320,705,l,{
name = sv01;
}),
(20,705,l,{
name = ih01;
}),
(20,615,l)
);
}
);
};
layerId = "68905092-2787-4DB6-B22F-3BD17B98A53B";
shapes = (
{
ref = E;
},
{
pos = (145,15);
ref = macroncomb.case;
}
);
width = 620;
},
{
background = {
shapes = (
{
closed = 1;
nodes = (
(580,0,l,{
name = ab01;
}),
(580,138,l),
(250,138,l,{
name = sv03;
}),
(250,295,l),
(550,295,l,{
name = sv02;
}),
(550,425,l,{
name = iv01;
}),
(250,425,l),
(250,562,l,{
name = ih01;
}),
(580,562,l,{
name = sv01;
}),
(580,700,l),
(70,700,l,{
name = at01;
}),
(70,0,l)
);
},
{
closed = 1;
nodes = (
(340,607,l,{
name = av01;
}),
(340,713,l,{
name = sv01;
}),
(20,713,l,{
name = ih01;
}),
(20,607,l)
);
}
);
};
layerId = "694BE86E-DB85-4EB8-AAFE-5A09896C9F48";
shapes = (
{
ref = E;
},
{
pos = (140,0);
ref = macroncomb.case;
}
);
width = 625;
},
{
background = {
shapes = (
{
closed = 1;
nodes = (
(590,0,l,{
name = ab01;
}),
(590,192,l),
(304,192,l,{
name = sv02;
}),
(304,274,l),
(560,274,l,{
name = iv02;
}),
(560,436,l,{
name = iv01;
}),
(304,436,l),
(304,508,l,{
name = ih01;
}),
(590,508,l,{
name = sv01;
}),
(590,700,l),
(40,700,l,{
name = at01;
}),
(40,0,l)
);
},
{
closed = 1;
nodes = (
(360,597,l,{
name = av01;
}),
(360,723,l,{
name = sv01;
}),
(20,723,l,{
name = ih01;
}),
(20,597,l)
);
}
);
};
layerId = "BB51FDA8-DF56-46E5-B7C8-6101400FE38F";
shapes = (
{
ref = E;
},
{
pos = (120,0);
ref = macroncomb.case;
}
);
width = 615;
}
);
unicode = 274;
},
{
glyphname = F;
kernLeft = _H_right;
lastChange = "2023-01-04 10:50:46 +0000";
layers = (
{
anchors = (
{
name = bottom;
pos = (298,0);
},
{
name = top;
pos = (298,700);
}
);
background = {
shapes = (
{
closed = 1;
nodes = (
(194,0,l,{
name = ab01;
}),
(194,309,l),
(520,309,l,{
name = sv02;
}),
(520,391,l,{
name = iv01;
}),
(194,391,l),
(194,618,l,{
name = ih01;
}),
(550,618,l,{
name = sv01;
}),
(550,700,l),
(100,700,l,{
name = at01;
}),
(100,0,l)
);
}
);
};
layerId = "153974D4-4CB0-4785-B412-2977049B2888";
shapes = (
{
closed = 1;
nodes = (
(194,0,l,{
name = ab01;
}),
(194,309,l),
(520,309,l,{
name = sv02;
}),
(520,391,l,{
name = iv01;
}),
(194,391,l),
(194,618,l,{
name = ih01;
}),
(550,618,l,{
name = sv01;
}),
(550,700,l),
(100,700,l,{
name = at01;
}),
(100,0,l)
);
}
);
userData = {
com.fontlab.ttcommands = (
{
code = alignt;
point = at01;
zone = uc;
},
{
code = alignb;
point = ab01;
zone = "b: 0";
},
{
align = round;
code = interpolatev;
point = iv01;
point1 = at01;
point2 = ab01;
},
{
align = center;
code = singlev;
point1 = iv01;
point2 = sv02;
stem = "OH: 82";
},
{
align = round;
code = singlev;
point1 = at01;
point2 = sv01;
stem = "OH: 82";
},
{
align = round;
code = interpolateh;
point = ih01;
point1 = lsb;
point2 = rsb;
}
);
};
vertWidth = 0;
width = 595;
},
{
anchors = (
{
name = bottom;
pos = (298,0);
},
{
name = top;
pos = (298,700);
}
);
background = {
shapes = (
{
closed = 1;
nodes = (
(210,0,l,{
name = ab01;
}),
(210,293,l),
(525,293,l,{
name = sv02;
}),
(525,397,l,{
name = iv01;
}),
(210,397,l),
(210,596,l,{
name = ih01;
}),
(555,596,l,{
name = sv01;
}),
(555,700,l),
(90,700,l,{
name = at01;
}),
(90,0,l)
);
}
);
};
layerId = "519BD859-66F8-41ED-8E65-BDFB48F6DA60";
shapes = (
{
closed = 1;
nodes = (
(210,0,l,{
name = ab01;
}),
(210,293,l),
(525,293,l,{
name = sv02;
}),
(525,397,l,{
name = iv01;
}),
(210,397,l),
(210,596,l,{
name = ih01;
}),
(555,596,l,{
name = sv01;
}),
(555,700,l),
(90,700,l,{
name = at01;
}),
(90,0,l)
);
}
);
userData = {
com.fontlab.ttcommands = (
{
code = alignt;
point = at01;
zone = uc;
},
{
code = alignb;
point = ab01;
zone = "b: 0";
},
{
align = round;
code = interpolatev;
point = iv01;
point1 = at01;
point2 = ab01;
},
{
align = center;
code = singlev;
point1 = iv01;
point2 = sv02;
stem = "OH: 104";
},
{
align = round;
code = singlev;
point1 = at01;
point2 = sv01;
stem = "OH: 104";
},
{
align = round;
code = interpolateh;
point = ih01;
point1 = lsb;
point2 = rsb;
}
);
};
vertWidth = 0;
width = 595;
},
{
anchors = (
{
name = bottom;
pos = (298,0);
},
{
name = top;
pos = (298,700);
}
);
background = {
shapes = (
{
closed = 1;
nodes = (
(230,0,l,{
name = ab01;
}),
(230,280,l),
(530,280,l,{
name = sv02;
}),
(530,400,l,{
name = iv01;
}),
(230,400,l),
(230,576,l,{
name = ih01;
}),
(560,576,l,{
name = sv01;
}),
(560,700,l),
(80,700,l,{
name = at01;
}),
(80,0,l)
);
}
);
};
layerId = "68905092-2787-4DB6-B22F-3BD17B98A53B";
shapes = (
{
closed = 1;
nodes = (
(230,0,l,{
name = ab01;
}),
(230,280,l),
(530,280,l,{
name = sv02;
}),
(530,400,l,{
name = iv01;
}),
(230,400,l),
(230,576,l,{
name = ih01;
}),
(560,576,l,{
name = sv01;
}),
(560,700,l),
(80,700,l,{
name = at01;
}),
(80,0,l)
);
}
);
userData = {
com.fontlab.ttcommands = (
{
code = alignt;
point = at01;
zone = uc;
},
{
code = alignb;
point = ab01;
zone = "b: 0";
},
{
align = round;
code = interpolatev;
point = iv01;
point1 = at01;
point2 = ab01;
},
{
align = center;
code = singlev;
point1 = iv01;
point2 = sv02;
stem = "OH: 124";
},
{
align = round;
code = singlev;
point1 = at01;
point2 = sv01;
stem = "OH: 124";
},
{
align = round;
code = interpolateh;
point = ih01;
point1 = lsb;
point2 = rsb;
}
);
};
vertWidth = 0;
width = 595;
},
{
anchors = (
{
name = bottom;
pos = (298,0);
},
{
name = top;
pos = (298,700);
}
);
background = {
shapes = (
{
closed = 1;
nodes = (
(250,0,l,{
name = ab01;
}),
(250,270,l),
(535,270,l,{
name = sv02;
}),
(535,400,l,{
name = iv01;
}),
(250,400,l),
(250,562,l,{
name = ih01;
}),
(565,562,l,{
name = sv01;
}),
(565,700,l),
(70,700,l,{
name = at01;
}),
(70,0,l)
);
}
);
};
layerId = "694BE86E-DB85-4EB8-AAFE-5A09896C9F48";
shapes = (
{
closed = 1;
nodes = (
(250,0,l,{
name = ab01;
}),
(250,270,l),
(535,270,l,{
name = sv02;
}),
(535,400,l,{
name = iv01;
}),
(250,400,l),
(250,562,l,{
name = ih01;
}),
(565,562,l,{
name = sv01;
}),
(565,700,l),
(70,700,l,{
name = at01;
}),
(70,0,l)
);
}
);
userData = {
com.fontlab.ttcommands = (
{
code = alignt;
point = at01;
zone = uc;
},
{
code = alignb;
point = ab01;
zone = "b: 0";
},
{
align = round;
code = interpolatev;
point = iv01;
point1 = at01;
point2 = ab01;
},
{
align = center;
code = singlev;
point1 = iv01;
point2 = sv02;
stem = "ond: 127";
},
{
align = round;
code = singlev;
point1 = at01;
point2 = sv01;
stem = "BES: 138";
},
{
align = round;
code = interpolateh;
point = ih01;
point1 = lsb;
point2 = rsb;
}
);
};
vertWidth = 0;
width = 595;
},
{
anchors = (
{
name = bottom;
pos = (290,0);
},
{
name = top;
pos = (290,700);
}
);
background = {
shapes = (
{
closed = 1;
nodes = (
(304,0,l,{
name = ab01;
}),
(304,225,l),
(535,225,l,{
name = sv02;
}),
(535,407,l,{
name = iv01;
}),
(304,407,l),
(304,508,l,{
name = ih01;
}),
(565,508,l,{
name = sv01;
}),
(565,700,l),
(40,700,l,{
name = at01;
}),
(40,0,l)
);
}
);
};
layerId = "BB51FDA8-DF56-46E5-B7C8-6101400FE38F";
shapes = (
{
closed = 1;
nodes = (
(304,0,l,{
name = ab01;
}),
(304,225,l),
(535,225,l,{
name = sv02;
}),
(535,407,l,{
name = iv01;
}),
(304,407,l),
(304,508,l,{
name = ih01;
}),
(565,508,l,{
name = sv01;
}),
(565,700,l),
(40,700,l,{
name = at01;
}),
(40,0,l)
);
}
);
userData = {
com.fontlab.ttcommands = (
{
code = alignt;
point = at01;
zone = uc;
},
{
code = alignb;
point = ab01;
zone = "b: 0";
},
{
align = round;
code = interpolatev;
point = iv01;
point1 = at01;
point2 = ab01;
},
{
align = center;
code = singlev;
point1 = iv01;
point2 = sv02;
stem = "S: 184";
},
{
align = round;
code = singlev;
point1 = at01;
point2 = sv01;
stem = "EP: 192";
},
{
align = round;
code = interpolateh;
point = ih01;
point1 = lsb;
point2 = rsb;
}
);
};
vertWidth = 0;
width = 580;
}
);
unicode = 70;
},
{
glyphname = G;
kernLeft = _O_right;
kernRight = _O_left;
lastChange = "2023-01-04 10:50:46 +0000";
layers = (
{
anchors = (
{
name = bottom;
pos = (353,0);
},
{
name = top;
pos = (353,700);
}
);
background = {
shapes = (
{
closed = 1;
nodes = (
(541,-10,o),
(650,109,o),
(650,325,cs,{
name = iv02;
}),
(650,355,l,{
name = sv03;
}),
(385,355,l),
(385,275,l,{
name = sv02;
}),
(560,275,l),
(549,132,o),
(476,74,o,{
name = sv01;
}),
(365,74,cs,{
name = iv01;
}),
(266,74,o),
(160,143,o,{
name = at01;
}),
(160,345,cs),
(160,365,ls),
(160,557,o,{
name = ih01;
}),
(256,626,o,{
name = ih02;
}),
(365,626,cs,{
name = ih03;
}),
(437,626,o),
(506,588,o),
(535,500,c,{
name = hr01;
}),
(635,500,l),
(603,631,o),
(501,710,o),
(365,710,cs),
(200,710,o),
(60,604,o),
(60,365,cs),
(60,345,ls),
(60,97,o),
(200,-10,o),
(365,-10,cs)
);
}
);
};
layerId = "153974D4-4CB0-4785-B412-2977049B2888";
shapes = (
{
closed = 1;
nodes = (
(541,-10,o),
(650,109,o),
(650,325,cs,{
name = iv02;
}),
(650,355,l,{
name = sv03;
}),
(385,355,l),
(385,275,l,{
name = sv02;
}),
(560,275,l),
(549,132,o),
(476,74,o,{
name = sv01;
}),
(365,74,cs,{
name = iv01;
}),
(266,74,o),
(160,143,o,{
name = at01;
}),
(160,345,cs),
(160,365,ls),
(160,557,o,{
name = ih01;
}),
(256,626,o,{
name = ih02;
}),
(365,626,cs,{
name = ih03;
}),
(437,626,o),
(506,588,o),
(535,500,c,{
name = hr01;
}),
(635,500,l),
(603,631,o),
(501,710,o),
(365,710,cs),
(200,710,o),
(60,604,o),
(60,365,cs),
(60,345,ls),
(60,97,o),
(200,-10,o),
(365,-10,cs)
);
}
);
userData = {
com.fontlab.ttcommands = (
{
code = alignt;
point = at01;
zone = uc;
},
{
code = alignb;
point = ih01;
zone = "b: 0";
},
{
align = round;
code = interpolatev;
point = iv02;
point1 = at01;
point2 = ih01;
},
{
align = double;
code = singlev;
point1 = iv02;
point2 = sv03;
stem = "cyr: 78";
},
{
align = round;
code = singlev;
point1 = ih01;
point2 = sv02;
stem = "OH: 82";
},
{
align = round;
code = singlev;
point1 = at01;
point2 = sv01;
stem = "OH: 82";
},
{
align = round;
code = interpolatev;
point = iv01;
point1 = at01;
point2 = ih01;
},
{
align = round;
code = interpolateh;
point = ih01;
point1 = ih02;
point2 = ih03;
}
);
};
vertWidth = 0;
width = 705;
},
{
anchors = (
{
name = bottom;
pos = (358,0);
},
{
name = top;
pos = (358,700);
}
);
background = {
shapes = (
{
closed = 1;
nodes = (
(553,-11,o),
(665,101,o),
(665,325,cs,{
name = iv02;
}),
(665,365,l,{
name = sv03;
}),
(390,365,l),
(390,265,l,{
name = sv02;
}),
(549,265,l),
(538,148,o),
(474,95,o,{
name = sv01;
}),
(370,95,cs,{
name = iv01;
}),
(260,95,o),
(181,174,o,{
name = at01;
}),
(181,345,cs),
(181,365,ls),
(181,529,o,{
name = ih01;
}),
(257,605,o,{
name = ih02;
}),
(370,605,cs,{
name = ih03;
}),
(430,605,o),
(491,578,o),
(520,490,c,{
name = hr01;
}),
(650,490,l),
(619,634,o),
(515,711,o),
(370,711,cs),
(181,711,o),
(55,585,o),
(55,365,cs),
(55,345,ls),
(55,110,o),
(177,-11,o),
(370,-11,cs)
);
}
);
};
layerId = "519BD859-66F8-41ED-8E65-BDFB48F6DA60";
shapes = (
{
closed = 1;
nodes = (
(553,-11,o),
(665,101,o),
(665,325,cs,{
name = iv02;
}),
(665,365,l,{
name = sv03;
}),
(390,365,l),
(390,265,l,{
name = sv02;
}),
(549,265,l),
(538,148,o),
(474,95,o,{
name = sv01;
}),
(370,95,cs,{
name = iv01;
}),
(260,95,o),
(181,174,o,{
name = at01;
}),
(181,345,cs),
(181,365,ls),
(181,529,o,{
name = ih01;
}),
(257,605,o,{
name = ih02;
}),
(370,605,cs,{
name = ih03;
}),
(430,605,o),
(491,578,o),
(520,490,c,{
name = hr01;
}),
(650,490,l),
(619,634,o),
(515,711,o),
(370,711,cs),
(181,711,o),
(55,585,o),
(55,365,cs),
(55,345,ls),
(55,110,o),
(177,-11,o),
(370,-11,cs)
);
}
);
userData = {
com.fontlab.ttcommands = (
{
code = alignt;
point = at01;
zone = uc;
},
{
code = alignb;
point = ih01;
zone = "b: 0";
},
{
align = round;
code = interpolatev;
point = iv02;
point1 = at01;
point2 = ih01;
},
{
align = double;
code = singlev;
point1 = iv02;
point2 = sv03;
stem = "asg: 96";
},
{
align = round;
code = singlev;
point1 = ih01;
point2 = sv02;
stem = "OH: 104";
},
{
align = round;
code = singlev;
point1 = at01;
point2 = sv01;
stem = "OH: 104";
},
{
align = round;
code = interpolatev;
point = iv01;
point1 = at01;
point2 = ih01;
},
{
align = round;
code = interpolateh;
point = ih01;
point1 = ih02;
point2 = ih03;
}
);
};
vertWidth = 0;
width = 715;
},
{
anchors = (
{
name = bottom;
pos = (363,0);
},
{
name = top;
pos = (363,700);
}
);
background = {
shapes = (
{
closed = 1;
nodes = (
(559,-12,o),
(680,93,o),
(680,325,cs,{
name = iv02;
}),
(680,365,l,{
name = sv03;
}),
(395,365,l),
(395,261,l,{
name = sv02;
}),
(537,261,l),
(529,158,o),
(461,115,o,{
name = sv01;
}),
(375,115,cs,{
name = iv01;
}),
(290,115,o),
(206,172,o,{
name = ih01;
}),
(206,345,cs),
(206,365,ls),
(206,528,o,{
name = ab01;
}),
(281,585,o,{
name = ih02;
}),
(370,585,cs,{
name = ih03;
}),
(425,585,o),
(480,565,o),
(509,480,c,{
name = hr01;
}),
(665,480,l),
(638,636,o),
(530,712,o),
(370,712,cs),
(199,712,o),
(50,608,o),
(50,365,cs),
(50,345,ls),
(50,91,o),
(188,-12,o),
(375,-12,cs)
);
}
);
};
layerId = "68905092-2787-4DB6-B22F-3BD17B98A53B";
shapes = (
{
closed = 1;
nodes = (
(559,-12,o),
(680,93,o),
(680,325,cs,{
name = iv02;
}),
(680,365,l,{
name = sv03;
}),
(395,365,l),
(395,261,l,{
name = sv02;
}),
(537,261,l),
(529,158,o),
(461,115,o,{
name = sv01;
}),
(375,115,cs,{
name = iv01;
}),
(290,115,o),
(206,172,o,{
name = ih01;
}),
(206,345,cs),
(206,365,ls),
(206,528,o,{
name = ab01;
}),
(281,585,o,{
name = ih02;
}),
(370,585,cs,{
name = ih03;
}),
(425,585,o),
(480,565,o),
(509,480,c,{
name = hr01;
}),
(665,480,l),
(638,636,o),
(530,712,o),
(370,712,cs),
(199,712,o),
(50,608,o),
(50,365,cs),
(50,345,ls),
(50,91,o),
(188,-12,o),
(375,-12,cs)
);
}
);
userData = {
com.fontlab.ttcommands = (
{
code = alignt;
point = ih01;
zone = uc;
},
{
code = alignb;
point = ab01;
zone = "b: 0";
},
{
align = round;
code = interpolatev;
point = iv02;
point1 = ih01;
point2 = ab01;
},
{
align = double;
code = singlev;
point1 = iv02;
point2 = sv03;
stem = "cyr: 106";
},
{
align = round;
code = singlev;
point1 = ab01;
point2 = sv02;
stem = "OH: 124";
},
{
align = round;
code = singlev;
point1 = ih01;
point2 = sv01;
stem = "OH: 124";
},
{
align = round;
code = interpolatev;
point = iv01;
point1 = ih01;
point2 = ab01;
},
{
align = round;
code = interpolateh;
point = ih01;
point1 = ih02;
point2 = ih03;
}
);
};
vertWidth = 0;
width = 725;
},
{
anchors = (
{
name = bottom;
pos = (368,0);
},
{
name = top;
pos = (368,700);
}
);
background = {
shapes = (
{
closed = 1;
nodes = (
(563,-13,o),
(695,85,o),
(695,325,cs,{
name = iv02;
}),
(695,372,l,{
name = sv03;
}),
(400,372,l),
(400,258,l,{
name = sv02;
}),
(528,258,l),
(525,174,o),
(453,137,o,{
name = sv01;
}),
(380,137,cs,{
name = iv01;
}),
(292,137,o),
(231,196,o,{
name = ih01;
}),
(231,345,cs),
(231,365,ls),
(231,514,o,{
name = ab01;
}),
(290,563,o,{
name = ih02;
}),
(375,563,cs,{
name = ih03;
}),
(422,563,o),
(475,545,o),
(494,470,c,{
name = hr01;
}),
(680,470,l),
(659,641,o),
(534,713,o),
(375,713,cs),
(194,713,o),
(45,607,o),
(45,365,cs),
(45,345,ls),
(45,91,o),
(189,-13,o),
(380,-13,cs)
);
}
);
};
layerId = "694BE86E-DB85-4EB8-AAFE-5A09896C9F48";
shapes = (
{
closed = 1;
nodes = (
(563,-13,o),
(695,85,o),
(695,325,cs,{
name = iv02;
}),
(695,372,l,{
name = sv03;
}),
(400,372,l),
(400,258,l,{
name = sv02;
}),
(528,258,l),
(525,174,o),
(453,137,o,{
name = sv01;
}),
(380,137,cs,{
name = iv01;
}),
(292,137,o),
(231,196,o,{
name = ih01;
}),
(231,345,cs),
(231,365,ls),
(231,514,o,{
name = ab01;
}),
(290,563,o,{
name = ih02;
}),
(375,563,cs,{
name = ih03;
}),
(422,563,o),
(475,545,o),
(494,470,c,{
name = hr01;
}),
(680,470,l),
(659,641,o),
(534,713,o),
(375,713,cs),
(194,713,o),
(45,607,o),
(45,365,cs),
(45,345,ls),
(45,91,o),
(189,-13,o),
(380,-13,cs)
);
}
);
userData = {
com.fontlab.ttcommands = (
{
code = alignt;
point = ih01;
zone = uc;
},
{
code = alignb;
point = ab01;
zone = "b: 0";
},
{
align = round;
code = interpolatev;
point = iv02;
point1 = ih01;
point2 = ab01;
},
{
align = double;
code = singlev;
point1 = iv02;
point2 = sv03;
stem = "cyr: 114";
},
{
align = round;
code = singlev;
point1 = ab01;
point2 = sv02;
stem = "OH: 148";
},
{
align = round;
code = singlev;
point1 = ih01;
point2 = sv01;
stem = "OH: 148";
},
{
align = round;
code = interpolatev;
point = iv01;
point1 = ih01;
point2 = ab01;
},
{
align = round;
code = interpolateh;
point = ih01;
point1 = ih02;
point2 = ih03;
}
);
};
vertWidth = 0;
width = 735;
},
{
anchors = (
{
name = bottom;
pos = (385,0);
},
{
name = top;
pos = (385,700);
}
);
background = {
shapes = (
{
closed = 1;
nodes = (
(571,-15,o),
(740,84,o),
(740,325,cs,{
name = iv01;
}),
(740,386,l,{
name = sv02;
}),
(415,386,l),
(415,244,l,{
name = sv01;
}),
(488,244,l),
(473,217,o),
(453,199,o,{
name = ih01;
}),
(405,199,cs,{
name = iv02;
}),
(336,199,o),
(300,244,o,{
name = at01;
}),
(300,345,cs),
(300,365,ls),
(300,465,o,{
name = ab01;
}),
(329,501,o,{
name = ih02;
}),
(385,501,cs,{
name = ih03;
}),
(420,501,o),
(444,484,o),
(455,450,c),
(725,450,l),
(701,638,o),
(548,715,o),
(390,715,cs),
(189,715,o),
(30,612,o),
(30,365,cs),
(30,345,ls),
(30,98,o),
(184,-15,o),
(395,-15,cs)
);
}
);
};
layerId = "BB51FDA8-DF56-46E5-B7C8-6101400FE38F";
shapes = (
{
closed = 1;
nodes = (
(571,-15,o),
(740,84,o),
(740,325,cs,{
name = iv01;
}),
(740,386,l,{
name = sv02;
}),
(415,386,l),
(415,244,l,{
name = sv01;
}),
(488,244,l),
(473,217,o),
(453,199,o,{
name = ih01;
}),
(405,199,cs,{
name = iv02;
}),
(336,199,o),
(300,244,o,{
name = at01;
}),
(300,345,cs),
(300,365,ls),
(300,465,o,{
name = ab01;
}),
(329,501,o,{
name = ih02;
}),
(385,501,cs,{
name = ih03;
}),
(420,501,o),
(444,484,o),
(455,450,c),
(725,450,l),
(701,638,o),
(548,715,o),
(390,715,cs),
(189,715,o),
(30,612,o),
(30,365,cs),
(30,345,ls),
(30,98,o),
(184,-15,o),
(395,-15,cs)
);
}
);
userData = {
com.fontlab.ttcommands = (
{
code = alignt;
point = at01;
zone = uc;
},
{
code = alignb;
point = ab01;
zone = "b: 0";
},
{
align = round;
code = interpolatev;
point = iv01;
point1 = at01;
point2 = ab01;
},
{
code = mdeltav;
delta = -8;
point = iv01;
ppm1 = 14;
ppm2 = 14;
},
{
align = double;
code = singlev;
point1 = iv01;
point2 = sv02;
stem = "Euro: 142";
},
{
align = round;
code = singlev;
point1 = ab01;
point2 = sv01;
stem = "OH: 212";
},
{
align = round;
code = singlev;
point1 = at01;
point2 = ih01;
stem = "OH: 212";
},
{
align = round;
code = interpolatev;
point = iv02;
point1 = ih01;
point2 = iv01;
},
{
align = round;
code = interpolateh;
point = ih01;
point1 = ih02;
point2 = ih03;
}
);
};
vertWidth = 0;
width = 770;
}
);
unicode = 71;
},
{
glyphname = Gdotaccent;
kernLeft = _O_left;
kernRight = _O_right;
lastChange = "2023-01-04 10:50:46 +0000";
layers = (
{
background = {
shapes = (
{
closed = 1;
nodes = (
(541,-10,o),
(650,109,o),
(650,325,cs,{
name = iv02;
}),
(650,355,l,{
name = sv03;
}),
(385,355,l),
(385,275,l,{
name = sv02;
}),
(560,275,l),
(549,132,o),
(476,74,o,{
name = sv01;
}),
(365,74,cs,{
name = iv01;
}),
(266,74,o),
(160,143,o,{
name = at01;
}),
(160,345,cs),
(160,365,ls),
(160,557,o,{
name = ih01;
}),
(256,626,o,{
name = ih02;
}),
(365,626,cs,{
name = ih03;
}),
(437,626,o),
(506,588,o),
(535,500,c,{
name = hr01;
}),
(635,500,l),
(603,631,o),
(501,710,o),
(365,710,cs),
(200,710,o),
(60,604,o),
(60,365,cs),
(60,345,ls),
(60,97,o),
(200,-10,o),
(365,-10,cs)
);
},
{
closed = 1;
nodes = (
(115,600,o),
(140,625,o,{
name = sv01;
}),
(140,660,cs),
(140,695,o,{
name = ih01;
}),
(115,720,o,{
name = ih02;
}),
(80,720,cs,{
name = ih03;
}),
(45,720,o),
(20,695,o),
(20,660,cs),
(20,625,o),
(45,600,o),
(80,600,cs)
);
}
);
};
layerId = "153974D4-4CB0-4785-B412-2977049B2888";
shapes = (
{
ref = G;
},
{
pos = (271,0);
ref = dotaccentcomb.case;
}
);
width = 705;
},
{
background = {
shapes = (
{
closed = 1;
nodes = (
(553,-11,o),
(665,101,o),
(665,325,cs,{
name = iv02;
}),
(665,365,l,{
name = sv03;
}),
(390,365,l),
(390,265,l,{
name = sv02;
}),
(549,265,l),
(538,148,o),
(474,95,o,{
name = sv01;
}),
(370,95,cs,{
name = iv01;
}),
(260,95,o),
(181,174,o,{
name = at01;
}),
(181,345,cs),
(181,365,ls),
(181,529,o,{
name = ih01;
}),
(257,605,o,{
name = ih02;
}),
(370,605,cs,{
name = ih03;
}),
(430,605,o),
(491,578,o),
(520,490,c,{
name = hr01;
}),
(650,490,l),
(619,634,o),
(515,711,o),
(370,711,cs),
(181,711,o),
(55,585,o),
(55,365,cs),
(55,345,ls),
(55,110,o),
(177,-11,o),
(370,-11,cs)
);
},
{
closed = 1;
nodes = (
(131,590,o),
(160,619,o,{
name = sv01;
}),
(160,660,cs),
(160,701,o,{
name = ih01;
}),
(131,730,o,{
name = ih02;
}),
(90,730,cs,{
name = ih03;
}),
(49,730,o),
(20,701,o),
(20,660,cs),
(20,619,o),
(49,590,o),
(90,590,cs)
);
}
);
};
layerId = "519BD859-66F8-41ED-8E65-BDFB48F6DA60";
shapes = (
{
ref = G;
},
{
pos = (264,0);
ref = dotaccentcomb.case;
}
);
width = 715;
},
{
background = {
shapes = (
{
closed = 1;
nodes = (
(559,-12,o),
(680,93,o),
(680,325,cs,{
name = iv02;
}),
(680,365,l,{
name = sv03;
}),
(395,365,l),
(395,261,l,{
name = sv02;
}),
(537,261,l),
(529,158,o),
(461,115,o,{
name = sv01;
}),
(375,115,cs,{
name = iv01;
}),
(290,115,o),
(206,172,o,{
name = ih01;
}),
(206,345,cs),
(206,365,ls),
(206,528,o,{
name = ab01;
}),
(281,585,o,{
name = ih02;
}),
(370,585,cs,{
name = ih03;
}),
(425,585,o),
(480,565,o),
(509,480,c,{
name = hr01;
}),
(665,480,l),
(638,636,o),
(530,712,o),
(370,712,cs),
(199,712,o),
(50,608,o),
(50,365,cs),
(50,345,ls),
(50,91,o),
(188,-12,o),
(375,-12,cs)
);
},
{
closed = 1;
nodes = (
(147,580,o),
(180,613,o,{
name = sv01;
}),
(180,660,cs),
(180,707,o,{
name = ih01;
}),
(147,740,o,{
name = ih02;
}),
(100,740,cs,{
name = ih03;
}),
(53,740,o),
(20,707,o),
(20,660,cs),
(20,613,o),
(53,580,o),
(100,580,cs)
);
}
);
};
layerId = "68905092-2787-4DB6-B22F-3BD17B98A53B";
shapes = (
{
ref = G;
},
{
pos = (257,0);
ref = dotaccentcomb.case;
}
);
width = 725;
},
{
background = {
shapes = (
{
closed = 1;
nodes = (
(563,-13,o),
(695,85,o),
(695,325,cs,{
name = iv02;
}),
(695,372,l,{
name = sv03;
}),
(400,372,l),
(400,258,l,{
name = sv02;
}),
(528,258,l),
(525,174,o),
(453,137,o,{
name = sv01;
}),
(380,137,cs,{
name = iv01;
}),
(292,137,o),
(231,196,o,{
name = ih01;
}),
(231,345,cs),
(231,365,ls),
(231,514,o,{
name = ab01;
}),
(290,563,o,{
name = ih02;
}),
(375,563,cs,{
name = ih03;
}),
(422,563,o),
(475,545,o),
(494,470,c,{
name = hr01;
}),
(680,470,l),
(659,641,o),
(534,713,o),
(375,713,cs),
(194,713,o),
(45,607,o),
(45,365,cs),
(45,345,ls),
(45,91,o),
(189,-13,o),
(380,-13,cs)
);
},
{
closed = 1;
nodes = (
(167,580,o),
(200,613,o,{
name = sv01;
}),
(200,660,cs),
(200,707,o,{
name = ih01;
}),
(167,740,o,{
name = ih02;
}),
(110,740,cs,{
name = ih03;
}),
(53,740,o),
(20,707,o),
(20,660,cs),
(20,613,o),
(53,580,o),
(110,580,cs)
);
}
);
};
layerId = "694BE86E-DB85-4EB8-AAFE-5A09896C9F48";
shapes = (
{
ref = G;
},
{
pos = (250,0);
ref = dotaccentcomb.case;
}
);
width = 735;
},
{
background = {
shapes = (
{
closed = 1;
nodes = (
(571,-15,o),
(740,84,o),
(740,325,cs,{
name = iv01;
}),
(740,386,l,{
name = sv02;
}),
(415,386,l),
(415,244,l,{
name = sv01;
}),
(488,244,l),
(473,217,o),
(453,199,o,{
name = ih01;
}),
(405,199,cs,{
name = iv02;
}),
(336,199,o),
(300,244,o,{
name = at01;
}),
(300,345,cs),
(300,365,ls),
(300,465,o,{
name = ab01;
}),
(329,501,o,{
name = ih02;
}),
(385,501,cs,{
name = ih03;
}),
(420,501,o),
(444,484,o),
(455,450,c),
(725,450,l),
(701,638,o),
(548,715,o),
(390,715,cs),
(189,715,o),
(30,612,o),
(30,365,cs),
(30,345,ls),
(30,98,o),
(184,-15,o),
(395,-15,cs)
);
},
{
closed = 1;
nodes = (
(220,580,o),
(260,611,o,{
name = sv01;
}),
(260,660,cs),
(260,709,o,{
name = ih01;
}),
(220,740,o,{
name = ih02;
}),
(140,740,cs,{
name = ih03;
}),
(60,740,o),
(20,709,o),
(20,660,cs),
(20,611,o),
(60,580,o),
(140,580,cs)
);
}
);
};
layerId = "BB51FDA8-DF56-46E5-B7C8-6101400FE38F";
shapes = (
{
ref = G;
},
{
pos = (235,0);
ref = dotaccentcomb.case;
}
);
width = 770;
}
);
unicode = 288;
},
{
glyphname = H;
kernLeft = _H_right;
kernRight = _H_left;
lastChange = "2023-01-04 10:50:46 +0000";
layers = (
{
anchors = (
{
name = bottom;
pos = (380,0);
},
{
name = center;
pos = (380,350);
},
{
name = top;
pos = (380,700);
},
{
name = topleft;
pos = (20,700);
}
);
background = {
shapes = (
{
closed = 1;
nodes = (
(194,0,l,{
name = ab02;
}),
(194,319,l),
(566,319,l,{
name = sv01;
}),
(566,0,l),
(660,0,l,{
name = ab01;
}),
(660,700,l),
(566,700,l,{
name = at02;
}),
(566,401,l,{
name = iv01;
}),
(194,401,l),
(194,700,l,{
name = ih01;
}),
(100,700,l,{
name = at01;
}),
(100,0,l)
);
}
);
};
layerId = "153974D4-4CB0-4785-B412-2977049B2888";
shapes = (
{
closed = 1;
nodes = (
(194,0,l,{
name = ab02;
}),
(194,319,l),
(566,319,l,{
name = sv01;
}),
(566,0,l),
(660,0,l,{
name = ab01;
}),
(660,700,l),
(566,700,l,{
name = at02;
}),
(566,401,l,{
name = iv01;
}),
(194,401,l),
(194,700,l,{
name = ih01;
}),
(100,700,l,{
name = at01;
}),
(100,0,l)
);
}
);
userData = {
com.fontlab.ttcommands = (
{
code = alignt;
point = at01;
zone = uc;
},
{
code = alignt;
point = at02;
zone = uc;
},
{
code = alignb;
point = ab01;
zone = "b: 0";
},
{
code = alignb;
point = ab02;
zone = "b: 0";
},
{
align = round;
code = interpolatev;
point = iv01;
point1 = at01;
point2 = ab01;
},
{
align = center;
code = singlev;
point1 = iv01;
point2 = sv01;
stem = "OH: 82";
},
{
align = round;
code = interpolateh;
point = ih01;
point1 = lsb;
point2 = rsb;
}
);
};
vertWidth = 0;
width = 760;
},
{
anchors = (
{
name = bottom;
pos = (380,0);
},
{
name = center;
pos = (380,350);
},
{
name = top;
pos = (380,700);
},
{
name = topleft;
pos = (20,700);
}
);
background = {
shapes = (
{
closed = 1;
nodes = (
(210,0,l,{
name = ab02;
}),
(210,308,l),
(550,308,l,{
name = sv01;
}),
(550,0,l),
(670,0,l,{
name = ab01;
}),
(670,700,l),
(550,700,l,{
name = at02;
}),
(550,412,l,{
name = iv01;
}),
(210,412,l),
(210,700,l,{
name = ih01;
}),
(90,700,l,{
name = at01;
}),
(90,0,l)
);
}
);
};
layerId = "519BD859-66F8-41ED-8E65-BDFB48F6DA60";
shapes = (
{
closed = 1;
nodes = (
(210,0,l,{
name = ab02;
}),
(210,308,l),
(550,308,l,{
name = sv01;
}),
(550,0,l),
(670,0,l,{
name = ab01;
}),
(670,700,l),
(550,700,l,{
name = at02;
}),
(550,412,l,{
name = iv01;
}),
(210,412,l),
(210,700,l,{
name = ih01;
}),
(90,700,l,{
name = at01;
}),
(90,0,l)
);
}
);
userData = {
com.fontlab.ttcommands = (
{
code = alignt;
point = at01;
zone = uc;
},
{
code = alignt;
point = at02;
zone = uc;
},
{
code = alignb;
point = ab01;
zone = "b: 0";
},
{
code = alignb;
point = ab02;
zone = "b: 0";
},
{
align = round;
code = interpolatev;
point = iv01;
point1 = at01;
point2 = ab01;
},
{
code = mdeltav;
delta = 8;
point = iv01;
ppm1 = 15;
ppm2 = 16;
},
{
code = mdeltav;
delta = -8;
point = iv01;
ppm1 = 25;
ppm2 = 25;
},
{
align = center;
code = singlev;
point1 = iv01;
point2 = sv01;
stem = "OH: 104";
},
{
align = round;
code = interpolateh;
point = ih01;
point1 = lsb;
point2 = rsb;
}
);
};
vertWidth = 0;
width = 760;
},
{
anchors = (
{
name = bottom;
pos = (380,0);
},
{
name = center;
pos = (380,350);
},
{
name = top;
pos = (380,700);
},
{
name = topleft;
pos = (20,700);
}
);
background = {
shapes = (
{
closed = 1;
nodes = (
(230,0,l,{
name = ab02;
}),
(230,298,l),
(530,298,l,{
name = sv01;
}),
(530,0,l),
(680,0,l,{
name = ab01;
}),
(680,700,l),
(530,700,l,{
name = at02;
}),
(530,422,l,{
name = iv01;
}),
(230,422,l),
(230,700,l,{
name = ih01;
}),
(80,700,l,{
name = at01;
}),
(80,0,l)
);
}
);
};
layerId = "68905092-2787-4DB6-B22F-3BD17B98A53B";
shapes = (
{
closed = 1;
nodes = (
(230,0,l,{
name = ab02;
}),
(230,298,l),
(530,298,l,{
name = sv01;
}),
(530,0,l),
(680,0,l,{
name = ab01;
}),
(680,700,l),
(530,700,l,{
name = at02;
}),
(530,422,l,{
name = iv01;
}),
(230,422,l),
(230,700,l,{
name = ih01;
}),
(80,700,l,{
name = at01;
}),
(80,0,l)
);
}
);
userData = {
com.fontlab.ttcommands = (
{
code = alignt;
point = at01;
zone = uc;
},
{
code = alignt;
point = at02;
zone = uc;
},
{
code = alignb;
point = ab01;
zone = "b: 0";
},
{
code = alignb;
point = ab02;
zone = "b: 0";
},
{
align = round;
code = interpolatev;
point = iv01;
point1 = at01;
point2 = ab01;
},
{
code = mdeltav;
delta = 8;
point = iv01;
ppm1 = 13;
ppm2 = 13;
},
{
align = center;
code = singlev;
point1 = iv01;
point2 = sv01;
stem = "OH: 124";
},
{
align = round;
code = interpolateh;
point = ih01;
point1 = lsb;
point2 = rsb;
}
);
};
vertWidth = 0;
width = 760;
},
{
anchors = (
{
name = bottom;
pos = (380,0);
},
{
name = center;
pos = (380,350);
},
{
name = top;
pos = (380,700);
},
{
name = topleft;
pos = (20,700);
}
);
background = {
shapes = (
{
closed = 1;
nodes = (
(250,0,l,{
name = ab02;
}),
(250,286,l),
(510,286,l,{
name = sv01;
}),
(510,0,l),
(690,0,l,{
name = ab01;
}),
(690,700,l),
(510,700,l,{
name = at02;
}),
(510,434,l,{
name = iv01;
}),
(250,434,l),
(250,700,l,{
name = ih01;
}),
(70,700,l,{
name = at01;
}),
(70,0,l)
);
}
);
};
layerId = "694BE86E-DB85-4EB8-AAFE-5A09896C9F48";
shapes = (
{
closed = 1;
nodes = (
(250,0,l,{
name = ab02;
}),
(250,286,l),
(510,286,l,{
name = sv01;
}),
(510,0,l),
(690,0,l,{
name = ab01;
}),
(690,700,l),
(510,700,l,{
name = at02;
}),
(510,434,l,{
name = iv01;
}),
(250,434,l),
(250,700,l,{
name = ih01;
}),
(70,700,l,{
name = at01;
}),
(70,0,l)
);
}
);
userData = {
com.fontlab.ttcommands = (
{
code = alignt;
point = at01;
zone = uc;
},
{
code = alignt;
point = at02;
zone = uc;
},
{
code = alignb;
point = ab01;
zone = "b: 0";
},
{
code = alignb;
point = ab02;
zone = "b: 0";
},
{
align = round;
code = interpolatev;
point = iv01;
point1 = at01;
point2 = ab01;
},
{
align = center;
code = singlev;
point1 = iv01;
point2 = sv01;
stem = "OH: 148";
},
{
align = round;
code = interpolateh;
point = ih01;
point1 = lsb;
point2 = rsb;
}
);
};
vertWidth = 0;
width = 760;
},
{
anchors = (
{
name = bottom;
pos = (380,0);
},
{
name = center;
pos = (380,350);
},
{
name = top;
pos = (380,700);
},
{
name = topleft;
pos = (20,700);
}
);
background = {
shapes = (
{
closed = 1;
nodes = (
(304,0,l,{
name = ab02;
}),
(304,249,l),
(456,249,l,{
name = sv01;
}),
(456,0,l),
(720,0,l,{
name = ab01;
}),
(720,700,l),
(456,700,l,{
name = at02;
}),
(456,461,l,{
name = iv01;
}),
(304,461,l),
(304,700,l,{
name = ih01;
}),
(40,700,l,{
name = at01;
}),
(40,0,l)
);
}
);
};
layerId = "BB51FDA8-DF56-46E5-B7C8-6101400FE38F";
shapes = (
{
closed = 1;
nodes = (
(304,0,l,{
name = ab02;
}),
(304,249,l),
(456,249,l,{
name = sv01;
}),
(456,0,l),
(720,0,l,{
name = ab01;
}),
(720,700,l),
(456,700,l,{
name = at02;
}),
(456,461,l,{
name = iv01;
}),
(304,461,l),
(304,700,l,{
name = ih01;
}),
(40,700,l,{
name = at01;
}),
(40,0,l)
);
}
);
userData = {
com.fontlab.ttcommands = (
{
code = alignt;
point = at01;
zone = uc;
},
{
code = alignt;
point = at02;
zone = uc;
},
{
code = alignb;
point = ab01;
zone = "b: 0";
},
{
code = alignb;
point = ab02;
zone = "b: 0";
},
{
align = round;
code = interpolatev;
point = iv01;
point1 = at01;
point2 = ab01;
},
{
code = mdeltav;
delta = -8;
point = iv01;
ppm1 = 14;
ppm2 = 14;
},
{
align = center;
code = singlev;
point1 = iv01;
point2 = sv01;
stem = "OH: 212";
},
{
align = round;
code = interpolateh;
point = ih01;
point1 = lsb;
point2 = rsb;
}
);
};
vertWidth = 0;
width = 760;
}
);
unicode = 72;
},
{
glyphname = Hbar;
lastChange = "2023-01-04 10:50:46 +0000";
layers = (
{
layerId = "153974D4-4CB0-4785-B412-2977049B2888";
shapes = (
{
ref = H;
},
{
closed = 1;
nodes = (
(29,519,l),
(731,519,l,{
name = sv01;
}),
(731,601,l,{
name = iv01;
}),
(29,601,l)
);
}
);
width = 760;
},
{
layerId = "519BD859-66F8-41ED-8E65-BDFB48F6DA60";
shapes = (
{
ref = H;
},
{
closed = 1;
nodes = (
(24,512,l),
(736,512,l,{
name = sv01;
}),
(736,606,l,{
name = iv01;
}),
(24,606,l)
);
}
);
width = 760;
},
{
layerId = "68905092-2787-4DB6-B22F-3BD17B98A53B";
shapes = (
{
ref = H;
},
{
closed = 1;
nodes = (
(14,507,l),
(746,507,l,{
name = sv01;
}),
(746,611,l,{
name = iv01;
}),
(14,611,l)
);
}
);
width = 760;
},
{
layerId = "694BE86E-DB85-4EB8-AAFE-5A09896C9F48";
shapes = (
{
ref = H;
},
{
closed = 1;
nodes = (
(14,502,l),
(746,502,l,{
name = sv01;
}),
(746,626,l,{
name = iv01;
}),
(14,626,l)
);
}
);
width = 760;
},
{
layerId = "BB51FDA8-DF56-46E5-B7C8-6101400FE38F";
shapes = (
{
ref = H;
},
{
closed = 1;
nodes = (
(-6,520,l),
(766,520,l,{
name = sv01;
}),
(766,644,l,{
name = iv01;
}),
(-6,644,l)
);
}
);
width = 760;
}
);
unicode = 294;
},
{
glyphname = I;
kernLeft = _H_right;
kernRight = _H_left;
lastChange = "2023-01-04 10:50:46 +0000";
layers = (
{
anchors = (
{
name = bottom;
pos = (157,0);
},
{
name = ogonek;
pos = (204,0);
},
{
name = top;
pos = (157,700);
},
{
name = topleft;
pos = (20,700);
}
);
background = {
shapes = (
{
closed = 1;
nodes = (
(204,0,l,{
name = ab01;
}),
(204,700,l),
(110,700,l,{
name = ih01;
}),
(110,0,l)
);
}
);
};
layerId = "153974D4-4CB0-4785-B412-2977049B2888";
shapes = (
{
closed = 1;
nodes = (
(204,0,l,{
name = ab01;
}),
(204,700,l),
(110,700,l,{
name = ih01;
}),
(110,0,l)
);
}
);
userData = {
com.fontlab.ttcommands = (
{
code = alignt;
point = ih01;
zone = uc;
},
{
code = alignb;
point = ab01;
zone = "b: 0";
},
{
align = double;
code = interpolateh;
point = ih01;
point1 = lsb;
point2 = rsb;
}
);
};
vertWidth = 0;
width = 314;
},
{
anchors = (
{
name = bottom;
pos = (160,0);
},
{
name = ogonek;
pos = (220,0);
},
{
name = top;
pos = (160,700);
},
{
name = topleft;
pos = (20,700);
}
);
background = {
shapes = (
{
closed = 1;
nodes = (
(220,0,l,{
name = ab01;
}),
(220,700,l),
(100,700,l,{
name = ih01;
}),
(100,0,l)
);
}
);
};
layerId = "519BD859-66F8-41ED-8E65-BDFB48F6DA60";
shapes = (
{
closed = 1;
nodes = (
(220,0,l,{
name = ab01;
}),
(220,700,l),
(100,700,l,{
name = ih01;
}),
(100,0,l)
);
}
);
userData = {
com.fontlab.ttcommands = (
{
code = alignt;
point = ih01;
zone = uc;
},
{
code = alignb;
point = ab01;
zone = "b: 0";
},
{
align = double;
code = interpolateh;
point = ih01;
point1 = lsb;
point2 = rsb;
}
);
};
vertWidth = 0;
width = 320;
},
{
anchors = (
{
name = bottom;
pos = (165,0);
},
{
name = ogonek;
pos = (240,0);
},
{
name = top;
pos = (165,700);
},
{
name = topleft;
pos = (20,700);
}
);
background = {
shapes = (
{
closed = 1;
nodes = (
(240,0,l,{
name = ab01;
}),
(240,700,l),
(90,700,l,{
name = ih01;
}),
(90,0,l)
);
}
);
};
layerId = "68905092-2787-4DB6-B22F-3BD17B98A53B";
shapes = (
{
closed = 1;
nodes = (
(240,0,l,{
name = ab01;
}),
(240,700,l),
(90,700,l,{
name = ih01;
}),
(90,0,l)
);
}
);
userData = {
com.fontlab.ttcommands = (
{
code = alignt;
point = ih01;
zone = uc;
},
{
code = alignb;
point = ab01;
zone = "b: 0";
},
{
align = double;
code = interpolateh;
point = ih01;
point1 = lsb;
point2 = rsb;
}
);
};
vertWidth = 0;
width = 330;
},
{
anchors = (
{
name = bottom;
pos = (170,0);
},
{
name = ogonek;
pos = (260,0);
},
{
name = top;
pos = (170,700);
},
{
name = topleft;
pos = (20,700);
}
);
background = {
shapes = (
{
closed = 1;
nodes = (
(260,0,l,{
name = ab01;
}),
(260,700,l),
(80,700,l,{
name = ih01;
}),
(80,0,l)
);
}
);
};
layerId = "694BE86E-DB85-4EB8-AAFE-5A09896C9F48";
shapes = (
{
closed = 1;
nodes = (
(260,0,l,{
name = ab01;
}),
(260,700,l),
(80,700,l,{
name = ih01;
}),
(80,0,l)
);
}
);
userData = {
com.fontlab.ttcommands = (
{
code = alignt;
point = ih01;
zone = uc;
},
{
code = alignb;
point = ab01;
zone = "b: 0";
},
{
align = double;
code = interpolateh;
point = ih01;
point1 = lsb;
point2 = rsb;
}
);
};
vertWidth = 0;
width = 340;
},
{
anchors = (
{
name = bottom;
pos = (177,0);
},
{
name = ogonek;
pos = (309,0);
},
{
name = top;
pos = (177,700);
},
{
name = topleft;
pos = (20,700);
}
);
background = {
shapes = (
{
closed = 1;
nodes = (
(309,0,l,{
name = ab01;
}),
(309,700,l),
(45,700,l,{
name = ih01;
}),
(45,0,l)
);
}
);
};
layerId = "BB51FDA8-DF56-46E5-B7C8-6101400FE38F";
shapes = (
{
closed = 1;
nodes = (
(309,0,l,{
name = ab01;
}),
(309,700,l),
(45,700,l,{
name = ih01;
}),
(45,0,l)
);
}
);
userData = {
com.fontlab.ttcommands = (
{
code = alignt;
point = ih01;
zone = uc;
},
{
code = alignb;
point = ab01;
zone = "b: 0";
},
{
align = double;
code = interpolateh;
point = ih01;
point1 = lsb;
point2 = rsb;
}
);
};
vertWidth = 0;
width = 354;
}
);
unicode = 73;
},
{
glyphname = IJ;
kernLeft = _H_right;
kernRight = _U_left;
lastChange = "2023-01-04 10:50:46 +0000";
layers = (
{
background = {
shapes = (
{
closed = 1;
nodes = (
(204,0,l,{
name = ab01;
}),
(204,700,l),
(110,700,l,{
name = ih01;
}),
(110,0,l)
);
},
{
closed = 1;
nodes = (
(384,-10,o),
(455,63,o),
(455,250,cs),
(455,700,l),
(361,700,l),
(361,250,ls),
(361,113,o),
(319,74,o),
(235,74,cs),
(155,74,o),
(122,113,o),
(117,180,c,{
name = hr01;
}),
(25,180,l),
(30,64,o),
(96,-10,o),
(235,-10,cs)
);
}
);
};
layerId = "153974D4-4CB0-4785-B412-2977049B2888";
shapes = (
{
ref = I;
},
{
pos = (314,0);
ref = J;
}
);
width = 869;
},
{
background = {
shapes = (
{
closed = 1;
nodes = (
(220,0,l,{
name = ab01;
}),
(220,700,l),
(100,700,l,{
name = ih01;
}),
(100,0,l)
);
},
{
closed = 1;
nodes = (
(389,-11,o),
(470,62,o),
(470,250,cs),
(470,700,l),
(350,700,l),
(350,250,ls),
(350,131,o),
(312,95,o),
(240,95,cs),
(173,95,o),
(141,131,o),
(136,200,c,{
name = hr01;
}),
(20,200,l),
(25,67,o),
(96,-11,o),
(240,-11,cs)
);
}
);
};
layerId = "519BD859-66F8-41ED-8E65-BDFB48F6DA60";
shapes = (
{
ref = I;
},
{
pos = (320,0);
ref = J;
}
);
width = 880;
},
{
background = {
shapes = (
{
closed = 1;
nodes = (
(240,0,l,{
name = ab01;
}),
(240,700,l),
(90,700,l,{
name = ih01;
}),
(90,0,l)
);
},
{
closed = 1;
nodes = (
(404,-12,o),
(495,62,o),
(495,250,cs),
(495,700,l),
(345,700,l),
(345,250,ls),
(345,150,o),
(318,115,o),
(255,115,cs),
(199,115,o),
(170,150,o),
(167,220,c,{
name = hr01;
}),
(25,220,l),
(29,71,o),
(106,-12,o),
(255,-12,cs)
);
}
);
};
layerId = "68905092-2787-4DB6-B22F-3BD17B98A53B";
shapes = (
{
ref = I;
},
{
pos = (330,0);
ref = J;
}
);
width = 905;
},
{
background = {
shapes = (
{
closed = 1;
nodes = (
(260,0,l,{
name = ab01;
}),
(260,700,l),
(80,700,l,{
name = ih01;
}),
(80,0,l)
);
},
{
closed = 1;
nodes = (
(409,-13,o),
(510,58,o),
(510,250,cs),
(510,700,l),
(330,700,l),
(330,250,ls),
(330,167,o),
(305,137,o),
(260,137,cs),
(209,137,o),
(193,172,o),
(190,240,c),
(20,240,l),
(23,77,o),
(105,-13,o),
(260,-13,cs)
);
}
);
};
layerId = "694BE86E-DB85-4EB8-AAFE-5A09896C9F48";
shapes = (
{
ref = I;
},
{
pos = (340,0);
ref = J;
}
);
width = 910;
},
{
background = {
shapes = (
{
closed = 1;
nodes = (
(309,0,l,{
name = ab01;
}),
(309,700,l),
(45,700,l,{
name = ih01;
}),
(45,0,l)
);
},
{
closed = 1;
nodes = (
(450,-15,o),
(575,50,o),
(575,270,cs),
(575,700,l),
(311,700,l),
(311,270,ls),
(311,219,o),
(306,199,o),
(270,199,cs),
(241,199,o),
(229,221,o),
(229,280,c),
(5,280,l),
(5,76,o),
(118,-15,o),
(285,-15,cs)
);
}
);
};
layerId = "BB51FDA8-DF56-46E5-B7C8-6101400FE38F";
shapes = (
{
ref = I;
},
{
pos = (354,0);
ref = J;
}
);
width = 964;
}
);
unicode = 306;
},
{
glyphname = Iacute;
kernLeft = _H_right;
kernRight = _I_accented_left;
lastChange = "2023-01-04 10:50:46 +0000";
layers = (
{
background = {
shapes = (
{
closed = 1;
nodes = (
(204,0,l,{
name = ab01;
}),
(204,700,l),
(110,700,l,{
name = ih01;
}),
(110,0,l)
);
},
{
closed = 1;
nodes = (
(197,750,l,{
name = ab01;
}),
(347,900,l),
(227,900,l,{
name = ih01;
}),
(117,750,l)
);
}
);
};
layerId = "153974D4-4CB0-4785-B412-2977049B2888";
shapes = (
{
ref = I;
},
{
pos = (97,0);
ref = acutecomb.case;
}
);
width = 314;
},
{
background = {
shapes = (
{
closed = 1;
nodes = (
(220,0,l,{
name = ab01;
}),
(220,700,l),
(100,700,l,{
name = ih01;
}),
(100,0,l)
);
},
{
closed = 1;
nodes = (
(210,750,l,{
name = ab01;
}),
(360,900,l),
(220,900,l,{
name = ih01;
}),
(110,750,l)
);
}
);
};
layerId = "519BD859-66F8-41ED-8E65-BDFB48F6DA60";
shapes = (
{
ref = I;
},
{
pos = (90,0);
ref = acutecomb.case;
}
);
width = 320;
},
{
background = {
shapes = (
{
closed = 1;
nodes = (
(240,0,l,{
name = ab01;
}),
(240,700,l),
(90,700,l,{
name = ih01;
}),
(90,0,l)
);
},
{
closed = 1;
nodes = (
(225,750,l,{
name = ih01;
}),
(375,900,l),
(215,900,l,{
name = sv01;
}),
(105,750,l)
);
}
);
};
layerId = "68905092-2787-4DB6-B22F-3BD17B98A53B";
shapes = (
{
ref = I;
},
{
pos = (85,0);
ref = acutecomb.case;
}
);
width = 330;
},
{
background = {
shapes = (
{
closed = 1;
nodes = (
(260,0,l,{
name = ab01;
}),
(260,700,l),
(80,700,l,{
name = ih01;
}),
(80,0,l)
);
},
{
closed = 1;
nodes = (
(235,750,l,{
name = ih01;
}),
(385,900,l),
(215,900,l,{
name = sv01;
}),
(105,750,l)
);
}
);
};
layerId = "694BE86E-DB85-4EB8-AAFE-5A09896C9F48";
shapes = (
{
ref = I;
},
{
pos = (84,0);
ref = acutecomb.case;
}
);
width = 340;
},
{
background = {
shapes = (
{
closed = 1;
nodes = (
(309,0,l,{
name = ab01;
}),
(309,700,l),
(45,700,l,{
name = ih01;
}),
(45,0,l)
);
},
{
closed = 1;
nodes = (
(262,750,l,{
name = ih01;
}),
(432,900,l),
(202,900,l,{
name = sv01;
}),
(92,750,l)
);
}
);
};
layerId = "BB51FDA8-DF56-46E5-B7C8-6101400FE38F";
shapes = (
{
ref = I;
},
{
pos = (72,0);
ref = acutecomb.case;
}
);
width = 354;
}
);
unicode = 205;
},
{
glyphname = Icircumflex;
kernLeft = _I_accented_right;
kernRight = _I_accented_left;
lastChange = "2023-01-04 10:50:46 +0000";
layers = (
{
background = {
shapes = (
{
closed = 1;
nodes = (
(204,0,l,{
name = ab01;
}),
(204,700,l),
(110,700,l,{
name = ih01;
}),
(110,0,l)
);
},
{
closed = 1;
nodes = (
(77,750,l,{
name = ab01;
}),
(157,830,l,{
name = ih01;
}),
(237,750,l),
(317,750,l,{
name = ab02;
}),
(206,900,l,{
name = sv02;
}),
(107,900,l,{
name = sv01;
}),
(-3,750,l)
);
}
);
};
layerId = "153974D4-4CB0-4785-B412-2977049B2888";
shapes = (
{
ref = I;
},
{
pos = (-23,0);
ref = circumflexcomb.case;
}
);
width = 314;
},
{
background = {
shapes = (
{
closed = 1;
nodes = (
(220,0,l,{
name = ab01;
}),
(220,700,l),
(100,700,l,{
name = ih01;
}),
(100,0,l)
);
},
{
closed = 1;
nodes = (
(90,750,l,{
name = ab01;
}),
(160,820,l,{
name = ih01;
}),
(230,750,l),
(330,750,l,{
name = ab02;
}),
(220,900,l,{
name = sv02;
}),
(100,900,l,{
name = sv01;
}),
(-10,750,l)
);
}
);
};
layerId = "519BD859-66F8-41ED-8E65-BDFB48F6DA60";
shapes = (
{
ref = I;
},
{
pos = (-30,0);
ref = circumflexcomb.case;
}
);
width = 320;
},
{
background = {
shapes = (
{
closed = 1;
nodes = (
(240,0,l,{
name = ab01;
}),
(240,700,l),
(90,700,l,{
name = ih01;
}),
(90,0,l)
);
},
{
closed = 1;
nodes = (
(105,750,l,{
name = ab01;
}),
(165,810,l,{
name = ih01;
}),
(225,750,l),
(345,750,l,{
name = ab02;
}),
(235,900,l,{
name = sv02;
}),
(95,900,l,{
name = sv01;
}),
(-15,750,l)
);
}
);
};
layerId = "68905092-2787-4DB6-B22F-3BD17B98A53B";
shapes = (
{
ref = I;
},
{
pos = (-35,0);
ref = circumflexcomb.case;
}
);
width = 330;
},
{
background = {
shapes = (
{
closed = 1;
nodes = (
(260,0,l,{
name = ab01;
}),
(260,700,l),
(80,700,l,{
name = ih01;
}),
(80,0,l)
);
},
{
closed = 1;
nodes = (
(110,750,l,{
name = ab01;
}),
(170,810,l,{
name = ih01;
}),
(230,750,l),
(360,750,l,{
name = ab02;
}),
(250,900,l,{
name = sv02;
}),
(90,900,l,{
name = sv01;
}),
(-20,750,l)
);
}
);
};
layerId = "694BE86E-DB85-4EB8-AAFE-5A09896C9F48";
shapes = (
{
ref = I;
},
{
pos = (-40,0);
ref = circumflexcomb.case;
}
);
width = 340;
},
{
background = {
shapes = (
{
closed = 1;
nodes = (
(309,0,l,{
name = ab01;
}),
(309,700,l),
(45,700,l,{
name = ih01;
}),
(45,0,l)
);
},
{
closed = 1;
nodes = (
(127,750,l,{
name = ab01;
}),
(177,795,l,{
name = ih01;
}),
(227,750,l),
(397,750,l,{
name = ab02;
}),
(287,900,l,{
name = sv02;
}),
(67,900,l,{
name = sv01;
}),
(-43,750,l)
);
}
);
};
layerId = "BB51FDA8-DF56-46E5-B7C8-6101400FE38F";
shapes = (
{
ref = I;
},
{
pos = (-63,0);
ref = circumflexcomb.case;
}
);
width = 354;
}
);
unicode = 206;
},
{
glyphname = Idieresis;
kernLeft = _I_accented_right;
kernRight = _I_accented_left;
lastChange = "2023-01-04 10:50:46 +0000";
layers = (
{
background = {
shapes = (
{
closed = 1;
nodes = (
(204,0,l,{
name = ab01;
}),
(204,700,l),
(110,700,l,{
name = ih01;
}),
(110,0,l)
);
},
{
closed = 1;
nodes = (
(80,765,o),
(107,792,o),
(107,825,cs),
(107,858,o),
(80,885,o),
(47,885,cs),
(14,885,o),
(-13,858,o),
(-13,825,cs),
(-13,792,o),
(14,765,o),
(47,765,cs)
);
},
{
closed = 1;
nodes = (
(300,765,o),
(327,792,o),
(327,825,cs),
(327,858,o),
(300,885,o),
(267,885,cs),
(234,885,o),
(207,858,o),
(207,825,cs),
(207,792,o),
(234,765,o),
(267,765,cs)
);
}
);
};
layerId = "153974D4-4CB0-4785-B412-2977049B2888";
shapes = (
{
ref = I;
},
{
pos = (-33,0);
ref = dieresiscomb.case;
}
);
width = 314;
},
{
background = {
shapes = (
{
closed = 1;
nodes = (
(220,0,l,{
name = ab01;
}),
(220,700,l),
(100,700,l,{
name = ih01;
}),
(100,0,l)
);
},
{
closed = 1;
nodes = (
(86,755,o),
(115,784,o),
(115,825,cs),
(115,866,o),
(86,895,o),
(45,895,cs),
(4,895,o),
(-25,866,o),
(-25,825,cs),
(-25,784,o),
(4,755,o),
(45,755,cs)
);
},
{
closed = 1;
nodes = (
(316,755,o),
(345,784,o),
(345,825,cs),
(345,866,o),
(316,895,o),
(275,895,cs),
(234,895,o),
(205,866,o),
(205,825,cs),
(205,784,o),
(234,755,o),
(275,755,cs)
);
}
);
};
layerId = "519BD859-66F8-41ED-8E65-BDFB48F6DA60";
shapes = (
{
ref = I;
},
{
pos = (-45,0);
ref = dieresiscomb.case;
}
);
width = 320;
},
{
background = {
shapes = (
{
closed = 1;
nodes = (
(240,0,l,{
name = ab01;
}),
(240,700,l),
(90,700,l,{
name = ih01;
}),
(90,0,l)
);
},
{
closed = 1;
nodes = (
(92,745,o),
(125,778,o),
(125,825,cs),
(125,872,o),
(92,905,o),
(45,905,cs),
(-2,905,o),
(-35,872,o),
(-35,825,cs),
(-35,778,o),
(-2,745,o),
(45,745,cs)
);
},
{
closed = 1;
nodes = (
(332,745,o),
(365,778,o),
(365,825,cs),
(365,872,o),
(332,905,o),
(285,905,cs),
(238,905,o),
(205,872,o),
(205,825,cs),
(205,778,o),
(238,745,o),
(285,745,cs)
);
}
);
};
layerId = "68905092-2787-4DB6-B22F-3BD17B98A53B";
shapes = (
{
ref = I;
},
{
pos = (-55,0);
ref = dieresiscomb.case;
}
);
width = 330;
},
{
background = {
shapes = (
{
closed = 1;
nodes = (
(260,0,l,{
name = ab01;
}),
(260,700,l),
(80,700,l,{
name = ih01;
}),
(80,0,l)
);
},
{
closed = 1;
nodes = (
(102,740,o),
(135,778,o),
(135,825,cs),
(135,872,o),
(102,910,o),
(45,910,cs),
(-12,910,o),
(-45,872,o),
(-45,825,cs),
(-45,778,o),
(-12,740,o),
(45,740,cs)
);
},
{
closed = 1;
nodes = (
(352,740,o),
(385,778,o),
(385,825,cs),
(385,872,o),
(352,910,o),
(295,910,cs),
(238,910,o),
(205,872,o),
(205,825,cs),
(205,778,o),
(238,740,o),
(295,740,cs)
);
}
);
};
layerId = "694BE86E-DB85-4EB8-AAFE-5A09896C9F48";
shapes = (
{
ref = I;
},
{
pos = (-65,0);
ref = dieresiscomb.case;
}
);
width = 340;
},
{
background = {
shapes = (
{
closed = 1;
nodes = (
(309,0,l,{
name = ab01;
}),
(309,700,l),
(45,700,l,{
name = ih01;
}),
(45,0,l)
);
},
{
closed = 1;
nodes = (
(109,740,o),
(152,774,o),
(152,825,cs),
(152,876,o),
(109,910,o),
(42,910,cs),
(-25,910,o),
(-68,876,o),
(-68,825,cs),
(-68,774,o),
(-25,740,o),
(42,740,cs)
);
},
{
closed = 1;
nodes = (
(379,740,o),
(422,774,o),
(422,825,cs),
(422,876,o),
(379,910,o),
(312,910,cs),
(245,910,o),
(202,876,o),
(202,825,cs),
(202,774,o),
(245,740,o),
(312,740,cs)
);
}
);
};
layerId = "BB51FDA8-DF56-46E5-B7C8-6101400FE38F";
shapes = (
{
ref = I;
},
{
pos = (-88,0);
ref = dieresiscomb.case;
}
);
width = 354;
}
);
unicode = 207;
},
{
glyphname = Idotaccent;
kernLeft = _I_accented_right;
kernRight = _I_accented_left;
lastChange = "2023-01-04 10:50:46 +0000";
layers = (
{
background = {
shapes = (
{
closed = 1;
nodes = (
(204,0,l,{
name = ab01;
}),
(204,700,l),
(110,700,l,{
name = ih01;
}),
(110,0,l)
);
},
{
closed = 1;
nodes = (
(115,600,o),
(140,625,o,{
name = sv01;
}),
(140,660,cs),
(140,695,o,{
name = ih01;
}),
(115,720,o,{
name = ih02;
}),
(80,720,cs,{
name = ih03;
}),
(45,720,o),
(20,695,o),
(20,660,cs),
(20,625,o),
(45,600,o),
(80,600,cs)
);
}
);
};
layerId = "153974D4-4CB0-4785-B412-2977049B2888";
shapes = (
{
ref = I;
},
{
pos = (75,0);
ref = dotaccentcomb.case;
}
);
width = 314;
},
{
background = {
shapes = (
{
closed = 1;
nodes = (
(220,0,l,{
name = ab01;
}),
(220,700,l),
(100,700,l,{
name = ih01;
}),
(100,0,l)
);
},
{
closed = 1;
nodes = (
(131,590,o),
(160,619,o,{
name = sv01;
}),
(160,660,cs),
(160,701,o,{
name = ih01;
}),
(131,730,o,{
name = ih02;
}),
(90,730,cs,{
name = ih03;
}),
(49,730,o),
(20,701,o),
(20,660,cs),
(20,619,o),
(49,590,o),
(90,590,cs)
);
}
);
};
layerId = "519BD859-66F8-41ED-8E65-BDFB48F6DA60";
shapes = (
{
ref = I;
},
{
pos = (66,0);
ref = dotaccentcomb.case;
}
);
width = 320;
},
{
background = {
shapes = (
{
closed = 1;
nodes = (
(240,0,l,{
name = ab01;
}),
(240,700,l),
(90,700,l,{
name = ih01;
}),
(90,0,l)
);
},
{
closed = 1;
nodes = (
(147,580,o),
(180,613,o,{
name = sv01;
}),
(180,660,cs),
(180,707,o,{
name = ih01;
}),
(147,740,o,{
name = ih02;
}),
(100,740,cs,{
name = ih03;
}),
(53,740,o),
(20,707,o),
(20,660,cs),
(20,613,o),
(53,580,o),
(100,580,cs)
);
}
);
};
layerId = "68905092-2787-4DB6-B22F-3BD17B98A53B";
shapes = (
{
ref = I;
},
{
pos = (59,0);
ref = dotaccentcomb.case;
}
);
width = 330;
},
{
background = {
shapes = (
{
closed = 1;
nodes = (
(260,0,l,{
name = ab01;
}),
(260,700,l),
(80,700,l,{
name = ih01;
}),
(80,0,l)
);
},
{
closed = 1;
nodes = (
(167,580,o),
(200,613,o,{
name = sv01;
}),
(200,660,cs),
(200,707,o,{
name = ih01;
}),
(167,740,o,{
name = ih02;
}),
(110,740,cs,{
name = ih03;
}),
(53,740,o),
(20,707,o),
(20,660,cs),
(20,613,o),
(53,580,o),
(110,580,cs)
);
}
);
};
layerId = "694BE86E-DB85-4EB8-AAFE-5A09896C9F48";
shapes = (
{
ref = I;
},
{
pos = (52,0);
ref = dotaccentcomb.case;
}
);
width = 340;
},
{
background = {
shapes = (
{
closed = 1;
nodes = (
(309,0,l,{
name = ab01;
}),
(309,700,l),
(45,700,l,{
name = ih01;
}),
(45,0,l)
);
},
{
closed = 1;
nodes = (
(220,580,o),
(260,611,o,{
name = sv01;
}),
(260,660,cs),
(260,709,o,{
name = ih01;
}),
(220,740,o,{
name = ih02;
}),
(140,740,cs,{
name = ih03;
}),
(60,740,o),
(20,709,o),
(20,660,cs),
(20,611,o),
(60,580,o),
(140,580,cs)
);
}
);
};
layerId = "BB51FDA8-DF56-46E5-B7C8-6101400FE38F";
shapes = (
{
ref = I;
},
{
pos = (27,0);
ref = dotaccentcomb.case;
}
);
width = 354;
}
);
unicode = 304;
},
{
glyphname = Igrave;
kernLeft = _I_accented_right;
kernRight = _H_left;
lastChange = "2023-01-04 10:50:46 +0000";
layers = (
{
background = {
shapes = (
{
closed = 1;
nodes = (
(204,0,l,{
name = ab01;
}),
(204,700,l),
(110,700,l,{
name = ih01;
}),
(110,0,l)
);
},
{
closed = 1;
nodes = (
(197,750,l,{
name = ab01;
}),
(86,900,l,{
name = ih01;
}),
(-33,900,l,{
name = sv01;
}),
(117,750,l)
);
}
);
};
layerId = "153974D4-4CB0-4785-B412-2977049B2888";
shapes = (
{
ref = I;
},
{
pos = (-53,0);
ref = gravecomb.case;
}
);
width = 314;
},
{
background = {
shapes = (
{
closed = 1;
nodes = (
(220,0,l,{
name = ab01;
}),
(220,700,l),
(100,700,l,{
name = ih01;
}),
(100,0,l)
);
},
{
closed = 1;
nodes = (
(210,750,l,{
name = ab01;
}),
(100,900,l,{
name = ih01;
}),
(-40,900,l,{
name = sv01;
}),
(110,750,l)
);
}
);
};
layerId = "519BD859-66F8-41ED-8E65-BDFB48F6DA60";
shapes = (
{
ref = I;
},
{
pos = (-60,0);
ref = gravecomb.case;
}
);
width = 320;
},
{
background = {
shapes = (
{
closed = 1;
nodes = (
(240,0,l,{
name = ab01;
}),
(240,700,l),
(90,700,l,{
name = ih01;
}),
(90,0,l)
);
},
{
closed = 1;
nodes = (
(225,750,l,{
name = ab01;
}),
(115,900,l),
(-45,900,l,{
name = sv01;
}),
(105,750,l,{
name = ih01;
})
);
}
);
};
layerId = "68905092-2787-4DB6-B22F-3BD17B98A53B";
shapes = (
{
ref = I;
},
{
pos = (-65,0);
ref = gravecomb.case;
}
);
width = 330;
},
{
background = {
shapes = (
{
closed = 1;
nodes = (
(260,0,l,{
name = ab01;
}),
(260,700,l),
(80,700,l,{
name = ih01;
}),
(80,0,l)
);
},
{
closed = 1;
nodes = (
(235,750,l,{
name = ab01;
}),
(125,900,l),
(-45,900,l,{
name = sv01;
}),
(105,750,l,{
name = ih01;
})
);
}
);
};
layerId = "694BE86E-DB85-4EB8-AAFE-5A09896C9F48";
shapes = (
{
ref = I;
},
{
pos = (-65,0);
ref = gravecomb.case;
}
);
width = 340;
},
{
background = {
shapes = (
{
closed = 1;
nodes = (
(309,0,l,{
name = ab01;
}),
(309,700,l),
(45,700,l,{
name = ih01;
}),
(45,0,l)
);
},
{
closed = 1;
nodes = (
(262,750,l,{
name = ab01;
}),
(152,900,l),
(-78,900,l,{
name = sv01;
}),
(92,750,l,{
name = ih01;
})
);
}
);
};
layerId = "BB51FDA8-DF56-46E5-B7C8-6101400FE38F";
shapes = (
{
ref = I;
},
{
pos = (-108,0);
ref = gravecomb.case;
}
);
width = 354;
}
);
unicode = 204;
},
{
glyphname = Imacron;
kernLeft = _I_accented_right;
kernRight = _I_accented_left;
lastChange = "2023-01-04 10:50:46 +0000";
layers = (
{
background = {
shapes = (
{
closed = 1;
nodes = (
(204,0,l,{
name = ab01;
}),
(204,700,l),
(110,700,l,{
name = ih01;
}),
(110,0,l)
);
},
{
closed = 1;
nodes = (
(280,626,l,{
name = av01;
}),
(280,694,l,{
name = sv01;
}),
(20,694,l,{
name = ih01;
}),
(20,626,l)
);
}
);
};
layerId = "153974D4-4CB0-4785-B412-2977049B2888";
shapes = (
{
ref = I;
},
{
pos = (-3,0);
ref = macroncomb.case;
}
);
width = 314;
},
{
background = {
shapes = (
{
closed = 1;
nodes = (
(220,0,l,{
name = ab01;
}),
(220,700,l),
(100,700,l,{
name = ih01;
}),
(100,0,l)
);
},
{
closed = 1;
nodes = (
(300,618,l,{
name = av01;
}),
(300,702,l,{
name = sv01;
}),
(20,702,l,{
name = ih01;
}),
(20,618,l)
);
}
);
};
layerId = "519BD859-66F8-41ED-8E65-BDFB48F6DA60";
shapes = (
{
ref = I;
},
{
pos = (-10,0);
ref = macroncomb.case;
}
);
width = 320;
},
{
background = {
shapes = (
{
closed = 1;
nodes = (
(240,0,l,{
name = ab01;
}),
(240,700,l),
(90,700,l,{
name = ih01;
}),
(90,0,l)
);
},
{
closed = 1;
nodes = (
(320,615,l,{
name = av01;
}),
(320,705,l,{
name = sv01;
}),
(20,705,l,{
name = ih01;
}),
(20,615,l)
);
}
);
};
layerId = "68905092-2787-4DB6-B22F-3BD17B98A53B";
shapes = (
{
ref = I;
},
{
pos = (-15,15);
ref = macroncomb.case;
}
);
width = 330;
},
{
background = {
shapes = (
{
closed = 1;
nodes = (
(260,0,l,{
name = ab01;
}),
(260,700,l),
(80,700,l,{
name = ih01;
}),
(80,0,l)
);
},
{
closed = 1;
nodes = (
(340,607,l,{
name = av01;
}),
(340,713,l,{
name = sv01;
}),
(20,713,l,{
name = ih01;
}),
(20,607,l)
);
}
);
};
layerId = "694BE86E-DB85-4EB8-AAFE-5A09896C9F48";
shapes = (
{
ref = I;
},
{
pos = (-15,0);
ref = macroncomb.case;
}
);
width = 340;
},
{
background = {
shapes = (
{
closed = 1;
nodes = (
(309,0,l,{
name = ab01;
}),
(309,700,l),
(45,700,l,{
name = ih01;
}),
(45,0,l)
);
},
{
closed = 1;
nodes = (
(360,597,l,{
name = av01;
}),
(360,723,l,{
name = sv01;
}),
(20,723,l,{
name = ih01;
}),
(20,597,l)
);
}
);
};
layerId = "BB51FDA8-DF56-46E5-B7C8-6101400FE38F";
shapes = (
{
ref = I;
},
{
pos = (-18,0);
ref = macroncomb.case;
}
);
width = 354;
}
);
unicode = 298;
},
{
glyphname = J;
kernRight = _U_left;
lastChange = "2023-01-04 10:50:46 +0000";
layers = (
{
anchors = (
{
name = bottom;
pos = (278,0);
},
{
name = top;
pos = (278,700);
}
);
background = {
shapes = (
{
closed = 1;
nodes = (
(384,-10,o),
(455,63,o),
(455,250,cs),
(455,700,l),
(361,700,l),
(361,250,ls),
(361,113,o),
(319,74,o),
(235,74,cs),
(155,74,o),
(122,113,o),
(117,180,c,{
name = hr01;
}),
(25,180,l),
(30,64,o),
(96,-10,o),
(235,-10,cs)
);
}
);
};
layerId = "153974D4-4CB0-4785-B412-2977049B2888";
shapes = (
{
closed = 1;
nodes = (
(384,-10,o),
(455,63,o),
(455,250,cs),
(455,700,l),
(361,700,l),
(361,250,ls),
(361,113,o),
(319,74,o),
(235,74,cs),
(155,74,o),
(122,113,o),
(117,180,c,{
name = hr01;
}),
(25,180,l),
(30,64,o),
(96,-10,o),
(235,-10,cs)
);
}
);
vertWidth = 0;
width = 555;
},
{
anchors = (
{
name = bottom;
pos = (280,0);
},
{
name = top;
pos = (280,700);
}
);
background = {
shapes = (
{
closed = 1;
nodes = (
(389,-11,o),
(470,62,o),
(470,250,cs),
(470,700,l),
(350,700,l),
(350,250,ls),
(350,131,o),
(312,95,o),
(240,95,cs),
(173,95,o),
(141,131,o),
(136,200,c,{
name = hr01;
}),
(20,200,l),
(25,67,o),
(96,-11,o),
(240,-11,cs)
);
}
);
};
layerId = "519BD859-66F8-41ED-8E65-BDFB48F6DA60";
shapes = (
{
closed = 1;
nodes = (
(389,-11,o),
(470,62,o),
(470,250,cs),
(470,700,l),
(350,700,l),
(350,250,ls),
(350,131,o),
(312,95,o),
(240,95,cs),
(173,95,o),
(141,131,o),
(136,200,c,{
name = hr01;
}),
(20,200,l),
(25,67,o),
(96,-11,o),
(240,-11,cs)
);
}
);
vertWidth = 0;
width = 560;
},
{
anchors = (
{
name = bottom;
pos = (288,0);
},
{
name = top;
pos = (288,700);
}
);
background = {
shapes = (
{
closed = 1;
nodes = (
(404,-12,o),
(495,62,o),
(495,250,cs),
(495,700,l),
(345,700,l),
(345,250,ls),
(345,150,o),
(318,115,o),
(255,115,cs),
(199,115,o),
(170,150,o),
(167,220,c,{
name = hr01;
}),
(25,220,l),
(29,71,o),
(106,-12,o),
(255,-12,cs)
);
}
);
};
layerId = "68905092-2787-4DB6-B22F-3BD17B98A53B";
shapes = (
{
closed = 1;
nodes = (
(404,-12,o),
(495,62,o),
(495,250,cs),
(495,700,l),
(345,700,l),
(345,250,ls),
(345,150,o),
(318,115,o),
(255,115,cs),
(199,115,o),
(170,150,o),
(167,220,c,{
name = hr01;
}),
(25,220,l),
(29,71,o),
(106,-12,o),
(255,-12,cs)
);
}
);
vertWidth = 0;
width = 575;
},
{
anchors = (
{
name = bottom;
pos = (285,0);
},
{
name = top;
pos = (285,700);
}
);
background = {
shapes = (
{
closed = 1;
nodes = (
(409,-13,o),
(510,58,o),
(510,250,cs),
(510,700,l),
(330,700,l),
(330,250,ls),
(330,167,o),
(305,137,o),
(260,137,cs),
(209,137,o),
(193,172,o),
(190,240,c),
(20,240,l),
(23,77,o),
(105,-13,o),
(260,-13,cs)
);
}
);
};
layerId = "694BE86E-DB85-4EB8-AAFE-5A09896C9F48";
shapes = (
{
closed = 1;
nodes = (
(409,-13,o),
(510,58,o),
(510,250,cs),
(510,700,l),
(330,700,l),
(330,250,ls),
(330,167,o),
(305,137,o),
(260,137,cs),
(209,137,o),
(193,172,o),
(190,240,c),
(20,240,l),
(23,77,o),
(105,-13,o),
(260,-13,cs)
);
}
);
vertWidth = 0;
width = 570;
},
{
anchors = (
{
name = bottom;
pos = (305,0);
},
{
name = top;
pos = (305,700);
}
);
background = {
shapes = (
{
closed = 1;
nodes = (
(450,-15,o),
(575,50,o),
(575,270,cs),
(575,700,l),
(311,700,l),
(311,270,ls),
(311,219,o),
(306,199,o),
(270,199,cs),
(241,199,o),
(229,221,o),
(229,280,c),
(5,280,l),
(5,76,o),
(118,-15,o),
(285,-15,cs)
);
}
);
};
layerId = "BB51FDA8-DF56-46E5-B7C8-6101400FE38F";
shapes = (
{
closed = 1;
nodes = (
(450,-15,o),
(575,50,o),
(575,270,cs),
(575,700,l),
(311,700,l),
(311,270,ls),
(311,219,o),
(306,199,o),
(270,199,cs),
(241,199,o),
(229,221,o),
(229,280,c),
(5,280,l),
(5,76,o),
(118,-15,o),
(285,-15,cs)
);
}
);
vertWidth = 0;
width = 610;
}
);
unicode = 74;
},
{
glyphname = K;
kernLeft = _H_right;
kernRight = _X_left;
lastChange = "2023-01-04 10:50:46 +0000";
layers = (
{
anchors = (
{
name = bottom;
pos = (345,0);
},
{
name = top;
pos = (345,700);
}
);
background = {
shapes = (
{
closed = 1;
nodes = (
(194,0,l,{
name = ab02;
}),
(194,211,l),
(319,348,l,{
name = ih01;
}),
(544,0,l),
(660,0,l,{
name = ab01;
}),
(380,412,l),
(640,700,l),
(523,700,l,{
name = at02;
}),
(194,331,l,{
name = iv01;
}),
(194,700,l),
(100,700,l,{
name = at01;
}),
(100,0,l)
);
}
);
};
layerId = "153974D4-4CB0-4785-B412-2977049B2888";
shapes = (
{
closed = 1;
nodes = (
(194,0,l,{
name = ab02;
}),
(194,211,l),
(319,348,l,{
name = ih01;
}),
(544,0,l),
(660,0,l,{
name = ab01;
}),
(380,412,l),
(640,700,l),
(523,700,l,{
name = at02;
}),
(194,331,l,{
name = iv01;
}),
(194,700,l),
(100,700,l,{
name = at01;
}),
(100,0,l)
);
}
);
userData = {
com.fontlab.ttcommands = (
{
code = alignt;
point = at01;
zone = uc;
},
{
code = alignt;
point = at02;
zone = uc;
},
{
code = alignb;
point = ab01;
zone = "b: 0";
},
{
code = alignb;
point = ab02;
zone = "b: 0";
},
{
align = round;
code = interpolatev;
point = ih01;
point1 = at01;
point2 = ab01;
},
{
align = round;
code = interpolatev;
point = iv01;
point1 = at01;
point2 = ab01;
},
{
align = round;
code = interpolateh;
point = ih01;
point1 = lsb;
point2 = rsb;
}
);
};
vertWidth = 0;
width = 690;
},
{
anchors = (
{
name = bottom;
pos = (348,0);
},
{
name = top;
pos = (348,700);
}
);
background = {
shapes = (
{
closed = 1;
nodes = (
(210,0,l,{
name = ab02;
}),
(210,225,l),
(308,331,l,{
name = ih01;
}),
(524,0,l),
(670,0,l,{
name = ab01;
}),
(388,414,l),
(650,700,l),
(506,700,l,{
name = at02;
}),
(210,366,l,{
name = iv01;
}),
(210,700,l),
(90,700,l,{
name = at01;
}),
(90,0,l)
);
}
);
};
layerId = "519BD859-66F8-41ED-8E65-BDFB48F6DA60";
shapes = (
{
closed = 1;
nodes = (
(210,0,l,{
name = ab02;
}),
(210,225,l),
(308,331,l,{
name = ih01;
}),
(524,0,l),
(670,0,l,{
name = ab01;
}),
(388,414,l),
(650,700,l),
(506,700,l,{
name = at02;
}),
(210,366,l,{
name = iv01;
}),
(210,700,l),
(90,700,l,{
name = at01;
}),
(90,0,l)
);
}
);
userData = {
com.fontlab.ttcommands = (
{
code = alignt;
point = at01;
zone = uc;
},
{
code = alignt;
point = at02;
zone = uc;
},
{
code = alignb;
point = ab01;
zone = "b: 0";
},
{
code = alignb;
point = ab02;
zone = "b: 0";
},
{
align = round;
code = interpolatev;
point = ih01;
point1 = at01;
point2 = ab01;
},
{
align = round;
code = interpolatev;
point = iv01;
point1 = at01;
point2 = ab01;
},
{
align = round;
code = interpolateh;
point = ih01;
point1 = lsb;
point2 = rsb;
}
);
};
vertWidth = 0;
width = 695;
},
{
anchors = (
{
name = bottom;
pos = (350,0);
},
{
name = top;
pos = (350,700);
}
);
background = {
shapes = (
{
closed = 1;
nodes = (
(230,0,l,{
name = ab02;
}),
(230,240,l),
(298,314,l,{
name = iv02;
}),
(504,0,l),
(680,0,l,{
name = ab01;
}),
(399,413,l,{
name = ih01;
}),
(660,700,l),
(486,700,l,{
name = at02;
}),
(230,405,l,{
name = iv01;
}),
(230,700,l),
(80,700,l,{
name = at01;
}),
(80,0,l)
);
}
);
};
layerId = "68905092-2787-4DB6-B22F-3BD17B98A53B";
shapes = (
{
closed = 1;
nodes = (
(230,0,l,{
name = ab02;
}),
(230,240,l),
(298,314,l,{
name = iv02;
}),
(504,0,l),
(680,0,l,{
name = ab01;
}),
(399,413,l,{
name = ih01;
}),
(660,700,l),
(486,700,l,{
name = at02;
}),
(230,405,l,{
name = iv01;
}),
(230,700,l),
(80,700,l,{
name = at01;
}),
(80,0,l)
);
}
);
userData = {
com.fontlab.ttcommands = (
{
code = alignt;
point = at01;
zone = uc;
},
{
code = alignt;
point = at02;
zone = uc;
},
{
code = alignb;
point = ab01;
zone = "b: 0";
},
{
code = alignb;
point = ab02;
zone = "b: 0";
},
{
align = round;
code = interpolatev;
point = iv02;
point1 = at01;
point2 = ab01;
},
{
align = round;
code = interpolatev;
point = iv01;
point1 = at01;
point2 = ab01;
},
{
align = round;
code = interpolateh;
point = ih01;
point1 = lsb;
point2 = rsb;
}
);
};
vertWidth = 0;
width = 700;
},
{
anchors = (
{
name = bottom;
pos = (363,0);
},
{
name = top;
pos = (363,700);
}
);
background = {
shapes = (
{
closed = 1;
nodes = (
(250,0,l,{
name = ab02;
}),
(250,231,l),
(308,296,l,{
name = ih01;
}),
(500,0,l),
(710,0,l,{
name = ab01;
}),
(430,412,l),
(690,700,l),
(494,700,l,{
name = at02;
}),
(250,419,l,{
name = iv01;
}),
(250,700,l),
(70,700,l,{
name = at01;
}),
(70,0,l)
);
}
);
};
layerId = "694BE86E-DB85-4EB8-AAFE-5A09896C9F48";
shapes = (
{
closed = 1;
nodes = (
(250,0,l,{
name = ab02;
}),
(250,231,l),
(308,296,l,{
name = ih01;
}),
(500,0,l),
(710,0,l,{
name = ab01;
}),
(430,412,l),
(690,700,l),
(494,700,l,{
name = at02;
}),
(250,419,l,{
name = iv01;
}),
(250,700,l),
(70,700,l,{
name = at01;
}),
(70,0,l)
);
}
);
userData = {
com.fontlab.ttcommands = (
{
code = alignt;
point = at01;
zone = uc;
},
{
code = alignt;
point = at02;
zone = uc;
},
{
code = alignb;
point = ab01;
zone = "b: 0";
},
{
code = alignb;
point = ab02;
zone = "b: 0";
},
{
align = round;
code = interpolatev;
point = ih01;
point1 = at01;
point2 = ab01;
},
{
align = round;
code = interpolatev;
point = iv01;
point1 = at01;
point2 = ab01;
},
{
align = round;
code = interpolateh;
point = ih01;
point1 = lsb;
point2 = rsb;
}
);
};
vertWidth = 0;
width = 725;
},
{
anchors = (
{
name = bottom;
pos = (378,0);
},
{
name = top;
pos = (378,700);
}
);
background = {
shapes = (
{
closed = 1;
nodes = (
(304,0,l,{
name = ab02;
}),
(304,181,l),
(337,221,l,{
name = ih01;
}),
(454,0,l),
(750,0,l,{
name = ab01;
}),
(515,403,l),
(740,700,l),
(454,700,l,{
name = at02;
}),
(304,490,l,{
name = iv01;
}),
(304,700,l),
(40,700,l,{
name = at01;
}),
(40,0,l)
);
}
);
};
layerId = "BB51FDA8-DF56-46E5-B7C8-6101400FE38F";
shapes = (
{
closed = 1;
nodes = (
(304,0,l,{
name = ab02;
}),
(304,181,l),
(337,221,l,{
name = ih01;
}),
(454,0,l),
(750,0,l,{
name = ab01;
}),
(515,403,l),
(740,700,l),
(454,700,l,{
name = at02;
}),
(304,490,l,{
name = iv01;
}),
(304,700,l),
(40,700,l,{
name = at01;
}),
(40,0,l)
);
}
);
userData = {
com.fontlab.ttcommands = (
{
code = alignt;
point = at01;
zone = uc;
},
{
code = alignt;
point = at02;
zone = uc;
},
{
code = alignb;
point = ab01;
zone = "b: 0";
},
{
code = alignb;
point = ab02;
zone = "b: 0";
},
{
align = round;
code = interpolatev;
point = ih01;
point1 = at01;
point2 = ab01;
},
{
align = round;
code = interpolatev;
point = iv01;
point1 = at01;
point2 = ab01;
},
{
align = round;
code = interpolateh;
point = ih01;
point1 = lsb;
point2 = rsb;
}
);
};
vertWidth = 0;
width = 755;
}
);
unicode = 75;
},
